SplineFontDB: 3.2
FontName: NewHeterodoxMono-Book
FullName: New Heterodox Mono Book
FamilyName: New Heterodox Mono
Weight: Book
Copyright: Copyright (C) 2006-2008 Alexey Kryukov <alexios@thessalonica.org.ru>\nCopyright (C) 2019 Hao Chi Kiang <hello@hckiang.com>
Version: 0.0.1
ItalicAngle: 0
UnderlinePosition: -198
UnderlineWidth: 40
Ascent: 762
Descent: 238
InvalidEm: 0
sfntRevision: 0x00020000
LayerCount: 2
Layer: 0 1 "Back" 1
Layer: 1 1 "Fore" 0
XUID: [1021 903 24678482 131528]
StyleMap: 0x0040
FSType: 0
OS2Version: 4
OS2_WeightWidthSlopeOnly: 0
OS2_UseTypoMetrics: 0
CreationTime: 1222415241
ModificationTime: 1623412021
PfmFamily: 17
TTFWeight: 400
TTFWidth: 5
LineGap: 236
VLineGap: 0
Panose: 2 4 5 3 5 5 5 2 3 3
OS2TypoAscent: 762
OS2TypoAOffset: 0
OS2TypoDescent: -238
OS2TypoDOffset: 0
OS2TypoLinegap: 236
OS2WinAscent: 952
OS2WinAOffset: 0
OS2WinDescent: 294
OS2WinDOffset: 0
HheadAscent: 952
HheadAOffset: 0
HheadDescent: -294
HheadDOffset: 0
OS2SubXSize: 640
OS2SubYSize: 660
OS2SubXOff: 0
OS2SubYOff: 480
OS2SupXSize: 640
OS2SupYSize: 660
OS2SupXOff: 0
OS2SupYOff: 0
OS2StrikeYSize: 40
OS2StrikeYPos: 212
OS2FamilyClass: 768
OS2Vendor: 'PfEd'
OS2CodePages: 2000009f.00000000
OS2UnicodeRanges: e0000aff.520120ff.02000000.00000000
MarkAttachClasses: 1
DEI: 91125
TtTable: prep
PUSHW_1
 511
SCANCTRL
PUSHB_1
 1
SCANTYPE
SVTCA[y-axis]
MPPEM
PUSHB_1
 8
LT
IF
PUSHB_2
 1
 1
INSTCTRL
EIF
PUSHB_2
 70
 6
CALL
IF
POP
PUSHB_1
 16
EIF
MPPEM
PUSHB_1
 20
GT
IF
POP
PUSHB_1
 128
EIF
SCVTCI
PUSHB_1
 6
CALL
NOT
IF
SVTCA[y-axis]
PUSHB_1
 7
DUP
RCVT
PUSHB_1
 3
CALL
WCVTP
PUSHB_1
 8
DUP
RCVT
PUSHB_3
 7
 143
 2
CALL
PUSHB_1
 3
CALL
WCVTP
PUSHB_1
 9
DUP
RCVT
PUSHB_3
 8
 94
 2
CALL
PUSHB_1
 3
CALL
WCVTP
PUSHB_1
 10
DUP
RCVT
PUSHB_3
 9
 56
 2
CALL
PUSHB_1
 3
CALL
WCVTP
PUSHB_1
 11
DUP
RCVT
PUSHB_3
 10
 50
 2
CALL
PUSHB_1
 3
CALL
WCVTP
SVTCA[x-axis]
PUSHB_1
 12
DUP
RCVT
PUSHB_1
 3
CALL
WCVTP
PUSHB_1
 13
DUP
RCVT
PUSHB_3
 12
 77
 2
CALL
PUSHB_2
 3
 70
SROUND
CALL
WCVTP
PUSHB_1
 14
DUP
RCVT

StartChar: .notdef
Encoding: 1114112 -1 0
Width: 500
Flags: W
HStem: 0 32<88.4219 411.578> 682 32<88.4219 411.578>
VStem: 42 38<37.6719 676.328> 420 38<37.6719 676.328>
LayerCount: 2
Fore
SplineSet
420 80 m 2,0,-1
 420 634 l 2,1,2
 420 682 420 682 376 682 c 2,3,-1
 124 682 l 2,4,5
 80 682 80 682 80 634 c 2,6,-1
 80 80 l 2,7,8
 80 32 80 32 124 32 c 2,9,-1
 376 32 l 2,10,11
 420 32 420 32 420 80 c 2,0,-1
42 0 m 1,12,-1
 42 714 l 1,13,-1
 458 714 l 1,14,-1
 458 0 l 1,15,-1
 42 0 l 1,12,-1
EndSplineSet
Validated: 1
EndChar

StartChar: exclam
Encoding: 33 33 4
Width: 540
GlyphClass: 2
Flags: W
HStem: -12 124<96.0492 183.951>
VStem: 78 124<6.04919 93.9508 447.455 673.887> 95 91.5<315.375 620.459 623.028 689.425>
LayerCount: 2
Fore
SplineSet
152 156 m 1,0,-1
 128 156 l 1,1,-1
 112 356 l 2,2,3
 109 395 109 395 93.5 484 c 128,-1,4
 78 573 78 573 78 622 c 0,5,6
 78 655 78 655 95 674.5 c 128,-1,7
 112 694 112 694 140 694 c 256,8,9
 168 694 168 694 185 674.5 c 128,-1,10
 202 655 202 655 202 622 c 0,11,12
 202 573 202 573 186.5 484 c 128,-1,13
 171 395 171 395 168 356 c 2,14,-1
 152 156 l 1,0,-1
140 -12 m 256,15,16
 113 -12 113 -12 95.5 5.5 c 128,-1,17
 78 23 78 23 78 50 c 256,18,19
 78 77 78 77 95.5 94.5 c 128,-1,20
 113 112 113 112 140 112 c 256,21,22
 167 112 167 112 184.5 94.5 c 128,-1,23
 202 77 202 77 202 50 c 256,24,25
 202 23 202 23 184.5 5.5 c 128,-1,26
 167 -12 167 -12 140 -12 c 256,15,16
EndSplineSet
Validated: 1
EndChar

StartChar: numbersign
Encoding: 35 35 6
Width: 540
GlyphClass: 2
Flags: W
HStem: 0 21G<97.5 144.663 287.5 334.561> 196 40<35.5 128.5 177.5 317.5 369.5 501.5> 450 40<35.5 169.5 218.5 359.5 408.5 504.5> 664 20G<201.51 248.5 391.407 438.5>
DStem2: 97.5 0 141.5 0 0.154553 0.987984<6.80034 198.436 245.529 455.721 502.813 692.319> 287.5 0 331.5 0 0.154553 0.987984<6.80034 198.282 245.838 455.721 502.813 692.319>
LayerCount: 2
Fore
SplineSet
204.5 684 m 1,0,-1
 248.5 684 l 1,1,-1
 218.5 490 l 1,2,-1
 364.5 490 l 1,3,-1
 394.5 684 l 1,4,-1
 438.5 684 l 1,5,-1
 408.5 490 l 1,6,-1
 504.5 490 l 1,7,-1
 504.5 450 l 1,8,-1
 403.5 450 l 1,9,-1
 369.5 236 l 1,10,-1
 501.5 236 l 1,11,-1
 501.5 196 l 1,12,-1
 361.5 196 l 1,13,-1
 331.5 0 l 1,14,-1
 287.5 0 l 1,15,-1
 317.5 196 l 1,16,-1
 172.5 196 l 1,17,-1
 141.5 0 l 1,18,-1
 97.5 0 l 1,19,-1
 128.5 196 l 1,20,-1
 35.5 196 l 1,21,-1
 35.5 236 l 1,22,-1
 133.5 236 l 1,23,-1
 169.5 450 l 1,24,-1
 35.5 450 l 1,25,-1
 35.5 490 l 1,26,-1
 175.5 490 l 1,27,-1
 204.5 684 l 1,0,-1
213.5 450 m 1,28,-1
 177.5 236 l 1,29,-1
 325.5 236 l 1,30,-1
 359.5 450 l 1,31,-1
 213.5 450 l 1,28,-1
EndSplineSet
Validated: 1
EndChar

StartChar: dollar
Encoding: 36 36 7
Width: 540
GlyphClass: 2
Flags: W
HStem: -16 32<185.41 226 258 294> 668 32<258 294 326 362.488>
VStem: 60 62<77.8132 182.5> 84 48<473.008 605.923> 226 32<-84 -15 21 317 427 660 698 758> 294 32<-84 -15 23 285 403 663 699 758> 427 53<513.102 612.076> 434 44<90.3246 231.985>
LayerCount: 2
Fore
SplineSet
280 -16 m 0,0,1
 268 -16 268 -16 258 -15 c 1,2,-1
 258 -84 l 1,3,-1
 226 -84 l 1,4,-1
 226 -11 l 1,5,6
 148 3 148 3 104 48.5 c 128,-1,7
 60 94 60 94 60 165 c 0,8,9
 60 200 60 200 84 224 c 0,10,11
 102 242 102 242 128 242 c 0,12,13
 146 242 146 242 158 230 c 128,-1,14
 170 218 170 218 170 198 c 0,15,16
 170 181 170 181 163 168.5 c 0,17,18
 153.454101562 151.454101562 153.454101562 151.454101562 134 132 c 0,19,20
 122 120 122 120 122 99 c 0,21,22
 122 73 122 73 149 51.5 c 128,-1,23
 176 30 176 30 226 21 c 1,24,-1
 226 333 l 1,25,-1
 220 335 l 1,26,27
 84 389 84 389 84 518 c 0,28,29
 84 581 84 581 120.5 629 c 128,-1,30
 157 677 157 677 226 693 c 1,31,-1
 226 758 l 1,32,-1
 258 758 l 1,33,-1
 258 698 l 1,34,35
 278 700 278 700 280 700 c 0,36,37
 286 700 286 700 294 699 c 1,38,-1
 294 758 l 1,39,-1
 326 758 l 1,40,-1
 326 695 l 1,41,42
 399 682 399 682 439.5 637 c 128,-1,43
 480 592 480 592 480 536 c 0,44,45
 480 491 480 491 466 468 c 0,46,47
 450 442 450 442 419 442 c 0,48,49
 397.454545455 442 397.454545455 442 386 456 c 0,50,51
 377 467 377 467 377 481 c 0,52,53
 377 500 377 500 389 518 c 0,54,55
 395 526 395 526 405.5 535.5 c 128,-1,56
 416 545 416 545 419 550 c 0,57,58
 427 562 427 562 427 581 c 0,59,60
 427 604 427 604 401.5 628.5 c 128,-1,61
 376 653 376 653 326 663 c 1,62,-1
 326 390 l 1,63,-1
 346 379 l 2,64,65
 410.864864865 343.324324324 410.864864865 343.324324324 443.5 296.5 c 0,66,67
 478 247 478 247 478 187 c 0,68,69
 478 115 478 115 438.5 60.5 c 128,-1,70
 399 6 399 6 326 -10 c 1,71,-1
 326 -84 l 1,72,-1
 294 -84 l 1,73,-1
 294 -15 l 1,74,75
 286 -16 286 -16 280 -16 c 0,0,1
258 317 m 1,76,-1
 258 17 l 1,77,78
 268 16 268 16 280 16 c 0,79,80
 286 16 286 16 294 17 c 1,81,-1
 294 303 l 1,82,-1
 258 317 l 1,76,-1
258 416 m 1,83,-1
 294 403 l 1,84,-1
 294 667 l 1,85,86
 286 668 286 668 280 668 c 0,87,88
 278 668 278 668 258 666 c 1,89,-1
 258 416 l 1,83,-1
132 540 m 0,90,91
 132 497 132 497 150.5 473 c 0,92,93
 172.112149533 444.962616822 172.112149533 444.962616822 220 429 c 2,94,-1
 226 427 l 1,95,-1
 226 660 l 1,96,97
 178 646 178 646 155 612.5 c 128,-1,98
 132 579 132 579 132 540 c 0,90,91
434 155 m 0,99,100
 434 207 434 207 413 232.5 c 0,101,102
 391.263157895 258.894736842 391.263157895 258.894736842 346 277 c 2,103,-1
 326 285 l 1,104,-1
 326 23 l 1,105,106
 378 37 378 37 406 74.5 c 128,-1,107
 434 112 434 112 434 155 c 0,99,100
EndSplineSet
Validated: 1
EndChar

StartChar: percent
Encoding: 37 37 8
Width: 540
GlyphClass: 3
LigCaretCntFixed: 1
Flags: W
HStem: -16 20<372.876 415.74> 322 20<372.876 415.74> 354 20<122.876 165.74> 692 20<122.876 165.74>
VStem: 30 64<410.695 654.754> 196 64<412.281 653.15> 280 64<40.6951 284.754> 446 64<42.2812 283.15>
DStem2: 34 -18 70 -18 0.509212 0.860641<18.3316 836.586>
LayerCount: 2
Fore
SplineSet
144 374 m 4,0,1
 196 374 196 374 196 532 c 260,2,3
 196 692 196 692 144 692 c 4,4,5
 94 692 94 692 94 532 c 260,6,7
 94 374 94 374 144 374 c 4,0,1
144 354 m 260,8,9
 30 354 30 354 30 532 c 260,10,11
 30 712 30 712 144 712 c 260,12,13
 260 712 260 712 260 532 c 260,14,15
 260 354 260 354 144 354 c 260,8,9
460 702 m 1,16,-1
 496 702 l 1,17,-1
 70 -18 l 1,18,-1
 34 -18 l 1,19,-1
 460 702 l 1,16,-1
394 4 m 0,20,21
 446 4 446 4 446 162 c 256,22,23
 446 322 446 322 394 322 c 0,24,25
 344 322 344 322 344 162 c 256,26,27
 344 4 344 4 394 4 c 0,20,21
394 -16 m 256,28,29
 280 -16 280 -16 280 162 c 256,30,31
 280 342 280 342 394 342 c 256,32,33
 510 342 510 342 510 162 c 256,34,35
 510 -16 510 -16 394 -16 c 256,28,29
EndSplineSet
Validated: 1
LCarets2: 2 320 540
EndChar

StartChar: ampersand
Encoding: 38 38 9
Width: 540
GlyphClass: 2
Flags: W
HStem: -18 44<431.046 493.913> -18 30<185.521 271.764> 366 32<368.542 418.622 481.833 527.399> 673 30<227.627 291.928>
VStem: 40.3398 96<58.5801 223.814> 150.34 47.4863<466.989 633.705> 316.534 24.9922<518.249 640.085>
DStem2: 175.612 346 203.38 333 0.655399 0.755283<-81.3162 18.9725 100.625 209.669> 234.619 435 196.438 369 0.440597 -0.897705<-103.328 14.729 37.6976 42.4263 73.6792 318.528 332.731 366.089>
LayerCount: 2
Fore
SplineSet
40.33984375 145 m 0,0,1
 40.33984375 245 40.33984375 245 175.612304688 346 c 2,2,-1
 196.438476562 369 l 1,3,-1
 189.497070312 384 l 2,4,5
 150.33984375 468.61662915 150.33984375 468.61662915 150.33984375 530 c 0,6,7
 150.33984375 605 150.33984375 605 183.801757812 654 c 128,-1,8
 217.263671875 703 217.263671875 703 260.3046875 703 c 0,9,10
 300.568359375 703 300.568359375 703 321.046875 666.5 c 128,-1,11
 341.526367188 630 341.526367188 630 341.526367188 580 c 0,12,13
 341.526367188 524 341.526367188 524 318.96484375 482 c 128,-1,14
 296.403320312 440 296.403320312 440 255.4453125 393 c 1,15,-1
 374.84765625 149 l 1,16,-1
 377.625 154 l 2,17,18
 386.015188551 169.104699501 386.015188551 169.104699501 410.887695312 247 c 0,19,20
 426.854492188 297 426.854492188 297 426.854492188 326 c 0,21,22
 426.854492188 344 426.854492188 344 418.872070312 355 c 128,-1,23
 410.888671875 366 410.888671875 366 399.78125 366 c 2,24,-1
 368.541992188 366 l 1,25,-1
 368.541992188 398 l 1,26,-1
 527.399414062 398 l 1,27,-1
 527.399414062 366 l 1,28,-1
 496.399414062 366 l 2,29,30
 486.399414062 366 486.399414062 366 460.399414062 309 c 1,31,32
 404.374953996 149.720470513 404.374953996 149.720470513 388.731445312 121 c 1,33,34
 413.028320312 72 413.028320312 72 430.036132812 49 c 128,-1,35
 447.044921875 26 447.044921875 26 463.705078125 26 c 0,36,37
 493.45868716 26 493.45868716 26 510.399414062 62 c 1,38,-1
 526.399414062 54 l 1,39,40
 493.614067264 -18 493.614067264 -18 447.73828125 -18 c 0,41,42
 399.14453125 -18 399.14453125 -18 349.162109375 63 c 1,43,44
 285.295898438 -18 285.295898438 -18 212.404296875 -18 c 0,45,46
 40.33984375 -18 40.33984375 -18 40.33984375 145 c 0,0,1
136.33984375 153 m 0,47,48
 136.33984375 85 136.33984375 85 164.306640625 48.5 c 128,-1,49
 192.2734375 12 192.2734375 12 220.735351562 12 c 0,50,51
 279.048828125 12 279.048828125 12 334.583984375 87 c 1,52,-1
 322.088867188 110 l 1,53,-1
 210.322265625 341 l 1,54,-1
 203.379882812 333 l 2,55,56
 136.33984375 264 136.33984375 264 136.33984375 153 c 0,47,48
197.826171875 560 m 0,57,58
 197.826171875 504 197.826171875 504 234.619140625 435 c 2,59,-1
 241.561523438 422 l 1,60,61
 262.38671875 445 262.38671875 445 274.8828125 461 c 128,-1,62
 287.37890625 477 287.37890625 477 301.95703125 512.5 c 128,-1,63
 316.534179688 548 316.534179688 548 316.534179688 586 c 0,64,65
 316.534179688 621 316.534179688 621 300.568359375 647 c 128,-1,66
 284.6015625 673 284.6015625 673 260.999023438 673 c 0,67,68
 232.536132812 673 232.536132812 673 215.181640625 641.5 c 128,-1,69
 197.826171875 610 197.826171875 610 197.826171875 560 c 0,57,58
EndSplineSet
Validated: 1
EndChar

StartChar: quotesingle
Encoding: 39 39 10
Width: 540
GlyphClass: 2
Flags: W
HStem: 520 210<258 282>
VStem: 236 68<522.281 728.102>
LayerCount: 2
Fore
SplineSet
270 730 m 256,0,1
 304 730 304 730 304 684 c 0,2,3
 304 680 304 680 302 666 c 2,4,-1
 282 520 l 1,5,-1
 258 520 l 1,6,-1
 238 666 l 2,7,8
 236 680 236 680 236 684 c 0,9,10
 236 730 236 730 270 730 c 256,0,1
EndSplineSet
Validated: 1
EndChar

StartChar: parenleft
Encoding: 40 40 11
Width: 540
GlyphClass: 2
Flags: W
HStem: 710 20G<308.5 378>
VStem: 157 50<98.3584 433.642>
LayerCount: 2
Fore
SplineSet
157 266 m 256,0,1
 157 407 157 407 210.5 527.5 c 128,-1,2
 264 648 264 648 353 730 c 1,3,-1
 383 706 l 1,4,5
 207 521 207 521 207 266 c 256,6,7
 207 11 207 11 383 -174 c 1,8,-1
 353 -198 l 1,9,10
 264 -116 264 -116 210.5 4.5 c 128,-1,11
 157 125 157 125 157 266 c 256,0,1
EndSplineSet
Validated: 1
EndChar

StartChar: parenright
Encoding: 41 41 12
Width: 540
GlyphClass: 2
Flags: W
HStem: 710 20G<162 231.5>
VStem: 333 50<98.3584 433.642>
LayerCount: 2
Fore
SplineSet
383 266 m 256,0,1
 383 125 383 125 329.5 4.5 c 128,-1,2
 276 -116 276 -116 187 -198 c 1,3,-1
 157 -174 l 1,4,5
 333 11 333 11 333 266 c 256,6,7
 333 521 333 521 157 706 c 1,8,-1
 187 730 l 1,9,10
 276 648 276 648 329.5 527.5 c 128,-1,11
 383 407 383 407 383 266 c 256,0,1
EndSplineSet
Validated: 1
EndChar

StartChar: asterisk
Encoding: 42 42 13
Width: 540
GlyphClass: 2
Flags: W
HStem: 134 84<97.3142 165.562 374.438 442.686> 228 54<238.188 257.998 282.002 301.812> 292 84<97.3142 165.562 374.438 442.686> 440 20G<261 279>
VStem: 232 76<62.3767 169.156 235.035 274.965 340.844 447.623> 258 24<141.511 227.996 282.004 368.489>
LayerCount: 2
Fore
SplineSet
270 460 m 260,0,1
 288 460 288 460 298 448 c 132,-1,2
 308 436 308 436 308 417 c 4,3,4
 308 403 308 403 296 374 c 4,5,6
 282 339 282 339 282 297 c 4,7,8
 282 282 282 282 290 282 c 4,9,10
 295 282 295 282 304 288 c 4,11,12
 339 310 339 310 360 337 c 4,13,14
 389 376 389 376 416 376 c 4,15,16
 433 376 433 376 443 364.5 c 132,-1,17
 453 353 453 353 453 339 c 4,18,19
 453 301 453 301 386 292 c 4,20,21
 349 287 349 287 312 266 c 5,22,-1
 307 262 l 6,23,24
 302 259 302 259 302 255 c 260,25,26
 302 251 302 251 307 248 c 6,27,-1
 312 244 l 5,28,29
 349 223 349 223 386 218 c 4,30,31
 453 209 453 209 453 171 c 4,32,33
 453 157 453 157 443 145.5 c 132,-1,34
 433 134 433 134 416 134 c 4,35,36
 389 134 389 134 360 173 c 4,37,38
 339 200 339 200 304 222 c 4,39,40
 295 228 295 228 290 228 c 4,41,42
 282 228 282 228 282 213 c 4,43,44
 282 171 282 171 296 136 c 4,45,46
 308 107 308 107 308 93 c 4,47,48
 308 74 308 74 298 62 c 132,-1,49
 288 50 288 50 270 50 c 260,50,51
 252 50 252 50 242 62 c 132,-1,52
 232 74 232 74 232 93 c 4,53,54
 232 107 232 107 244 136 c 4,55,56
 258 171 258 171 258 213 c 4,57,58
 258 228 258 228 250 228 c 4,59,60
 245 228 245 228 236 222 c 4,61,62
 201 200 201 200 180 173 c 4,63,64
 151 134 151 134 124 134 c 4,65,66
 107 134 107 134 97 145.5 c 132,-1,67
 87 157 87 157 87 171 c 4,68,69
 87 209 87 209 154 218 c 4,70,71
 191 223 191 223 228 244 c 5,72,-1
 233 248 l 6,73,74
 238 251 238 251 238 255 c 260,75,76
 238 259 238 259 233 262 c 6,77,-1
 228 266 l 5,78,79
 191 287 191 287 154 292 c 4,80,81
 87 301 87 301 87 339 c 4,82,83
 87 353 87 353 97 364.5 c 132,-1,84
 107 376 107 376 124 376 c 4,85,86
 151 376 151 376 180 337 c 4,87,88
 201 310 201 310 236 288 c 4,89,90
 245 282 245 282 250 282 c 4,91,92
 258 282 258 282 258 297 c 4,93,94
 258 339 258 339 244 374 c 4,95,96
 232 403 232 403 232 417 c 4,97,98
 232 436 232 436 242 448 c 132,-1,99
 252 460 252 460 270 460 c 260,0,1
EndSplineSet
Validated: 1
EndChar

StartChar: plus
Encoding: 43 43 14
Width: 540
GlyphClass: 2
Flags: W
HStem: 244 40<35 248 292 505>
VStem: 248 44<31 244 284 507>
LayerCount: 2
Fore
SplineSet
35 244 m 1,0,-1
 35 284 l 1,1,-1
 248 284 l 1,2,-1
 248 507 l 1,3,-1
 292 507 l 1,4,-1
 292 284 l 1,5,-1
 505 284 l 1,6,-1
 505 244 l 1,7,-1
 292 244 l 1,8,-1
 292 31 l 1,9,-1
 248 31 l 1,10,-1
 248 244 l 1,11,-1
 35 244 l 1,0,-1
EndSplineSet
Validated: 1
EndChar

StartChar: comma
Encoding: 44 44 15
Width: 540
GlyphClass: 2
Flags: W
HStem: 30 110<219.563 284.807>
VStem: 303 36<-52.5469 59.5>
LayerCount: 2
Fore
SplineSet
201 82 m 0,0,1
 201 109 201 109 219 124.5 c 128,-1,2
 237 140 237 140 259 140 c 0,3,4
 298 140 298 140 320 108 c 0,5,6
 339 82 339 82 339 37 c 0,7,8
 339 -25 339 -25 308 -80.5 c 128,-1,9
 277 -136 277 -136 233 -168 c 1,10,-1
 219 -152 l 1,11,12
 256 -124 256 -124 279.5 -84 c 128,-1,13
 303 -44 303 -44 303 -4 c 0,14,15
 303 16 303 16 285 26 c 0,16,17
 279 30 279 30 251 30 c 0,18,19
 229 30 229 30 215 45.5 c 128,-1,20
 201 61 201 61 201 82 c 0,0,1
EndSplineSet
Validated: 1
EndChar

StartChar: hyphen
Encoding: 45 45 16
Width: 540
GlyphClass: 2
Flags: W
HStem: 244 40<35 505>
LayerCount: 2
Fore
SplineSet
35 244 m 1,0,-1
 35 284 l 1,1,-1
 505 284 l 1,2,-1
 505 244 l 1,3,-1
 35 244 l 1,0,-1
EndSplineSet
Validated: 1
EndChar

StartChar: period
Encoding: 46 46 17
Width: 540
GlyphClass: 2
Flags: W
HStem: -12 124<226.049 313.951>
VStem: 208 124<6.04919 93.9508>
LayerCount: 2
Fore
SplineSet
270 -12 m 256,0,1
 243 -12 243 -12 225.5 5.5 c 128,-1,2
 208 23 208 23 208 50 c 256,3,4
 208 77 208 77 225.5 94.5 c 128,-1,5
 243 112 243 112 270 112 c 256,6,7
 297 112 297 112 314.5 94.5 c 128,-1,8
 332 77 332 77 332 50 c 256,9,10
 332 23 332 23 314.5 5.5 c 128,-1,11
 297 -12 297 -12 270 -12 c 256,0,1
EndSplineSet
Validated: 1
EndChar

StartChar: slash
Encoding: 47 47 18
Width: 540
GlyphClass: 2
Flags: W
HStem: 710 20G<392.578 439>
DStem2: 101 -198 141 -198 0.305743 0.952114<12.2297 974.673>
LayerCount: 2
Fore
SplineSet
141 -198 m 1,0,-1
 101 -198 l 1,1,-1
 399 730 l 1,2,-1
 439 730 l 1,3,-1
 141 -198 l 1,0,-1
EndSplineSet
Validated: 1
EndChar

StartChar: zero
Encoding: 48 48 19
Width: 540
GlyphClass: 2
Flags: W
HStem: -16 32<217.616 322.384> 667 33<217.181 322.819>
VStem: 47 88<163.145 521.303> 405 88<163.145 521.303>
LayerCount: 2
Fore
SplineSet
270 16 m 256,0,1
 305 16 305 16 331.5 38.5 c 128,-1,2
 358 61 358 61 371.5 92.5 c 128,-1,3
 385 124 385 124 393 172 c 128,-1,4
 401 220 401 220 403 257 c 128,-1,5
 405 294 405 294 405 341 c 0,6,7
 405 389 405 389 403 426 c 128,-1,8
 401 463 401 463 393 511 c 128,-1,9
 385 559 385 559 371.5 590.5 c 128,-1,10
 358 622 358 622 331.5 644.5 c 128,-1,11
 305 667 305 667 270 667 c 256,12,13
 235 667 235 667 208.5 644.5 c 128,-1,14
 182 622 182 622 168.5 590.5 c 128,-1,15
 155 559 155 559 147 511 c 128,-1,16
 139 463 139 463 137 426 c 128,-1,17
 135 389 135 389 135 341 c 0,18,19
 135 294 135 294 137 257 c 128,-1,20
 139 220 139 220 147 172 c 128,-1,21
 155 124 155 124 168.5 92.5 c 128,-1,22
 182 61 182 61 208.5 38.5 c 128,-1,23
 235 16 235 16 270 16 c 256,0,1
270 -16 m 256,24,25
 200 -16 200 -16 143.5 36.5 c 128,-1,26
 87 89 87 89 67 170 c 128,-1,27
 47 251 47 251 47 342 c 256,28,29
 47 433 47 433 67 514 c 128,-1,30
 87 595 87 595 143.5 647.5 c 128,-1,31
 200 700 200 700 270 700 c 256,32,33
 340 700 340 700 396.5 647.5 c 128,-1,34
 453 595 453 595 473 514 c 128,-1,35
 493 433 493 433 493 342 c 260,36,37
 493 251 493 251 473 170 c 128,-1,38
 453 89 453 89 396.5 36.5 c 128,-1,39
 340 -16 340 -16 270 -16 c 256,24,25
EndSplineSet
Validated: 1
EndChar

StartChar: one
Encoding: 49 49 20
Width: 540
GlyphClass: 2
Flags: W
HStem: 0 32<100 241.703 317.34 440> 549 36<100 226.863> 664 20G<280 316>
VStem: 244 72<34.7993 549> 284 32<643.824 684>
LayerCount: 2
Fore
SplineSet
60 0 m 1,0,-1
 60 32 l 1,1,-1
 196 32 l 2,2,3
 244 32 244 32 244 58 c 2,4,-1
 244 549 l 1,5,-1
 60 549 l 1,6,-1
 60 585 l 1,7,-1
 155 585 l 2,8,9
 209 585 209 585 242.5 614 c 128,-1,10
 276 643 276 643 284 684 c 1,11,-1
 316 684 l 1,12,-1
 316 58 l 2,13,14
 316 32 316 32 344 32 c 2,15,-1
 480 32 l 5,16,-1
 480 0 l 5,17,-1
 60 0 l 1,0,-1
EndSplineSet
Validated: 1
EndChar

StartChar: two
Encoding: 50 50 21
Width: 540
GlyphClass: 2
Flags: W
HStem: 0 82<140.068 415.979> 403 106<107.256 189.012> 664 36<166.113 305.418>
VStem: 59 42<516.203 605.077> 375 88<417.454 597.614> 450 22<170.455 208>
DStem2: 183 225 227 216 0.760374 0.649486<-102.301 234.54>
LayerCount: 2
Fore
SplineSet
458 0 m 1,0,-1
 68 0 l 1,1,2
 68 25 68 25 71 44.5 c 128,-1,3
 74 64 74 64 83.5 94.5 c 128,-1,4
 93 125 93 125 118.5 158.5 c 0,5,6
 143.32 191.106666667 143.32 191.106666667 183 225 c 2,7,-1
 279 307 l 2,8,9
 375 389 375 389 375 501 c 0,10,11
 375 579 375 579 337 621.5 c 128,-1,12
 299 664 299 664 229 664 c 0,13,14
 180 664 180 664 140.5 631.5 c 128,-1,15
 101 599 101 599 101 559 c 0,16,17
 101 516 101 516 142 509 c 0,18,19
 174 504 174 504 189.5 487.5 c 128,-1,20
 205 471 205 471 205 448 c 0,21,22
 205 429 205 429 191.5 416 c 128,-1,23
 178 403 178 403 154 403 c 0,24,25
 113 403 113 403 86 435.5 c 128,-1,26
 59 468 59 468 59 521 c 0,27,28
 59 598 59 598 115.5 649 c 128,-1,29
 172 700 172 700 257 700 c 0,30,31
 463 700 463 700 463 501 c 0,32,33
 463 391.1875 463 391.1875 325 292 c 1,34,-1
 227 216 l 1,35,36
 140 155 140 155 140 106 c 0,37,38
 140 82 140 82 171 82 c 2,39,-1
 360 82 l 2,40,41
 400 82 400 82 416.5 99.5 c 128,-1,42
 433.042253521 117.044814341 433.042253521 117.044814341 439 149 c 2,43,-1
 450 208 l 1,44,-1
 472 208 l 1,45,-1
 458 0 l 1,0,-1
EndSplineSet
Validated: 1
EndChar

StartChar: three
Encoding: 51 51 22
Width: 540
GlyphClass: 2
Flags: W
HStem: -16 32<145.32 305.199> 96 110<114.855 176.981> 326 56<133.86 258.219> 346 28<195.438 308.881> 668 32<166.566 303.411>
VStem: 56 58<47.2557 137> 72 64<539 630.322> 361 96<444.676 610.931> 378 106<95.6025 268.464>
LayerCount: 2
Fore
SplineSet
255 700 m 0,0,1
 346 700 346 700 401.5 651.5 c 128,-1,2
 457 603 457 603 457 524 c 0,3,4
 457 463 457 463 417 421.5 c 128,-1,5
 377 380 377 380 329 369 c 1,6,-1
 329 361 l 1,7,8
 383 352 383 352 433.5 304 c 128,-1,9
 484 256 484 256 484 185 c 0,10,11
 484 94 484 94 413.5 39 c 128,-1,12
 343 -16 343 -16 240 -16 c 0,13,14
 160 -16 160 -16 108 18.5 c 128,-1,15
 56 53 56 53 56 119 c 0,16,17
 56 155 56 155 77 180.5 c 128,-1,18
 98 206 98 206 132 206 c 0,19,20
 161 206 161 206 177.5 190.5 c 128,-1,21
 194 175 194 175 194 148 c 0,22,23
 194 127 194 127 181.5 111.5 c 128,-1,24
 169 96 169 96 149 96 c 0,25,26
 114 96 114 96 114 79 c 0,27,28
 114 16 114 16 240 16 c 0,29,30
 290 16 290 16 322.5 43 c 128,-1,31
 355 70 355 70 366.5 106 c 128,-1,32
 378 142 378 142 378 186 c 0,33,34
 378 266 378 266 343.5 306 c 128,-1,35
 309 346 309 346 259 346 c 0,36,37
 234 346 234 346 211 337 c 0,38,39
 178 326 178 326 160 326 c 0,40,41
 145 326 145 326 133.5 333 c 128,-1,42
 122 340 122 340 122 354 c 0,43,44
 122 382 122 382 160 382 c 0,45,46
 177 382 177 382 207 377 c 0,47,48
 227 374 227 374 262 374 c 0,49,50
 310 374 310 374 335.5 417.5 c 128,-1,51
 361 461 361 461 361 517 c 0,52,53
 361 582 361 582 331 625 c 128,-1,54
 301 668 301 668 244 668 c 0,55,56
 185 668 185 668 160.5 649 c 128,-1,57
 136 630 136 630 136 606 c 0,58,59
 136 584 136 584 162 572 c 0,60,61
 198 557 198 557 198 523 c 0,62,63
 198 502 198 502 184 488.5 c 128,-1,64
 170 475 170 475 144 475 c 0,65,66
 115 475 115 475 93.5 499.5 c 128,-1,67
 72 524 72 524 72 554 c 0,68,69
 72 624 72 624 125.5 662 c 128,-1,70
 179 700 179 700 255 700 c 0,0,1
EndSplineSet
Validated: 1
EndChar

StartChar: four
Encoding: 52 52 23
Width: 540
GlyphClass: 2
Flags: W
HStem: 0 32<165 306.751 382.292 505> 192 36<81 309 381 502> 665 20G<331.433 381>
VStem: 309 72<34.7993 192 228 564>
DStem2: 35 228 81 228 0.561369 0.827566<25.823 431.877>
LayerCount: 2
Fore
SplineSet
309 564 m 5,0,-1
 81 228 l 1,1,-1
 309 228 l 1,2,-1
 309 564 l 5,0,-1
165 0 m 1,3,-1
 165 32 l 1,4,-1
 262 32 l 2,5,6
 309 32 309 32 309 58 c 2,7,-1
 309 192 l 1,8,-1
 35 192 l 1,9,-1
 35 228 l 1,10,-1
 345 685 l 1,11,-1
 381 685 l 1,12,-1
 381 228 l 1,13,-1
 502 228 l 1,14,-1
 502 192 l 1,15,-1
 381 192 l 1,16,-1
 381 58 l 2,17,18
 381 32 381 32 408 32 c 2,19,-1
 505 32 l 1,20,-1
 505 0 l 1,21,-1
 165 0 l 1,3,-1
EndSplineSet
Validated: 1
EndChar

StartChar: five
Encoding: 53 53 24
Width: 540
GlyphClass: 2
Flags: W
HStem: -16 32<157.242 310.535> 432 36<184.272 320.055> 582 76<145.733 325.668>
VStem: 56 72<57.4302 145.251> 90 36<313.098 387.109 411 602> 396 88<132.28 350.816>
LayerCount: 2
Fore
SplineSet
238 -16 m 0,0,1
 155 -16 155 -16 105.5 26 c 128,-1,2
 56 68 56 68 56 131 c 0,3,4
 56 178 56 178 80 203 c 128,-1,5
 104 228 104 228 136 228 c 0,6,7
 163 228 163 228 178.5 211.5 c 128,-1,8
 194 195 194 195 194 170 c 0,9,10
 194 133 194 133 158 117 c 0,11,12
 128 103 128 103 128 84 c 0,13,14
 128 16 128 16 238 16 c 0,15,16
 396 16 396 16 396 242 c 4,17,18
 396 432 396 432 242 432 c 0,19,20
 188 432 188 432 149 393 c 0,21,22
 126 370 126 370 126 338 c 0,23,24
 126 313 126 313 106 313 c 0,25,26
 90 313 90 313 90 338 c 2,27,-1
 90 683 l 1,28,-1
 112 700 l 1,29,30
 133 682 133 682 173.5 670 c 128,-1,31
 214 658 214 658 249 658 c 0,32,33
 344 658 344 658 416 700 c 1,34,-1
 428 686 l 1,35,36
 392 639 392 639 339.5 610.5 c 128,-1,37
 287 582 287 582 228 582 c 0,38,39
 165 582 165 582 126 602 c 1,40,-1
 126 411 l 1,41,-1
 132 409 l 1,42,43
 183 468 183 468 262 468 c 0,44,45
 367 468 367 468 425.5 406 c 128,-1,46
 484 344 484 344 484 242 c 0,47,48
 484 131 484 131 412 57.5 c 128,-1,49
 340 -16 340 -16 238 -16 c 0,0,1
EndSplineSet
Validated: 1
EndChar

StartChar: six
Encoding: 54 54 25
Width: 540
GlyphClass: 2
Flags: W
HStem: -16 32<222.614 328.904> 392 37<232.086 343.231> 668 32<250.624 371.854>
VStem: 64 88<345 487.179> 393 88<115.18 321.879> 393 62<555.5 643.881>
LayerCount: 2
Fore
SplineSet
277 16 m 0,0,1
 319 16 319 16 346.5 48 c 128,-1,2
 374 80 374 80 383.5 120 c 128,-1,3
 393 160 393 160 393 206 c 0,4,5
 393 286 393 286 369 339 c 128,-1,6
 345 392 345 392 289 392 c 0,7,8
 236 392 236 392 200.5 340.5 c 128,-1,9
 165 289 165 289 165 206 c 256,10,11
 165 123 165 123 191 69.5 c 128,-1,12
 217 16 217 16 277 16 c 0,0,1
277 -16 m 0,13,14
 179 -16 179 -16 121.5 73 c 128,-1,15
 64 162 64 162 64 314 c 4,16,17
 64 396 64 396 82.5 475 c 128,-1,18
 101 554 101 554 141 606 c 0,19,20
 214 700 214 700 312 700 c 0,21,22
 386.272727273 700 386.272727273 700 427 652 c 0,23,24
 455 619 455 619 455 573 c 0,25,26
 455 538 455 538 430 516 c 0,27,28
 413 501 413 501 389 501 c 0,29,30
 366 501 366 501 353 519 c 0,31,32
 345 529 345 529 345 548 c 0,33,34
 345 563 345 563 358 578 c 0,35,36
 367 588 367 588 377 595 c 0,37,38
 393 607 393 607 393 623 c 0,39,40
 393 641 393 641 372.5 654.5 c 128,-1,41
 352 668 352 668 310 668 c 0,42,43
 229 668 229 668 187 577 c 0,44,45
 170 540 170 540 161 484 c 128,-1,46
 152 428 152 428 152 390 c 2,47,-1
 152 345 l 1,48,-1
 159 342 l 1,49,50
 177 380 177 380 214.5 404.5 c 128,-1,51
 252 429 252 429 287 429 c 0,52,53
 354 429 354 429 400 396 c 0,54,55
 439 368 439 368 460 320.5 c 128,-1,56
 481 273 481 273 481 219 c 0,57,58
 481 132 481 132 425.5 58 c 128,-1,59
 370 -16 370 -16 277 -16 c 0,13,14
EndSplineSet
Validated: 1
EndChar

StartChar: seven
Encoding: 55 55 26
Width: 540
GlyphClass: 2
Flags: W
HStem: 602 82<127.021 420.728>
VStem: 71 22<476 513.545> 185 138<10.8169 176.789> 421 48<542.323 601.232>
DStem2: 290 333 344 357 0.571064 0.820905<-19.5233 237.612>
LayerCount: 2
Fore
SplineSet
85 684 m 1,0,-1
 469 684 l 1,1,2
 469 632 469 632 453.5 565 c 128,-1,3
 438 498 438 498 401 443 c 2,4,-1
 344 357 l 1,5,6
 303 278 303 278 303 227 c 0,7,8
 303 184 303 184 309 152 c 2,9,-1
 315 117 l 2,10,11
 323 77 323 77 323 47 c 0,12,13
 323 -16 323 -16 264 -16 c 0,14,15
 228 -16 228 -16 206.5 10 c 128,-1,16
 185 36 185 36 185 80 c 0,17,18
 185 111 185 111 197.5 150 c 128,-1,19
 210 189 210 189 221 210.5 c 128,-1,20
 232 232 232 232 259 279 c 128,-1,21
 286 326 286 326 290 333 c 2,22,-1
 370 448 l 2,23,24
 421 521 421 521 421 576 c 0,25,26
 421 602 421 602 390 602 c 2,27,-1
 183 602 l 2,28,29
 143 602 143 602 126.5 584.5 c 128,-1,30
 110 567 110 567 104 535 c 2,31,-1
 93 476 l 1,32,-1
 71 476 l 1,33,-1
 85 684 l 1,0,-1
EndSplineSet
Validated: 1
EndChar

StartChar: eight
Encoding: 56 56 27
Width: 540
GlyphClass: 2
Flags: W
HStem: -16 32<192.679 343.568> 668 32<191.975 333.156>
VStem: 37 70<86.3315 262.35> 45 74<472.892 596.525> 413 64<451.299 599.694> 425 78<109.254 235.201>
DStem2: 204 430 194 334 0.934406 -0.35621<-74.7046 -6.52019 6.22269 152.843 169.009 261.334>
LayerCount: 2
Fore
SplineSet
266 668 m 0,0,1
 204 668 204 668 161.5 633 c 128,-1,2
 119 598 119 598 119 540 c 0,3,4
 119 498 119 498 139.5 473 c 128,-1,5
 160 448 160 448 204 430 c 2,6,-1
 333 381 l 1,7,8
 413 424 413 424 413 522 c 0,9,10
 413 584 413 584 370 626 c 128,-1,11
 327 668 327 668 266 668 c 0,0,1
258 -16 m 0,12,13
 166 -16 166 -16 101.5 36 c 128,-1,14
 37 88 37 88 37 174 c 0,15,16
 37 247 37 247 78 288 c 128,-1,17
 119 329 119 329 165 342 c 1,18,-1
 165 346 l 1,19,-1
 154 351 l 2,20,21
 101 373 101 373 73 416 c 128,-1,22
 45 459 45 459 45 516 c 0,23,24
 45 595 45 595 113 647.5 c 128,-1,25
 181 700 181 700 266 700 c 0,26,27
 367 700 367 700 422 648.5 c 128,-1,28
 477 597 477 597 477 528 c 0,29,30
 477 474 477 474 442.5 434.5 c 128,-1,31
 408 395 408 395 362 374 c 1,32,-1
 362 370 l 1,33,-1
 385 361 l 2,34,35
 503 313 503 313 503 210 c 0,36,37
 503 114 503 114 438 49 c 128,-1,38
 373 -16 373 -16 258 -16 c 0,12,13
269 16 m 0,39,40
 324 16 324 16 361 41.5 c 128,-1,41
 398 67 398 67 411.5 97 c 128,-1,42
 425 127 425 127 425 156 c 0,43,44
 425 212 425 212 400.5 239 c 128,-1,45
 376 266 376 266 329 285 c 2,46,-1
 194 334 l 1,47,48
 107 298 107 298 107 172 c 0,49,50
 107 92 107 92 155.5 54 c 128,-1,51
 204 16 204 16 269 16 c 0,39,40
EndSplineSet
Validated: 1
EndChar

StartChar: nine
Encoding: 57 57 28
Width: 540
GlyphClass: 2
Flags: W
HStem: -16 32<166.943 289.498> 255 37<196.769 307.914> 668 32<211.096 315.038>
VStem: 59 88<362.121 568.82> 85 62<40.1187 128.5> 388 88<192.015 339>
LayerCount: 2
Fore
SplineSet
263 668 m 0,0,1
 221 668 221 668 193.5 636 c 128,-1,2
 166 604 166 604 156.5 564 c 128,-1,3
 147 524 147 524 147 478 c 0,4,5
 147 398 147 398 171 345 c 128,-1,6
 195 292 195 292 251 292 c 0,7,8
 304 292 304 292 339.5 343.5 c 128,-1,9
 375 395 375 395 375 478 c 256,10,11
 375 561 375 561 349 614.5 c 128,-1,12
 323 668 323 668 263 668 c 0,0,1
228 -16 m 0,13,14
 153.727272727 -16 153.727272727 -16 113 32 c 0,15,16
 85 65 85 65 85 111 c 0,17,18
 85 146 85 146 110 168 c 0,19,20
 127 183 127 183 151 183 c 0,21,22
 174 183 174 183 187 165 c 0,23,24
 195 155 195 155 195 136 c 0,25,26
 195 121 195 121 182 106 c 0,27,28
 173 96 173 96 163 89 c 0,29,30
 147 77 147 77 147 61 c 0,31,32
 147 43 147 43 167.5 29.5 c 128,-1,33
 188 16 188 16 230 16 c 0,34,35
 311 16 311 16 353 107 c 0,36,37
 370 144 370 144 379 200 c 128,-1,38
 388 256 388 256 388 294 c 2,39,-1
 388 339 l 1,40,-1
 381 342 l 1,41,42
 363 304 363 304 325.5 279.5 c 128,-1,43
 288 255 288 255 253 255 c 0,44,45
 186 255 186 255 140 288 c 0,46,47
 101 316 101 316 80 363.5 c 128,-1,48
 59 411 59 411 59 465 c 0,49,50
 59 552 59 552 114.5 626 c 128,-1,51
 170 700 170 700 263 700 c 0,52,53
 476 700 476 700 476 370 c 4,54,55
 476 178.1 476 178.1 399 78 c 0,56,57
 326 -16 326 -16 228 -16 c 0,13,14
EndSplineSet
Validated: 1
EndChar

StartChar: semicolon
Encoding: 894 894 30
AltUni2: 00003b.ffffffff.0
Width: 540
GlyphClass: 2
Flags: W
HStem: 30 110<219.563 284.807> 344 124<225.049 312.951>
VStem: 207 124<362.049 449.951> 303 36<-52.5469 59.5>
LayerCount: 2
Fore
SplineSet
269 344 m 256,0,1
 242 344 242 344 224.5 361.5 c 128,-1,2
 207 379 207 379 207 406 c 256,3,4
 207 433 207 433 224.5 450.5 c 128,-1,5
 242 468 242 468 269 468 c 256,6,7
 296 468 296 468 313.5 450.5 c 128,-1,8
 331 433 331 433 331 406 c 256,9,10
 331 379 331 379 313.5 361.5 c 128,-1,11
 296 344 296 344 269 344 c 256,0,1
201 82 m 0,12,13
 201 109 201 109 219 124.5 c 128,-1,14
 237 140 237 140 259 140 c 0,15,16
 298 140 298 140 320 108 c 0,17,18
 339 82 339 82 339 37 c 0,19,20
 339 -25 339 -25 308 -80.5 c 128,-1,21
 277 -136 277 -136 233 -168 c 1,22,-1
 219 -152 l 1,23,24
 256 -124 256 -124 279.5 -84 c 128,-1,25
 303 -44 303 -44 303 -4 c 0,26,27
 303 16 303 16 285 26 c 0,28,29
 279 30 279 30 251 30 c 0,30,31
 229 30 229 30 215 45.5 c 128,-1,32
 201 61 201 61 201 82 c 0,12,13
EndSplineSet
Validated: 1
Colour: ffff
EndChar

StartChar: less
Encoding: 60 60 31
Width: 540
GlyphClass: 2
Flags: W
DStem2: -18 278 44 264 0.882704 0.469929<48.1487 629.883> 44 264 -18 250 0.882704 -0.469929<0 581.734>
LayerCount: 2
Fore
SplineSet
538 -46 m 1,0,-1
 -18 250 l 1,1,-1
 -18 278 l 1,2,-1
 538 574 l 1,3,-1
 558 538 l 1,4,-1
 44 264 l 1,5,-1
 558 -10 l 1,6,-1
 538 -46 l 1,0,-1
EndSplineSet
Validated: 1
EndChar

StartChar: equal
Encoding: 61 61 32
Width: 540
GlyphClass: 2
Flags: W
HStem: 148 40<78 462> 338 40<78 462>
LayerCount: 2
Fore
SplineSet
78 338 m 1,0,-1
 78 378 l 1,1,-1
 462 378 l 1,2,-1
 462 338 l 1,3,-1
 78 338 l 1,0,-1
78 148 m 1,4,-1
 78 188 l 1,5,-1
 462 188 l 1,6,-1
 462 148 l 1,7,-1
 78 148 l 1,4,-1
EndSplineSet
Validated: 1
EndChar

StartChar: greater
Encoding: 62 62 33
Width: 540
GlyphClass: 2
Flags: W
DStem2: 2 574 -18 538 0.882704 -0.469929<0 581.734> -18 -11 2 -47 0.882045 0.471165<0.678985 582.942>
LayerCount: 2
Fore
SplineSet
2 574 m 1,0,-1
 558 278 l 1,1,-1
 558 250 l 1,2,-1
 2 -47 l 1,3,-1
 -18 -11 l 1,4,-1
 496 264 l 1,5,-1
 -18 538 l 1,6,-1
 2 574 l 1,0,-1
EndSplineSet
Validated: 1
EndChar

StartChar: question
Encoding: 63 63 34
Width: 540
GlyphClass: 2
Flags: W
HStem: -12 124<228.049 315.951> 154 30<227.535 311.679> 468 85<135.661 197.559> 664 30<183.326 311.731>
VStem: 88 44<554.377 622.794> 182 34<194.004 282.068> 210 124<6.04919 93.9508> 332 24<208.765 279.562> 364 88<464.282 617.736>
LayerCount: 2
Fore
SplineSet
256 694 m 0,0,1
 338 694 338 694 395 653.5 c 128,-1,2
 452 613 452 613 452 542 c 0,3,4
 452 511 452 511 440 483 c 128,-1,5
 428 455 428 455 403 430 c 128,-1,6
 378 405 378 405 359 390 c 128,-1,7
 340 375 340 375 305 351 c 0,8,9
 216 290 216 290 216 232 c 0,10,11
 216 184 216 184 272 184 c 0,12,13
 298 184 298 184 315 202 c 128,-1,14
 332 220 332 220 332 250 c 0,15,16
 332 266 332 266 327 276 c 1,17,-1
 345 284 l 1,18,19
 356 266 356 266 356 249 c 0,20,21
 356 209 356 209 329.5 181.5 c 128,-1,22
 303 154 303 154 272 154 c 0,23,24
 233 154 233 154 207.5 175 c 128,-1,25
 182 196 182 196 182 235 c 0,26,27
 182 265 182 265 193.5 286 c 128,-1,28
 205 307 205 307 230 334 c 2,29,-1
 306 416 l 2,30,31
 335 448 335 448 349.5 476 c 128,-1,32
 364 504 364 504 364 542 c 0,33,34
 364 595 364 595 335 629.5 c 128,-1,35
 306 664 306 664 249 664 c 0,36,37
 203 664 203 664 167.5 640 c 128,-1,38
 132 616 132 616 132 586 c 0,39,40
 132 563 132 563 138 557 c 0,41,42
 143 553 143 553 148 553 c 0,43,44
 155 553 155 553 158 554 c 0,45,46
 165 556 165 556 176 556 c 0,47,48
 193 556 193 556 202.5 544.5 c 128,-1,49
 212 533 212 533 212 516 c 0,50,51
 212 495 212 495 198 481.5 c 128,-1,52
 184 468 184 468 157 468 c 0,53,54
 129 468 129 468 108.5 491.5 c 128,-1,55
 88 515 88 515 88 555 c 0,56,57
 88 614 88 614 140.5 654 c 128,-1,58
 193 694 193 694 256 694 c 0,0,1
272 -12 m 256,59,60
 245 -12 245 -12 227.5 5.5 c 128,-1,61
 210 23 210 23 210 50 c 256,62,63
 210 77 210 77 227.5 94.5 c 128,-1,64
 245 112 245 112 272 112 c 256,65,66
 299 112 299 112 316.5 94.5 c 128,-1,67
 334 77 334 77 334 50 c 256,68,69
 334 23 334 23 316.5 5.5 c 128,-1,70
 299 -12 299 -12 272 -12 c 256,59,60
EndSplineSet
Validated: 1
EndChar

StartChar: at
Encoding: 64 64 35
Width: 540
GlyphClass: 2
Flags: W
HStem: -20 32<193.131 334.972> 130 26<194.978 235.323 350.758 407.193> 554 26<264.767 309.972> 700 32<201.108 342.5>
VStem: 19 51<180.705 511.161> 141 50<159.77 410.058> 471 51<231.811 533.621>
DStem2: 308 335 346 257 0.189433 0.981894<-112.645 125.851 194.361 237.116>
LayerCount: 2
Fore
SplineSet
201 130 m 4,0,1
 169 130 169 130 155 162.5 c 132,-1,2
 141 195 141 195 141 256.5 c 132,-1,3
 141 318 141 318 153 380 c 4,4,5
 191 580 191 580 292 580 c 4,6,7
 333 580 333 580 343 526 c 5,8,-1
 344 526 l 5,9,-1
 352 568 l 5,10,-1
 406 568 l 5,11,-1
 346 257 l 6,12,13
 342 236 342 236 342 213 c 4,14,15
 342 194 342 194 346 182 c 4,16,17
 353 156 353 156 366 156 c 4,18,19
 471 156 471 156 471 397 c 4,20,21
 471 539 471 539 417 619.5 c 132,-1,22
 363 700 363 700 266 700 c 4,23,24
 175 700 175 700 122.5 595.5 c 132,-1,25
 70 491 70 491 70 338 c 132,-1,26
 70 185 70 185 118 98.5 c 132,-1,27
 166 12 166 12 272 12 c 4,28,29
 333 12 333 12 396 70 c 5,30,-1
 408 45 l 5,31,32
 346 -20 346 -20 265 -20 c 4,33,34
 147 -20 147 -20 83 83 c 132,-1,35
 19 186 19 186 19 355 c 4,36,37
 19 511 19 511 91 621.5 c 132,-1,38
 163 732 163 732 272 732 c 4,39,40
 387 732 387 732 454.5 631.5 c 132,-1,41
 522 531 522 531 522 377 c 4,42,43
 522 130 522 130 355 130 c 4,44,45
 328 130 328 130 309 150 c 132,-1,46
 290 170 290 170 287 205 c 5,47,-1
 286 205 l 5,48,49
 274 179 274 179 251.5 154.5 c 132,-1,50
 229 130 229 130 201 130 c 4,0,1
203 156 m 4,51,52
 238 156 238 156 266 208.5 c 132,-1,53
 294 261 294 261 308 335 c 6,54,-1
 325 420 l 6,55,56
 328 438 328 438 328 460 c 132,-1,57
 328 482 328 482 322 508 c 4,58,59
 312 554 312 554 292 554 c 4,60,61
 230 554 230 554 200 336 c 4,62,63
 192 277 192 277 191 223 c 4,64,65
 191 156 191 156 203 156 c 4,51,52
EndSplineSet
Validated: 1
EndChar

StartChar: A
Encoding: 65 65 36
Width: 540
GlyphClass: 2
Flags: W
HStem: 0 32<-9.59961 70.0045 153.704 218.199 296.6 360.079 468.612 549.6> 210 36<180.4 323.9> 692 20G<247.995 305.314>
DStem2: 101.1 105 155.199 145 0.242762 0.970086<-8.02247 118.901 156.033 467.132> 300.5 712 251.1 549 0.234037 -0.972228<146.912 458.535 495.664 652.127>
AnchorPoint: "Bottom" 354.199 0 basechar 0
AnchorPoint: "Top" 354.199 762 basechar 0
LayerCount: 2
Fore
SplineSet
180.400390625 246 m 1,0,-1
 323.900390625 246 l 1,1,-1
 251.099609375 549 l 1,2,-1
 180.400390625 246 l 1,0,-1
-9.599609375 0 m 1,3,-1
 -9.599609375 32 l 1,4,-1
 27.400390625 32 l 2,5,6
 82.8315228583 32 82.8315228583 32 101.099609375 105 c 6,7,-1
 253 712 l 5,8,-1
 300.5 712 l 1,9,-1
 453.599609375 76 l 2,10,11
 464.19140625 32 464.19140625 32 513.599609375 32 c 2,12,-1
 549.599609375 32 l 1,13,-1
 549.599609375 0 l 1,14,-1
 296.599609375 0 l 1,15,-1
 296.599609375 32 l 1,16,-1
 342.798828125 32 l 2,17,18
 353.298828125 32 353.298828125 32 360.298828125 39.5 c 128,-1,19
 367.298828125 47 367.298828125 47 367.298828125 57 c 0,20,21
 367.298828125 67.3604290675 367.298828125 67.3604290675 364.5 79 c 2,22,-1
 333 210 l 1,23,-1
 171.298828125 210 l 1,24,-1
 155.19921875 145 l 2,25,26
 145.400390625 105.438553925 145.400390625 105.438553925 145.400390625 85 c 0,27,28
 145.400390625 64 145.400390625 64 153.44921875 48 c 128,-1,29
 161.5 32 161.5 32 181.099609375 32 c 2,30,-1
 218.19921875 32 l 1,31,-1
 218.19921875 0 l 1,32,-1
 -9.599609375 0 l 1,3,-1
EndSplineSet
Validated: 1
EndChar

StartChar: B
Encoding: 66 66 37
Width: 540
GlyphClass: 2
Flags: W
HStem: 0 32<25.25 122.767 198.387 369.408> 356 32<196.25 358.758> 680 32<25.25 122.767 198.387 357.628>
VStem: 124.25 72<33.6875 356 388 678.312> 405.949 88<459.877 620.808> 426.763 87.9873<102.629 274.899>
AnchorPoint: "Bottom" 301.85 0 basechar 0
AnchorPoint: "Top" 301.85 762 basechar 0
LayerCount: 2
Fore
SplineSet
196.25 356 m 1,0,-1
 196.25 59 l 2,1,2
 196.25 32 196.25 32 235.149414062 32 c 2,3,-1
 310.75 32 l 2,4,5
 426.762695312 32 426.762695312 32 426.762695312 197.5 c 4,6,7
 426.762695312 356 426.762695312 356 310.75 356 c 2,8,-1
 196.25 356 l 1,0,-1
25.25 0 m 1,9,-1
 25.25 32 l 1,10,-1
 97.25 32 l 2,11,12
 124.25 32 124.25 32 124.25 59 c 2,13,-1
 124.25 653 l 2,14,15
 124.25 680 124.25 680 97.25 680 c 2,16,-1
 25.25 680 l 1,17,-1
 25.25 712 l 1,18,-1
 310.75 712 l 2,19,20
 375.149414062 712 375.149414062 712 434.549804688 663.5 c 128,-1,21
 493.94921875 615 493.94921875 615 493.94921875 542 c 0,22,23
 493.94921875 474 493.94921875 474 448.549804688 430 c 128,-1,24
 403.149414062 386 403.149414062 386 360.44921875 373 c 1,25,-1
 360.44921875 369 l 1,26,27
 405.94921875 364 405.94921875 364 460.349609375 315.5 c 128,-1,28
 514.75 267 514.75 267 514.75 194 c 0,29,30
 514.75 103 514.75 103 451.25 51.5 c 128,-1,31
 387.75 0 387.75 0 318.44921875 0 c 2,32,-1
 25.25 0 l 1,9,-1
196.25 388 m 1,33,-1
 307.94921875 388 l 2,34,35
 364.649414062 388 364.649414062 388 385.299804688 429.5 c 128,-1,36
 405.94921875 471 405.94921875 471 405.94921875 542 c 0,37,38
 405.94921875 602 405.94921875 602 379.349609375 641 c 128,-1,39
 352.75 680 352.75 680 313.549804688 680 c 2,40,-1
 235.149414062 680 l 2,41,42
 196.25 680 196.25 680 196.25 653 c 2,43,-1
 196.25 388 l 1,33,-1
EndSplineSet
Validated: 1
EndChar

StartChar: C
Encoding: 67 67 38
Width: 540
GlyphClass: 2
Flags: W
HStem: -18 32<236.86 354.871> 698 32<224.502 331.006> 702 20G<434.543 464.4>
VStem: 61.0996 88<216.189 514.164> 439.4 25<444 498.111 693.177 722> 442.9 36<157.514 259>
LayerCount: 2
Fore
SplineSet
61.099609375 362 m 0,0,1
 61.099609375 463 61.099609375 463 94.099609375 546 c 128,-1,2
 127.099609375 629 127.099609375 629 177.900390625 679.5 c 128,-1,3
 228.69921875 730 228.69921875 730 288.900390625 730 c 0,4,5
 324.173828125 730 324.173828125 730 375.69921875 684 c 0,6,7
 386.900390625 674 386.900390625 674 393.900390625 665 c 0,8,9
 405.099609375 651 405.099609375 651 413.5 651 c 0,10,11
 419.099609375 651 419.099609375 651 421.55078125 655.5 c 0,12,13
 424.618935627 661.137183161 424.618935627 661.137183161 427.5 673 c 2,14,-1
 439.400390625 722 l 1,15,-1
 464.400390625 722 l 1,16,-1
 464.400390625 444 l 1,17,-1
 439.400390625 444 l 1,18,19
 416.30078125 566 416.30078125 566 374.650390625 632 c 128,-1,20
 333 698 333 698 288.900390625 698 c 0,21,22
 241.5 698 241.5 698 219.80078125 682 c 132,-1,23
 198.099609375 666 198.099609375 666 184.80078125 639 c 132,-1,24
 171.5 612 171.5 612 163.099609375 568 c 132,-1,25
 154.69921875 524 154.69921875 524 151.900390625 475.5 c 132,-1,26
 149.099609375 427 149.099609375 427 149.099609375 362 c 260,27,28
 149.099609375 297 149.099609375 297 152.599609375 247 c 132,-1,29
 156.099609375 197 156.099609375 197 165.19921875 151.5 c 132,-1,30
 174.30078125 106 174.30078125 106 189 77 c 132,-1,31
 203.69921875 48 203.69921875 48 227.150390625 31 c 132,-1,32
 250.599609375 14 250.599609375 14 300.099609375 14 c 0,33,34
 335.099609375 14 335.099609375 14 362.400390625 35 c 128,-1,35
 389.69921875 56 389.69921875 56 406.150390625 92 c 128,-1,36
 422.599609375 128 422.599609375 128 431.69921875 170 c 128,-1,37
 440.80078125 212 440.80078125 212 442.900390625 259 c 1,38,-1
 478.900390625 259 l 1,39,40
 477.900390625 237 477.900390625 237 474.400390625 214 c 128,-1,41
 470.900390625 191 470.900390625 191 462.900390625 163.5 c 128,-1,42
 454.900390625 136 454.900390625 136 444.69921875 111 c 128,-1,43
 434.5 86 434.5 86 421.19921875 62 c 128,-1,44
 407.900390625 38 407.900390625 38 391.44921875 20.5 c 128,-1,45
 375 3 375 3 351.55078125 -7.5 c 128,-1,46
 328.099609375 -18 328.099609375 -18 300.099609375 -18 c 0,47,48
 251.099609375 -18 251.099609375 -18 210.849609375 15 c 128,-1,49
 170.599609375 48 170.599609375 48 135.349609375 102 c 128,-1,50
 100.099609375 156 100.099609375 156 80.599609375 223 c 128,-1,51
 61.099609375 290 61.099609375 290 61.099609375 362 c 0,0,1
EndSplineSet
Validated: 1
EndChar

StartChar: D
Encoding: 68 68 39
Width: 540
GlyphClass: 2
Flags: W
HStem: 0 32<0.650391 68.1672 143.787 317.451> 680 32<0.650391 68.1672 143.787 315.296>
VStem: 69.6504 72<33.6875 678.312> 409.35 88<196.983 524.385>
AnchorPoint: "Bottom" 265.25 0 basechar 0
AnchorPoint: "Top" 265.25 762 basechar 0
LayerCount: 2
Fore
SplineSet
0.650390625 0 m 1,0,-1
 0.650390625 32 l 1,1,-1
 42.650390625 32 l 2,2,3
 69.650390625 32 69.650390625 32 69.650390625 59 c 2,4,-1
 69.650390625 653 l 2,5,6
 69.650390625 680 69.650390625 680 42.650390625 680 c 2,7,-1
 0.650390625 680 l 1,8,-1
 0.650390625 712 l 1,9,-1
 254.150390625 712 l 2,10,11
 358.715285134 712 358.715285134 712 420.200195312 633.5 c 0,12,13
 497.349609375 535 497.349609375 535 497.349609375 362 c 0,14,15
 497.349609375 188 497.349609375 188 419.849609375 84 c 4,16,17
 357.253656915 0 357.253656915 0 254.150390625 0 c 2,18,-1
 0.650390625 0 l 1,0,-1
409.349609375 362 m 0,19,20
 409.349609375 447 409.349609375 447 396.75 515.5 c 128,-1,21
 384.150390625 584 384.150390625 584 351.599609375 632 c 128,-1,22
 319.049804688 680 319.049804688 680 251.349609375 680 c 2,23,-1
 180.549804688 680 l 2,24,25
 141.650390625 680 141.650390625 680 141.650390625 653 c 2,26,-1
 141.650390625 59 l 2,27,28
 141.650390625 32 141.650390625 32 180.549804688 32 c 2,29,-1
 251.349609375 32 l 2,30,31
 306.450195312 32 306.450195312 32 334.799804688 61 c 128,-1,32
 363.150390625 90 363.150390625 90 378.900390625 138.5 c 128,-1,33
 394.650390625 187 394.650390625 187 402 243 c 128,-1,34
 409.349609375 299 409.349609375 299 409.349609375 362 c 0,19,20
EndSplineSet
Validated: 1
EndChar

StartChar: E
Encoding: 69 69 40
Width: 540
GlyphClass: 2
Flags: W
HStem: 0 32<34.2002 111.717 188.436 410.236> 344 36<185.2 317.905> 680 32<34.2002 111.717 188.436 413.434>
VStem: 113.2 72<36.1199 344 380 675.88> 344.2 26<205 310.97 412.825 518> 480.8 25<236 268 486 549.666>
AnchorPoint: "Bottom" 358.8 0 basechar 0
AnchorPoint: "Top" 358.8 762 basechar 0
LayerCount: 2
Fore
SplineSet
34.2001953125 0 m 1,0,-1
 34.2001953125 32 l 1,1,-1
 86.2001953125 32 l 2,2,3
 113.200195312 32 113.200195312 32 113.200195312 59 c 2,4,-1
 113.200195312 653 l 2,5,6
 113.200195312 680 113.200195312 680 86.2001953125 680 c 2,7,-1
 34.2001953125 680 l 1,8,-1
 34.2001953125 712 l 1,9,-1
 496.200195312 712 l 1,10,-1
 500.200195312 486 l 1,11,-1
 475.200195312 486 l 1,12,-1
 474.5 506 l 2,13,14
 473.901083548 523.107125445 473.901083548 523.107125445 466.099609375 561 c 0,15,16
 459.099609375 595 459.099609375 595 446.5 622 c 0,17,18
 419.899414062 680 419.899414062 680 362.200195312 680 c 2,19,-1
 244.099609375 680 l 2,20,21
 185.200195312 680 185.200195312 680 185.200195312 653 c 2,22,-1
 185.200195312 380 l 1,23,-1
 286.799804688 380 l 2,24,25
 305.700195312 380 305.700195312 380 318.299804688 392.5 c 128,-1,26
 330.899414062 405 330.899414062 405 335.799804688 428 c 128,-1,27
 340.700195312 451 340.700195312 451 342.450195312 471 c 128,-1,28
 344.200195312 491 344.200195312 491 344.200195312 518 c 1,29,-1
 370.200195312 518 l 1,30,-1
 370.200195312 205 l 1,31,-1
 344.200195312 205 l 1,32,33
 344.200195312 233 344.200195312 233 342.799804688 252.5 c 128,-1,34
 341.399414062 272 341.399414062 272 336.149414062 295.5 c 128,-1,35
 330.899414062 319 330.899414062 319 318.299804688 331.5 c 128,-1,36
 305.700195312 344 305.700195312 344 286.799804688 344 c 2,37,-1
 185.200195312 344 l 1,38,-1
 185.200195312 59 l 2,39,40
 185.200195312 32 185.200195312 32 244.099609375 32 c 2,41,-1
 361.200195312 32 l 2,42,43
 382.799804688 32 382.799804688 32 404.849609375 44.5 c 128,-1,44
 426.899414062 57 426.899414062 57 440.899414062 83 c 0,45,46
 454.899414062 111 454.899414062 111 465.049804688 157 c 0,47,48
 475.055215738 202.342975 475.055215738 202.342975 478 236 c 2,49,-1
 480.799804688 268 l 1,50,-1
 505.799804688 268 l 1,51,-1
 493.799804688 0 l 1,52,-1
 34.2001953125 0 l 1,0,-1
EndSplineSet
Validated: 1
EndChar

StartChar: F
Encoding: 70 70 41
Width: 540
GlyphClass: 2
Flags: W
HStem: 0 32<43 114.517 191.235 308.5> 344 36<188 320.704> 680 32<37 114.517 191.235 416.234>
VStem: 116 72<36.1199 344 380 675.88> 347 26<205 310.97 412.825 518> 478 25<486 575.54>
AnchorPoint: "Bottom" 233.6 0 basechar 0
AnchorPoint: "Top" 361.6 762 basechar 0
LayerCount: 2
Fore
SplineSet
43 0 m 1,0,-1
 43 32 l 1,1,-1
 89 32 l 6,2,3
 116 32 116 32 116 59 c 6,4,-1
 116 653 l 6,5,6
 116 680 116 680 89 680 c 6,7,-1
 37 680 l 1,8,-1
 37 712 l 1,9,-1
 499 712 l 1,10,-1
 503 486 l 1,11,-1
 478 486 l 1,12,-1
 477.299804688 506 l 2,13,14
 476.700888236 523.107125439 476.700888236 523.107125439 468.899414062 561 c 0,15,16
 461.899414062 595 461.899414062 595 449.299804688 622 c 0,17,18
 422.69921875 680 422.69921875 680 365 680 c 2,19,-1
 246.899414062 680 l 2,20,21
 188 680 188 680 188 653 c 6,22,-1
 188 380 l 5,23,-1
 289.599609375 380 l 2,24,25
 308.5 380 308.5 380 321.099609375 392.5 c 128,-1,26
 333.69921875 405 333.69921875 405 338.599609375 428 c 128,-1,27
 343.5 451 343.5 451 345.25 471 c 128,-1,28
 347 491 347 491 347 518 c 1,29,-1
 373 518 l 1,30,-1
 373 205 l 1,31,-1
 347 205 l 1,32,33
 347 233 347 233 345.599609375 252.5 c 128,-1,34
 344.19921875 272 344.19921875 272 338.94921875 295.5 c 128,-1,35
 333.69921875 319 333.69921875 319 321.099609375 331.5 c 128,-1,36
 308.5 344 308.5 344 289.599609375 344 c 2,37,-1
 188 344 l 5,38,-1
 188 59 l 6,39,40
 188 32 188 32 246.899414062 32 c 2,41,-1
 308.5 32 l 1,42,-1
 308.5 0 l 1,43,-1
 43 0 l 1,0,-1
EndSplineSet
Validated: 1
EndChar

StartChar: G
Encoding: 71 71 42
Width: 540
GlyphClass: 2
Flags: W
HStem: -18 42<161.341 281.111> 322 32<270.399 338.662 433.183 531.7> 688 42<160.736 286.265> 702 20G<399.761 431.7>
VStem: 8.2998 88<182.174 528.854> 339.7 92<113.65 321.677> 399.7 32<-13 111.967> 406.7 25<444 482.5>
AnchorPoint: "Bottom" 311.3 0 basechar 0
AnchorPoint: "Top" 317.3 762 basechar 0
LayerCount: 2
Fore
SplineSet
236.099609375 730 m 0,0,1
 276.062233665 730 276.062233665 730 322.899414062 684 c 0,2,3
 334.099609375 673 334.099609375 673 341.700195312 665 c 0,4,5
 356.700195312 651 356.700195312 651 369.700195312 651 c 0,6,7
 377.700195312 651 377.700195312 651 381.200195312 655.5 c 0,8,9
 385.584405838 661.136842103 385.584405838 661.136842103 389.700195312 673 c 2,10,-1
 406.700195312 722 l 1,11,-1
 431.700195312 722 l 1,12,-1
 431.700195312 444 l 1,13,-1
 406.700195312 444 l 1,14,15
 378.076170352 549.822152886 378.076170352 549.822152886 326.950195312 622 c 0,16,17
 280.200195312 688 280.200195312 688 236.099609375 688 c 0,18,19
 181 688 181 688 156.5 664 c 128,-1,20
 132 640 132 640 119.049804688 592.5 c 128,-1,21
 106.099609375 545 106.099609375 545 101.19921875 491.5 c 128,-1,22
 96.2998046875 438 96.2998046875 438 96.2998046875 356 c 256,23,24
 96.2998046875 274 96.2998046875 274 101.199707031 216 c 128,-1,25
 106.099609375 158 106.099609375 158 119.049804688 115 c 128,-1,26
 132 72 132 72 156.5 48 c 128,-1,27
 181 24 181 24 236.099609375 24 c 0,28,29
 275.299804688 24 275.299804688 24 307.5 80.5 c 128,-1,30
 339.700195312 137 339.700195312 137 339.700195312 189 c 2,31,-1
 339.700195312 295 l 2,32,33
 339.700195312 322 339.700195312 322 320.799804688 322 c 2,34,-1
 270.399414062 322 l 1,35,-1
 270.399414062 354 l 1,36,-1
 531.700195312 354 l 1,37,-1
 531.700195312 322 l 1,38,-1
 458.700195312 322 l 2,39,40
 431.700195312 322 431.700195312 322 431.700195312 295 c 2,41,-1
 431.700195312 -13 l 1,42,-1
 399.700195312 -13 l 1,43,-1
 399.700195312 78 l 2,44,45
 399.700195312 112 399.700195312 112 382.700195312 112 c 256,46,47
 364.043478895 112 364.043478895 112 347.700195312 82 c 0,48,49
 325.220755998 40.736371669 325.220755998 40.736371669 299.799804688 13.5 c 0,50,51
 270.399414062 -18 270.399414062 -18 236.099609375 -18 c 0,52,53
 108.197986222 -18 108.197986222 -18 41.7998046875 147.5 c 0,54,55
 8.2998046875 231 8.2998046875 231 8.2998046875 356 c 0,56,57
 8.2998046875 477 8.2998046875 477 40.7998046875 561.5 c 4,58,59
 105.607922466 730 105.607922466 730 236.099609375 730 c 0,0,1
EndSplineSet
Validated: 1
EndChar

StartChar: H
Encoding: 72 72 43
Width: 540
GlyphClass: 2
Flags: W
HStem: 0 32<-26.6992 70.8176 146.438 233.6 306.4 393.562 469.182 566.699> 356 36<144.301 395.699> 680 32<-26.6992 70.8176 146.438 233.6 306.4 393.562 469.182 566.699>
VStem: 72.3008 72<33.6875 356 392 678.312> 395.699 72<33.6875 356 392 678.312>
AnchorPoint: "Bottom" 333.9 0 basechar 0
AnchorPoint: "Top" 333.9 762 basechar 0
LayerCount: 2
Fore
SplineSet
-26.69921875 0 m 1,0,-1
 -26.69921875 32 l 1,1,-1
 45.30078125 32 l 2,2,3
 72.30078125 32 72.30078125 32 72.30078125 59 c 2,4,-1
 72.30078125 653 l 2,5,6
 72.30078125 680 72.30078125 680 45.30078125 680 c 2,7,-1
 -26.69921875 680 l 1,8,-1
 -26.69921875 712 l 1,9,-1
 233.599609375 712 l 1,10,-1
 233.599609375 680 l 1,11,-1
 183.19921875 680 l 2,12,13
 144.30078125 680 144.30078125 680 144.30078125 653 c 2,14,-1
 144.30078125 392 l 1,15,-1
 395.69921875 392 l 1,16,-1
 395.69921875 653 l 2,17,18
 395.69921875 680 395.69921875 680 356.80078125 680 c 2,19,-1
 306.400390625 680 l 1,20,-1
 306.400390625 712 l 1,21,-1
 566.69921875 712 l 1,22,-1
 566.69921875 680 l 1,23,-1
 494.69921875 680 l 2,24,25
 467.69921875 680 467.69921875 680 467.69921875 653 c 2,26,-1
 467.69921875 59 l 2,27,28
 467.69921875 32 467.69921875 32 494.69921875 32 c 2,29,-1
 566.69921875 32 l 1,30,-1
 566.69921875 0 l 1,31,-1
 306.400390625 0 l 1,32,-1
 306.400390625 32 l 1,33,-1
 356.80078125 32 l 2,34,35
 395.69921875 32 395.69921875 32 395.69921875 59 c 2,36,-1
 395.69921875 356 l 1,37,-1
 144.30078125 356 l 1,38,-1
 144.30078125 59 l 2,39,40
 144.30078125 32 144.30078125 32 183.19921875 32 c 2,41,-1
 233.599609375 32 l 1,42,-1
 233.599609375 0 l 1,43,-1
 -26.69921875 0 l 1,0,-1
EndSplineSet
Validated: 1
EndChar

StartChar: I
Encoding: 73 73 44
Width: 540
GlyphClass: 2
Flags: W
HStem: 0 32<85 231.968 308.032 455> 680 32<95 231.968 308.032 445>
VStem: 234 72<33.4832 678.517>
AnchorPoint: "Bottom" 289.6 0 basechar 0
AnchorPoint: "Top" 288.6 762 basechar 0
LayerCount: 2
Fore
SplineSet
85 0 m 1,0,-1
 85 32 l 1,1,-1
 197 32 l 2,2,3
 234 32 234 32 234 59 c 6,4,-1
 234 653 l 6,5,6
 234 680 234 680 197 680 c 2,7,-1
 95 680 l 1,8,-1
 95 712 l 1,9,-1
 445 712 l 1,10,-1
 445 680 l 1,11,-1
 343 680 l 2,12,13
 306 680 306 680 306 653 c 2,14,-1
 306 59 l 2,15,16
 306 32 306 32 343 32 c 2,17,-1
 455 32 l 1,18,-1
 455 0 l 1,19,-1
 85 0 l 1,0,-1
EndSplineSet
Validated: 1
EndChar

StartChar: J
Encoding: 74 74 45
Width: 540
GlyphClass: 2
Flags: W
HStem: -18 32<134.962 263.139> 112 106<105.221 159.497> 680 32<212 318.968 395.032 502>
VStem: 38 60<49.6013 148.5> 321 72<85.2639 678.517>
AnchorPoint: "Bottom" 243.2 0 basechar 0
AnchorPoint: "Top" 369.2 762 basechar 0
LayerCount: 2
Fore
SplineSet
502 712 m 1,0,-1
 502 680 l 1,1,-1
 430 680 l 2,2,3
 393 680 393 680 393 653 c 6,4,-1
 393 194 l 6,5,6
 393 96 393 96 341 39 c 128,-1,7
 289 -18 289 -18 208 -18 c 0,8,9
 134 -18 134 -18 86 21 c 128,-1,10
 38 60 38 60 38 127 c 0,11,12
 38 170 38 170 61 194 c 128,-1,13
 84 218 84 218 115 218 c 0,14,15
 144 218 144 218 160 202 c 128,-1,16
 176 186 176 186 176 161 c 0,17,18
 176 141 176 141 162 126.5 c 128,-1,19
 148 112 148 112 128 112 c 0,20,21
 112 112 112 112 105 105 c 128,-1,22
 98 98 98 98 98 82 c 0,23,24
 98 51 98 51 130 32.5 c 128,-1,25
 162 14 162 14 208 14 c 0,26,27
 257 14 257 14 289 52 c 128,-1,28
 321 90 321 90 321 143 c 2,29,-1
 321 653 l 2,30,31
 321 680 321 680 284 680 c 2,32,-1
 212 680 l 1,33,-1
 212 712 l 1,34,-1
 502 712 l 1,0,-1
EndSplineSet
Validated: 1
EndChar

StartChar: K
Encoding: 75 75 46
Width: 540
GlyphClass: 2
Flags: W
HStem: 0 32<-4.84961 92.6672 168.287 251.95 297.45 362.647 457.001 544.85> 680 32<-4.84961 92.6672 168.287 251.95 314.25 355.264 447.863 530.85>
VStem: 94.1504 72<33.6875 278 321 678.312>
DStem2: 166.15 321 166.15 278 0.576336 0.817213<0 96.496 177.876 360.776> 290.45 451 244.25 384 0.363667 -0.931529<45.6109 396.877>
AnchorPoint: "Bottom" 335.75 0 basechar 0
AnchorPoint: "Top" 335.75 762 basechar 0
LayerCount: 2
Fore
SplineSet
-4.849609375 0 m 1,0,-1
 -4.849609375 32 l 1,1,-1
 67.150390625 32 l 2,2,3
 94.150390625 32 94.150390625 32 94.150390625 59 c 2,4,-1
 94.150390625 653 l 2,5,6
 94.150390625 680 94.150390625 680 67.150390625 680 c 2,7,-1
 -4.849609375 680 l 1,8,-1
 -4.849609375 712 l 1,9,-1
 251.950195312 712 l 1,10,-1
 251.950195312 680 l 1,11,-1
 205.049804688 680 l 2,12,13
 166.150390625 680 166.150390625 680 166.150390625 653 c 2,14,-1
 166.150390625 321 l 5,15,-1
 347.849609375 579 l 2,16,17
 352.049804688 587 352.049804688 587 355.200195312 593 c 128,-1,18
 358.349609375 599 358.349609375 599 360.450195312 605 c 128,-1,19
 362.549804688 611 362.549804688 611 363.599609375 619 c 128,-1,20
 364.650390625 627 364.650390625 627 364.650390625 638 c 0,21,22
 364.650390625 656 364.650390625 656 355.549804688 668 c 128,-1,23
 346.450195312 680 346.450195312 680 333.150390625 680 c 2,24,-1
 314.25 680 l 1,25,-1
 314.25 712 l 1,26,-1
 530.849609375 712 l 1,27,-1
 530.849609375 680 l 1,28,-1
 490.849609375 680 l 2,29,30
 448.863786766 680 448.863786766 680 408.049804688 621 c 2,31,-1
 290.450195312 451 l 1,32,-1
 436.849609375 76 l 2,33,34
 445.631911966 53.5042578366 445.631911966 53.5042578366 465.849609375 41.5 c 0,35,36
 481.849609375 32 481.849609375 32 511.849609375 32 c 2,37,-1
 544.849609375 32 l 1,38,-1
 544.849609375 0 l 1,39,-1
 297.450195312 0 l 1,40,-1
 297.450195312 32 l 1,41,-1
 344.349609375 32 l 2,42,43
 352.049804688 32 352.049804688 32 357.650390625 38.5 c 128,-1,44
 363.25 45 363.25 45 363.25 53 c 0,45,46
 363.25 64.857803112 363.25 64.857803112 358.349609375 78 c 2,47,-1
 244.25 384 l 1,48,-1
 166.150390625 278 l 5,49,-1
 166.150390625 59 l 2,50,51
 166.150390625 32 166.150390625 32 205.049804688 32 c 2,52,-1
 251.950195312 32 l 1,53,-1
 251.950195312 0 l 1,54,-1
 -4.849609375 0 l 1,0,-1
EndSplineSet
Validated: 1
EndChar

StartChar: L
Encoding: 76 76 47
Width: 540
GlyphClass: 2
Flags: W
HStem: 0 32<45.0996 152.067 227.687 398.399> 680 32<45.0996 152.067 227.687 316.6>
VStem: 154.1 72<33.4832 678.517> 469.9 25<236 269>
AnchorPoint: "Bottom" 369.699 0 basechar 0
AnchorPoint: "Top" 221.699 762 basechar 0
LayerCount: 2
Fore
SplineSet
45.099609375 0 m 1,0,-1
 45.099609375 32 l 1,1,-1
 117.099609375 32 l 2,2,3
 154.099609375 32 154.099609375 32 154.099609375 59 c 6,4,-1
 154.099609375 653 l 6,5,6
 154.099609375 680 154.099609375 680 117.099609375 680 c 2,7,-1
 45.099609375 680 l 1,8,-1
 45.099609375 712 l 1,9,-1
 316.599609375 712 l 1,10,-1
 316.599609375 680 l 1,11,-1
 255 680 l 2,12,13
 226.099609375 680 226.099609375 680 226.099609375 653 c 2,14,-1
 226.099609375 59 l 2,15,16
 226.099609375 32 226.099609375 32 255 32 c 2,17,-1
 353 32 l 2,18,19
 371.19921875 32 371.19921875 32 393.599609375 45 c 128,-1,20
 416 58 416 58 430 84 c 0,21,22
 444 112 444 112 454.150390625 158 c 0,23,24
 464.43676469 204.62522748 464.43676469 204.62522748 467.099609375 236 c 2,25,-1
 469.900390625 269 l 1,26,-1
 494.900390625 269 l 1,27,-1
 481.900390625 0 l 1,28,-1
 45.099609375 0 l 1,0,-1
EndSplineSet
Validated: 1
EndChar

StartChar: M
Encoding: 77 77 48
Width: 540
GlyphClass: 2
Flags: W
HStem: 0 32<-6.40039 49.9701 128.44 181.9 326.1 394.362 469.982 536.4> 680 32<3.59961 71.1165 469.982 536.4>
VStem: 72.5996 40<54.1757 622> 395.4 72<34.907 649>
DStem2: 163.699 712 116.799 622 0.206347 -0.978479<78.3854 562.686> 277.799 161 267.299 -12 0.19026 0.981734<0 501.461>
AnchorPoint: "Bottom" 262.199 0 basechar 0
AnchorPoint: "Top" 273.199 762 basechar 0
LayerCount: 2
Fore
SplineSet
-6.400390625 0 m 1,0,-1
 -6.400390625 32 l 1,1,-1
 9.599609375 32 l 2,2,3
 37.599609375 32 37.599609375 32 55.099609375 53.5 c 128,-1,4
 72.599609375 75 72.599609375 75 72.599609375 112 c 2,5,-1
 72.599609375 653 l 2,6,7
 72.599609375 680 72.599609375 680 45.599609375 680 c 2,8,-1
 3.599609375 680 l 1,9,-1
 3.599609375 712 l 1,10,-1
 163.69921875 712 l 1,11,-1
 277.798828125 161 l 1,12,-1
 384.19921875 712 l 1,13,-1
 536.400390625 712 l 1,14,-1
 536.400390625 680 l 1,15,-1
 514.400390625 680 l 2,16,17
 467.400390625 680 467.400390625 680 467.400390625 653 c 2,18,-1
 467.400390625 59 l 2,19,20
 467.400390625 32 467.400390625 32 514.400390625 32 c 2,21,-1
 536.400390625 32 l 1,22,-1
 536.400390625 0 l 1,23,-1
 326.099609375 0 l 1,24,-1
 326.099609375 32 l 1,25,-1
 376.5 32 l 2,26,27
 395.400390625 32 395.400390625 32 395.400390625 59 c 2,28,-1
 395.400390625 649 l 1,29,-1
 267.298828125 -12 l 1,30,-1
 250.5 -12 l 1,31,-1
 116.798828125 622 l 1,32,-1
 112.599609375 622 l 1,33,-1
 112.599609375 112 l 2,34,35
 112.599609375 75 112.599609375 75 124.849609375 53.5 c 128,-1,36
 137.099609375 32 137.099609375 32 156.69921875 32 c 2,37,-1
 181.900390625 32 l 1,38,-1
 181.900390625 0 l 1,39,-1
 -6.400390625 0 l 1,0,-1
EndSplineSet
Validated: 1
EndChar

StartChar: N
Encoding: 78 78 49
Width: 540
GlyphClass: 2
Flags: W
HStem: 0 32<-8.44922 68.5322 146.391 199.85> 680 32<-8.44922 88.7087 339.85 393.052 471.709 548.449>
VStem: 90.5508 40<54.1757 603> 408.449 40<154 657.824>
DStem2: 165.551 712 133.35 603 0.405031 -0.914303<86.6165 608.562>
AnchorPoint: "Bottom" 364.15 0 basechar 0
AnchorPoint: "Top" 364.15 762 basechar 0
LayerCount: 2
Fore
SplineSet
-8.44921875 0 m 1,0,-1
 -8.44921875 32 l 1,1,-1
 27.55078125 32 l 2,2,3
 56.55078125 32 56.55078125 32 73.55078125 53.5 c 128,-1,4
 90.55078125 75 90.55078125 75 90.55078125 112 c 2,5,-1
 90.55078125 653 l 2,6,7
 89.55078125 680 89.55078125 680 63.55078125 680 c 2,8,-1
 -8.44921875 680 l 1,9,-1
 -8.44921875 712 l 1,10,-1
 165.55078125 712 l 1,11,-1
 408.44921875 154 l 1,12,-1
 408.44921875 600 l 2,13,14
 408.44921875 637 408.44921875 637 396.55078125 658.5 c 128,-1,15
 384.650390625 680 384.650390625 680 365.05078125 680 c 2,16,-1
 339.849609375 680 l 1,17,-1
 339.849609375 712 l 1,18,-1
 548.44921875 712 l 1,19,-1
 548.44921875 680 l 1,20,-1
 512.44921875 680 l 2,21,22
 484.44921875 680 484.44921875 680 466.44921875 658.5 c 128,-1,23
 448.44921875 637 448.44921875 637 448.44921875 600 c 2,24,-1
 448.44921875 -18 l 1,25,-1
 408.44921875 -18 l 1,26,-1
 133.349609375 603 l 1,27,-1
 130.55078125 603 l 1,28,-1
 130.55078125 112 l 2,29,30
 130.55078125 75 130.55078125 75 142.80078125 53.5 c 128,-1,31
 155.05078125 32 155.05078125 32 174.650390625 32 c 2,32,-1
 199.849609375 32 l 1,33,-1
 199.849609375 0 l 1,34,-1
 -8.44921875 0 l 1,0,-1
EndSplineSet
Validated: 1
EndChar

StartChar: O
Encoding: 79 79 50
Width: 540
GlyphClass: 2
Flags: W
HStem: -18 42<212.083 327.917> 688 42<212.083 327.917>
VStem: 49.2002 88<159.513 552.487> 402.8 88<159.513 552.487>
AnchorPoint: "Bottom" 269.2 0 basechar 0
AnchorPoint: "Top" 269.2 762 basechar 0
LayerCount: 2
Fore
SplineSet
270 -18 m 256,0,1
 49.2001953125 -18 49.2001953125 -18 49.2001953125 356 c 260,2,3
 49.2001953125 730 49.2001953125 730 270 730 c 256,4,5
 490.799804688 730 490.799804688 730 490.799804688 356 c 256,6,7
 490.799804688 -18 490.799804688 -18 270 -18 c 256,0,1
270 24 m 256,8,9
 402.799804688 24 402.799804688 24 402.799804688 356 c 256,10,11
 402.799804688 688 402.799804688 688 270 688 c 256,12,13
 137.200195312 688 137.200195312 688 137.200195312 356 c 260,14,15
 137.200195312 24 137.200195312 24 270 24 c 256,8,9
EndSplineSet
Validated: 1
EndChar

StartChar: P
Encoding: 80 80 51
Width: 540
GlyphClass: 2
Flags: W
HStem: 0 32<35.5508 121.518 197.138 286.051> 336 32<195.551 352.147> 680 32<34.5508 121.518 197.138 354.252>
VStem: 123.551 72<33.4832 336 368 678.517> 399.449 88<433.181 617.769>
AnchorPoint: "Top" 291.15 762 basechar 0
LayerCount: 2
Fore
SplineSet
35.55078125 0 m 1,0,-1
 35.55078125 32 l 1,1,-1
 86.55078125 32 l 2,2,3
 123.55078125 32 123.55078125 32 123.55078125 59 c 2,4,-1
 123.55078125 653 l 2,5,6
 123.55078125 680 123.55078125 680 86.55078125 680 c 2,7,-1
 34.55078125 680 l 1,8,-1
 34.55078125 712 l 1,9,-1
 305.650390625 712 l 2,10,11
 379.849609375 712 379.849609375 712 433.649414062 660.5 c 128,-1,12
 487.44921875 609 487.44921875 609 487.44921875 526 c 260,13,14
 487.44921875 443 487.44921875 443 433.649414063 389.5 c 128,-1,15
 379.849609375 336 379.849609375 336 305.650390625 336 c 2,16,-1
 195.55078125 336 l 1,17,-1
 195.55078125 59 l 2,18,19
 195.55078125 32 195.55078125 32 224.44921875 32 c 2,20,-1
 286.05078125 32 l 1,21,-1
 286.05078125 0 l 1,22,-1
 35.55078125 0 l 1,0,-1
195.55078125 368 m 1,23,-1
 314.75 368 l 2,24,25
 352.55078125 368 352.55078125 368 376 414.5 c 128,-1,26
 399.44921875 461 399.44921875 461 399.44921875 526 c 256,27,28
 399.44921875 591 399.44921875 591 376.349609375 635.5 c 128,-1,29
 353.25 680 353.25 680 314.75 680 c 2,30,-1
 224.44921875 680 l 2,31,32
 195.55078125 680 195.55078125 680 195.55078125 653 c 2,33,-1
 195.55078125 368 l 1,23,-1
EndSplineSet
Validated: 1
EndChar

StartChar: Q
Encoding: 81 81 52
Width: 540
GlyphClass: 2
Flags: W
HStem: -168 68<379.59 454.568> -18 42<240.532 314.421> 149 32<242.646 301.197> 688 42<207.761 316.445>
VStem: 48 88<166.9 553.227> 194 38<47.2781 141.936> 394 88<169.684 542.562> 491 19<-34.9434 50>
AnchorPoint: "Bottom" 225 0 basechar 0
AnchorPoint: "Top" 341 762 basechar 0
LayerCount: 2
Fore
SplineSet
276 -18 m 0,0,1
 48 -18 48 -18 48 356 c 256,2,3
 48 730 48 730 264 730 c 256,4,5
 482 730 482 730 482 334 c 0,6,7
 482 113 482 113 362 17 c 1,8,-1
 367 -37 l 1,9,10
 374 -100 374 -100 418 -100 c 0,11,12
 491 -100 491 -100 491 50 c 1,13,-1
 510 50 l 1,14,15
 510 -168 510 -168 392 -168 c 0,16,17
 358 -168 358 -168 336.5 -134.5 c 128,-1,18
 315 -101 315 -101 315 -48 c 2,19,-1
 315 -10 l 1,20,21
 295 -18 295 -18 276 -18 c 0,0,1
315 62 m 2,22,23
 315 149 315 149 273.5 149 c 128,-1,24
 232 149 232 149 232 86.5 c 128,-1,25
 232 24 232 24 273 24 c 0,26,27
 298 24 298 24 315 34 c 1,28,-1
 315 62 l 2,22,23
394 315 m 0,29,30
 394 688 394 688 264 688 c 256,31,32
 136 688 136 688 136 361 c 2,33,-1
 136 356 l 2,34,35
 136 123 136 123 197 47 c 1,36,37
 194 58 194 58 194 85 c 0,38,39
 194 133 194 133 219.5 157 c 128,-1,40
 245 181 245 181 272 181 c 0,41,42
 332 181 332 181 355 63 c 1,43,44
 394 126 394 126 394 315 c 0,29,30
EndSplineSet
Validated: 1
EndChar

StartChar: R
Encoding: 82 82 53
Width: 540
GlyphClass: 2
Flags: W
HStem: -12 64<416.7 485.547> 0 32<19.9004 126.868 202.488 292.1> 368 32<200.9 321.077> 680 32<19.9004 126.868 202.488 348.149>
VStem: 128.9 72<33.4832 368 400 678.517> 387.3 88<464.709 639.71> 495.1 25<69.2969 160>
AnchorPoint: "Bottom" 308.5 0 basechar 0
AnchorPoint: "Top" 308.5 762 basechar 0
LayerCount: 2
Fore
SplineSet
200.900390625 400 m 1,0,-1
 278.799804688 400 l 2,1,2
 387.299804688 400 387.299804688 400 387.299804688 552 c 0,3,4
 387.299804688 613 387.299804688 613 364.549804688 646.5 c 128,-1,5
 341.799804688 680 341.799804688 680 302.599609375 680 c 2,6,-1
 229.799804688 680 l 2,7,8
 200.900390625 680 200.900390625 680 200.900390625 653 c 2,9,-1
 200.900390625 400 l 1,0,-1
19.900390625 0 m 1,10,-1
 19.900390625 32 l 1,11,-1
 91.900390625 32 l 2,12,13
 128.900390625 32 128.900390625 32 128.900390625 59 c 2,14,-1
 128.900390625 653 l 2,15,16
 128.900390625 680 128.900390625 680 91.900390625 680 c 2,17,-1
 19.900390625 680 l 1,18,-1
 19.900390625 712 l 1,19,-1
 306.799804688 712 l 2,20,21
 380.299804688 712 380.299804688 712 427.799804688 670.5 c 128,-1,22
 475.299804688 629 475.299804688 629 475.299804688 552 c 0,23,24
 475.299804688 478 475.299804688 478 429.549804688 433 c 128,-1,25
 383.799804688 388 383.799804688 388 329.200195312 380 c 1,26,-1
 329.200195312 376 l 1,27,28
 369.099609375 365 369.099609375 365 394.650390625 323.5 c 128,-1,29
 420.200195312 282 420.200195312 282 428.599609375 182 c 0,30,31
 435.599609375 100 435.599609375 100 441.900390625 76 c 128,-1,32
 448.200195312 52 448.200195312 52 465 52 c 0,33,34
 495.099609375 52 495.099609375 52 495.099609375 160 c 1,35,-1
 520.099609375 160 l 1,36,37
 520.099609375 -12 520.099609375 -12 439.799804688 -12 c 0,38,39
 393.599609375 -12 393.599609375 -12 376.099609375 35 c 0,40,41
 357.200195312 87 357.200195312 87 355.799804688 212 c 0,42,43
 355.099609375 279 355.099609375 279 339 323.5 c 128,-1,44
 322.900390625 368 322.900390625 368 287.200195312 368 c 2,45,-1
 200.900390625 368 l 1,46,-1
 200.900390625 59 l 2,47,48
 200.900390625 32 200.900390625 32 229.799804688 32 c 2,49,-1
 292.099609375 32 l 1,50,-1
 292.099609375 0 l 1,51,-1
 19.900390625 0 l 1,10,-1
EndSplineSet
Validated: 1
EndChar

StartChar: S
Encoding: 83 83 54
Width: 540
GlyphClass: 2
Flags: W
HStem: -18 42<228.489 391.008> 691 39<185.722 330.678> 692 20G<419.245 442.57>
VStem: 73.4004 56.5996<515.827 641.748> 79.4004 24<225.258 306> 86.4004 21.1992<-10 30> 420.801 21<676 712> 427.801 24<452 508.016> 430.6 60<67.4812 216.908>
DStem2: 243.701 447 245.801 328 0.868796 -0.49517<-90.2492 257.725>
AnchorPoint: "Bottom" 401.801 0 basechar 0
AnchorPoint: "Top" 359.801 762 basechar 0
LayerCount: 2
Fore
SplineSet
79.400390625 306 m 1,0,-1
 103.400390625 306 l 1,1,2
 110.400390625 193 110.400390625 193 160.80078125 108.5 c 128,-1,3
 211.201171875 24 211.201171875 24 320.701171875 24 c 0,4,5
 430.599609375 24 430.599609375 24 430.599609375 150 c 0,6,7
 430.599609375 222.053692384 430.599609375 222.053692384 352.201171875 267 c 2,8,-1
 245.80078125 328 l 2,9,10
 73.400390625 426.83820695 73.400390625 426.83820695 73.400390625 542 c 0,11,12
 73.400390625 730 73.400390625 730 275.201171875 730 c 0,13,14
 337.240234375 730 337.240234375 730 385.400390625 669 c 0,15,16
 398.822265625 652 398.822265625 652 404 652 c 0,17,18
 416.1328125 652 416.1328125 652 418 676 c 2,19,-1
 420.80078125 712 l 1,20,-1
 441.80078125 712 l 1,21,-1
 451.80078125 452 l 1,22,-1
 427.80078125 452 l 1,23,24
 390.62109375 691 390.62109375 691 269.599609375 691 c 0,25,26
 130 691 130 691 130 560 c 0,27,28
 130 511.803964089 130 511.803964089 243.701171875 447 c 2,29,-1
 378.80078125 370 l 2,30,31
 490.599609375 306.280276416 490.599609375 306.280276416 490.599609375 188 c 0,32,33
 490.599609375 -18 490.599609375 -18 320.701171875 -18 c 0,34,35
 236.990478021 -18 236.990478021 -18 177.400390625 33 c 0,36,37
 155.868172131 51.4282854945 155.868172131 51.4282854945 134.201171875 70 c 0,38,39
 130.701171875 73 130.701171875 73 127.900390625 73 c 0,40,41
 122.30078125 73 122.30078125 73 117.05078125 62.5 c 0,42,43
 111.963624766 52.3256870316 111.963624766 52.3256870316 110.400390625 30 c 2,44,-1
 107.599609375 -10 l 1,45,-1
 86.400390625 -10 l 1,46,-1
 79.400390625 306 l 1,0,-1
EndSplineSet
Validated: 1
EndChar

StartChar: T
Encoding: 84 84 55
Width: 540
GlyphClass: 2
Flags: W
HStem: 0 32<151.699 232.981 307.018 388.3> 680 32<141.626 232.981 307.018 398.303>
VStem: 27.5 25<444 532.808> 233.8 72.3994<32 680> 487.5 25<444 532.808>
LayerCount: 2
Fore
SplineSet
27.5 444 m 1,0,-1
 35.5 712 l 1,1,-1
 504.5 712 l 1,2,-1
 512.5 444 l 1,3,-1
 487.5 444 l 1,4,5
 487.5 455 487.5 455 485.5 479 c 128,-1,6
 483.5 503 483.5 503 470.5 551.5 c 128,-1,7
 457.5 600 457.5 600 435.5 628 c 0,8,9
 394.5 680 394.5 680 353.299804688 680 c 2,10,-1
 321.099609375 680 l 2,11,12
 306.19921875 680 306.19921875 680 306.19921875 653 c 6,13,-1
 306.19921875 59 l 6,14,15
 306.19921875 32 306.19921875 32 321.099609375 32 c 2,16,-1
 388.299804688 32 l 1,17,-1
 388.299804688 0 l 1,18,-1
 151.69921875 0 l 1,19,-1
 151.69921875 32 l 1,20,-1
 218.899414062 32 l 2,21,22
 233.799804688 32 233.799804688 32 233.799804688 59 c 2,23,-1
 233.799804688 653 l 2,24,25
 233.799804688 680 233.799804688 680 218.899414062 680 c 2,26,-1
 186.69921875 680 l 2,27,28
 145.357142857 680 145.357142857 680 104.5 628 c 0,29,30
 82.5 600 82.5 600 69.5 551.5 c 128,-1,31
 56.5 503 56.5 503 54.5 479 c 128,-1,32
 52.5 455 52.5 455 52.5 444 c 1,33,-1
 27.5 444 l 1,0,-1
EndSplineSet
Validated: 1
EndChar

StartChar: U
Encoding: 85 85 56
Width: 540
GlyphClass: 2
Flags: W
HStem: -18 32<223.163 354.8> 680 32<5.5 82.4675 158.087 236.5 356.199 408.791 489.369 564.5>
VStem: 84.5 72<98.4102 678.517> 425.5 40<88.8203 657.309>
AnchorPoint: "Bottom" 286.1 0 basechar 0
AnchorPoint: "Top" 296.1 762 basechar 0
LayerCount: 2
Fore
SplineSet
286.19921875 -18 m 0,0,1
 84.5 -18 84.5 -18 84.5 237 c 2,2,-1
 84.5 653 l 2,3,4
 84.5 680 84.5 680 47.5 680 c 2,5,-1
 5.5 680 l 1,6,-1
 5.5 712 l 1,7,-1
 236.5 712 l 1,8,-1
 236.5 680 l 1,9,-1
 185.399414062 680 l 2,10,11
 156.5 680 156.5 680 156.5 653 c 2,12,-1
 156.5 210 l 2,13,14
 156.5 14 156.5 14 286.19921875 14 c 0,15,16
 425.5 14 425.5 14 425.5 198 c 2,17,-1
 425.5 599 l 2,18,19
 425.5 636 425.5 636 412.899414062 658 c 128,-1,20
 400.299804687 680 400.299804687 680 380.69921875 680 c 2,21,-1
 356.19921875 680 l 1,22,-1
 356.19921875 712 l 1,23,-1
 564.5 712 l 1,24,-1
 564.5 680 l 1,25,-1
 529.5 680 l 2,26,27
 501.5 680 501.5 680 483.5 658 c 128,-1,28
 465.5 636 465.5 636 465.5 599 c 2,29,-1
 465.5 208 l 2,30,31
 465.5 -18 465.5 -18 286.19921875 -18 c 0,0,1
EndSplineSet
Validated: 1
EndChar

StartChar: V
Encoding: 86 86 57
Width: 540
GlyphClass: 2
Flags: W
HStem: 680 32<-12.4004 76.1602 179.242 247.6 327.4 391.875 471.968 552.4>
DStem2: 180.4 633 99 636 0.241977 -0.970282<-21.6978 495.67> 300.1 152 299.6 -18 0.221704 0.975114<0 485.493>
AnchorPoint: "Bottom" 286.801 0 basechar 0
AnchorPoint: "Top" 286.801 762 basechar 0
LayerCount: 2
Fore
SplineSet
262.099609375 -18 m 1,0,-1
 99 636 l 2,1,2
 93.2064238555 659.231194808 93.2064238555 659.231194808 76.599609375 670.5 c 0,3,4
 62.599609375 680 62.599609375 680 40.599609375 680 c 2,5,-1
 -12.400390625 680 l 1,6,-1
 -12.400390625 712 l 1,7,-1
 247.599609375 712 l 1,8,-1
 247.599609375 680 l 1,9,-1
 201.400390625 680 l 2,10,11
 191.599609375 680 191.599609375 680 184.599609375 672.5 c 128,-1,12
 177.599609375 665 177.599609375 665 177.599609375 655 c 0,13,14
 177.599609375 644.254674803 177.599609375 644.254674803 180.400390625 633 c 2,15,-1
 300.099609375 152 l 1,16,-1
 392.5 558 l 2,17,18
 400.900390625 594.91065125 400.900390625 594.91065125 400.900390625 628 c 0,19,20
 400.900390625 649 400.900390625 649 392.150390625 664.5 c 128,-1,21
 383.400390625 680 383.400390625 680 365.201171875 680 c 2,22,-1
 327.400390625 680 l 1,23,-1
 327.400390625 712 l 1,24,-1
 552.400390625 712 l 1,25,-1
 552.400390625 680 l 1,26,-1
 515.400390625 680 l 2,27,28
 458.298634375 680 458.298634375 680 441.701171875 607 c 2,29,-1
 299.599609375 -18 l 1,30,-1
 262.099609375 -18 l 1,0,-1
EndSplineSet
Validated: 1
EndChar

StartChar: W
Encoding: 87 87 58
Width: 540
GlyphClass: 2
Flags: W
HStem: 680 32<-108.1 -21.4044 59.3435 115.1 161.301 221.776 312.83 368.5 423.1 480.104 557.23 648.1>
DStem2: 60.5 633 -7.40039 636 0.199285 -0.979942<-21.8649 469.326> 153.6 173 143.1 -18 0.195101 0.980783<0 377.516> 309.701 597 231.301 643 0.199595 -0.979879<-30.8943 -27.9694 46.6355 441.892> 397.9 164 386 -18 0.217543 0.976051<0 474.411>
AnchorPoint: "Bottom" 264.301 0 basechar 0
AnchorPoint: "Top" 268.301 762 basechar 0
LayerCount: 2
Fore
SplineSet
125.599609375 -18 m 1,0,-1
 -7.400390625 636 l 2,1,2
 -16.34765625 680 -16.34765625 680 -66.099609375 680 c 2,3,-1
 -108.099609375 680 l 1,4,-1
 -108.099609375 712 l 1,5,-1
 115.099609375 712 l 1,6,-1
 115.099609375 680 l 1,7,-1
 81.5 680 l 2,8,9
 71.7001953125 680 71.7001953125 680 64.701171875 672.5 c 128,-1,10
 57.701171875 665 57.701171875 665 57.701171875 655 c 0,11,12
 57.701171875 646.833984375 57.701171875 646.833984375 60.5 633 c 2,13,-1
 153.599609375 173 l 1,14,-1
 238.30078125 611 l 1,15,-1
 231.30078125 643 l 2,16,17
 223.20703125 680 223.20703125 680 181.599609375 680 c 2,18,-1
 161.30078125 680 l 1,19,-1
 161.30078125 712 l 1,20,-1
 368.5 712 l 1,21,-1
 368.5 680 l 1,22,-1
 341.201171875 680 l 2,23,24
 305.5 680 305.5 680 305.5 628 c 0,25,26
 305.5 617.620117188 305.5 617.620117188 309.701171875 597 c 2,27,-1
 397.900390625 164 l 1,28,-1
 485.400390625 558 l 2,29,30
 493.099609375 592.672851562 493.099609375 592.672851562 493.099609375 630 c 0,31,32
 493.099609375 650 493.099609375 650 480.5 665 c 128,-1,33
 467.900390625 680 467.900390625 680 446.900390625 680 c 2,34,-1
 423.099609375 680 l 1,35,-1
 423.099609375 712 l 1,36,-1
 648.099609375 712 l 1,37,-1
 648.099609375 680 l 1,38,-1
 605.099609375 680 l 2,39,40
 541.5703125 680 541.5703125 680 525.30078125 607 c 2,41,-1
 386 -18 l 1,42,-1
 368.5 -18 l 1,43,-1
 253.701171875 538 l 1,44,-1
 143.099609375 -18 l 1,45,-1
 125.599609375 -18 l 1,0,-1
EndSplineSet
Validated: 1
EndChar

StartChar: X
Encoding: 88 88 59
Width: 540
GlyphClass: 2
Flags: W
HStem: 0 32<26.7002 85.8986 163.697 221.7 290.3 350.826 438.627 523.3> 680 32<36.7002 113.531 202.103 256.7 307.8 354.053 430.166 518.3>
DStem2: 123.7 99 176.2 139 0.419702 0.907662<-5.47411 250.968 375.589 589.229> 283.3 439 137.7 628 0.353562 -0.935411<-239.784 0 40.2479 66.7787 107.522 384.722>
LayerCount: 2
Fore
SplineSet
26.7001953125 0 m 1,0,-1
 26.7001953125 32 l 1,1,-1
 47.7001953125 32 l 2,2,3
 76.7001953125 32 76.7001953125 32 86.2001953125 42 c 128,-1,4
 95.7001953125 52 95.7001953125 52 104.700195312 66.5 c 0,5,6
 120.119828106 91.3429044906 120.119828106 91.3429044906 123.700195312 99 c 2,7,-1
 242 352 l 1,8,-1
 137.700195312 628 l 2,9,10
 127.076900031 656.111553099 127.076900031 656.111553099 113.950195312 668 c 128,-1,11
 100.700195312 680 100.700195312 680 67.7001953125 680 c 2,12,-1
 36.7001953125 680 l 1,13,-1
 36.7001953125 712 l 1,14,-1
 256.700195312 712 l 1,15,-1
 256.700195312 680 l 1,16,-1
 214.700195312 680 l 2,17,18
 202.099609375 680 202.099609375 680 202.099609375 665 c 0,19,20
 202.099609375 653.816441471 202.099609375 653.816441471 207.700195312 639 c 2,21,-1
 283.299804688 439 l 1,22,-1
 349.799804688 581 l 2,23,24
 363.799804688 610.894736842 363.799804688 610.894736842 363.799804688 638 c 0,25,26
 363.799804688 655 363.799804688 655 354.349609375 667.5 c 128,-1,27
 344.900390625 680 344.900390625 680 329.5 680 c 2,28,-1
 307.799804688 680 l 1,29,-1
 307.799804688 712 l 1,30,-1
 518.299804688 712 l 5,31,-1
 518.299804688 680 l 5,32,-1
 483.299804688 680 l 2,33,34
 426.517276664 680 426.517276664 680 403.700195312 631 c 2,35,-1
 296.599609375 401 l 1,36,-1
 420.5 76 l 2,37,38
 437.274206731 32 437.274206731 32 481.299804688 32 c 2,39,-1
 523.299804688 32 l 5,40,-1
 523.299804688 0 l 5,41,-1
 290.299804688 0 l 1,42,-1
 290.299804688 32 l 1,43,-1
 332.299804688 32 l 2,44,45
 351.200195312 32 351.200195312 32 351.200195312 53 c 0,46,47
 351.200195312 65.0926648501 351.200195312 65.0926648501 346.299804688 78 c 2,48,-1
 256.700195312 314 l 1,49,-1
 176.200195312 139 l 2,50,51
 158.700195312 100.956521739 158.700195312 100.956521739 158.700195312 76 c 0,52,53
 158.700195312 58 158.700195312 58 165 45 c 128,-1,54
 171.299804688 32 171.299804688 32 183.900390625 32 c 2,55,-1
 221.700195312 32 l 1,56,-1
 221.700195312 0 l 1,57,-1
 26.7001953125 0 l 1,0,-1
EndSplineSet
Validated: 1
EndChar

StartChar: Y
Encoding: 89 89 60
Width: 540
GlyphClass: 2
Flags: W
HStem: 0 32<153 247.407 322.593 417> 680 32<-11 80.1318 185.735 244 341 396.801 476.895 551>
VStem: 249 72<32.5339 318>
DStem2: 302 377 249 318 0.424288 -0.905527<-302.17 0> 302 377 321 335 0.374914 0.92706<0 285.014>
AnchorPoint: "Bottom" 352 0 basechar 0
AnchorPoint: "Top" 288 762 basechar 0
LayerCount: 2
Fore
SplineSet
153 0 m 1,0,-1
 153 32 l 1,1,-1
 220 32 l 2,2,3
 249 32 249 32 249 59 c 2,4,-1
 249 318 l 1,5,-1
 100 636 l 2,6,7
 79 680 79 680 41 680 c 2,8,-1
 -11 680 l 1,9,-1
 -11 712 l 1,10,-1
 244 712 l 1,11,-1
 244 680 l 1,12,-1
 203 680 l 2,13,14
 193 680 193 680 185.5 673 c 128,-1,15
 178 666 178 666 178 653 c 128,-1,16
 178 640 178 640 182 633 c 2,17,-1
 302 377 l 1,18,-1
 389 596 l 2,19,20
 401 626 401 626 401 645 c 0,21,22
 401 680 401 680 362 680 c 2,23,-1
 341 680 l 1,24,-1
 341 712 l 1,25,-1
 551 712 l 1,26,-1
 551 680 l 1,27,-1
 522 680 l 2,28,29
 498 680 498 680 479 666 c 0,30,31
 445 642 445 642 431 607 c 2,32,-1
 321 335 l 1,33,-1
 321 59 l 2,34,35
 321 32 321 32 350 32 c 2,36,-1
 417 32 l 1,37,-1
 417 0 l 1,38,-1
 153 0 l 1,0,-1
EndSplineSet
Validated: 1
EndChar

StartChar: Z
Encoding: 90 90 61
Width: 540
GlyphClass: 2
Flags: W
HStem: 0 32<147.449 343.029> 456 21G<76.9492 101.949> 680 32<187.734 360.25>
VStem: 76.9492 25<456 510.799> 458.051 25<248 282>
DStem2: 56.9492 32 147.449 32 0.440106 0.897946<39.8296 715.353>
AnchorPoint: "Bottom" 369.35 0 basechar 0
AnchorPoint: "Top" 369.35 762 basechar 0
LayerCount: 2
Fore
SplineSet
56.94921875 0 m 1,0,-1
 56.94921875 32 l 1,1,-1
 360.25 680 l 1,2,-1
 228.650390625 680 l 2,3,4
 187.349609375 680 187.349609375 680 152.349609375 622 c 0,5,6
 129.25 583 129.25 583 115.599609375 525.5 c 128,-1,7
 101.94921875 468 101.94921875 468 101.94921875 456 c 1,8,-1
 76.94921875 456 l 1,9,-1
 109.650390625 712 l 1,10,-1
 465.05078125 712 l 1,11,-1
 465.05078125 680 l 1,12,-1
 147.44921875 32 l 1,13,-1
 302.150390625 32 l 2,14,15
 340.650390625 32 340.650390625 32 379.05078125 88 c 0,16,17
 404.05078125 117 404.05078125 117 423.55078125 165.5 c 128,-1,18
 443.05078125 214 443.05078125 214 451.05078125 248 c 2,19,-1
 458.05078125 282 l 1,20,-1
 483.05078125 282 l 1,21,-1
 459.05078125 0 l 1,22,-1
 56.94921875 0 l 1,0,-1
EndSplineSet
Validated: 1
EndChar

StartChar: bracketleft
Encoding: 91 91 62
Width: 540
GlyphClass: 2
Flags: W
HStem: -198 26<323 362.077> 704 26<323 362.077>
VStem: 175 72<-155.869 687.869>
LayerCount: 2
Fore
SplineSet
175 -186 m 1,0,-1
 175 718 l 1,1,-1
 361 730 l 1,2,-1
 365 704 l 1,3,-1
 269 688 l 2,4,5
 247 684 247 684 247 656 c 2,6,-1
 247 -124 l 2,7,8
 247 -152 247 -152 269 -156 c 2,9,-1
 365 -172 l 1,10,-1
 361 -198 l 1,11,-1
 175 -186 l 1,0,-1
EndSplineSet
Validated: 1
EndChar

StartChar: backslash
Encoding: 92 92 63
Width: 540
GlyphClass: 2
Flags: W
HStem: 710 20G<101 147.422>
DStem2: 141 730 101 730 0.305743 -0.952114<0 962.444>
LayerCount: 2
Fore
SplineSet
439 -198 m 1,0,-1
 399 -198 l 1,1,-1
 101 730 l 1,2,-1
 141 730 l 1,3,-1
 439 -198 l 1,0,-1
EndSplineSet
Validated: 1
EndChar

StartChar: bracketright
Encoding: 93 93 64
Width: 540
GlyphClass: 2
Flags: W
HStem: -198 26<177.923 217> 704 26<177.923 217>
VStem: 293 72<-155.869 687.869>
LayerCount: 2
Fore
SplineSet
365 -186 m 1,0,-1
 179 -198 l 1,1,-1
 175 -172 l 1,2,-1
 271 -156 l 2,3,4
 293 -152 293 -152 293 -124 c 2,5,-1
 293 656 l 2,6,7
 293 684 293 684 271 688 c 2,8,-1
 175 704 l 1,9,-1
 179 730 l 1,10,-1
 365 718 l 1,11,-1
 365 -186 l 1,0,-1
EndSplineSet
Validated: 1
EndChar

StartChar: asciicircum
Encoding: 94 94 65
Width: 540
GlyphClass: 2
Flags: W
DStem2: 42 336 90 336 0.534168 0.845379<25.6401 364.637> 272 700 272 622 0.527479 -0.849568<66.2663 403.134>
LayerCount: 2
Fore
SplineSet
42 336 m 1,0,-1
 272 700 l 1,1,-1
 498 336 l 1,2,-1
 450 336 l 1,3,-1
 272 622 l 1,4,-1
 90 336 l 1,5,-1
 42 336 l 1,0,-1
EndSplineSet
Validated: 1
EndChar

StartChar: underscore
Encoding: 95 95 66
Width: 540
GlyphClass: 2
Flags: W
HStem: -158 40<10 530>
LayerCount: 2
Fore
SplineSet
10 -158 m 1,0,-1
 10 -118 l 1,1,-1
 530 -118 l 1,2,-1
 530 -158 l 1,3,-1
 10 -158 l 1,0,-1
EndSplineSet
Validated: 1
EndChar

StartChar: grave
Encoding: 715 715 67
AltUni2: 000060.ffffffff.0
Width: 540
GlyphClass: 2
Flags: W
HStem: 508 176
VStem: 185.5 169
LayerCount: 2
Fore
SplineSet
213.5 684 m 0,0,1
 239.5 684 239.5 684 262.5 652 c 2,2,-1
 354.5 519 l 1,3,-1
 341.5 508 l 1,4,-1
 213.5 609 l 2,5,6
 185.5 630 185.5 630 185.5 653 c 0,7,8
 185.5 684 185.5 684 213.5 684 c 0,0,1
EndSplineSet
Validated: 1
EndChar

StartChar: a
Encoding: 97 97 68
Width: 540
GlyphClass: 2
Flags: W
HStem: -12 36<168.638 273.333 446.271 495.104> 284 78<148.127 198.273> 444 24<185.947 314.329>
VStem: 66 84<39.123 179.1> 98 47<334 416.013> 366 72<31.4771 84 109.185 245 266 402.018> 516 18<64.5815 130>
DStem2: 246 249 252 226 0.990114 0.140266<-52.5906 118.253>
LayerCount: 2
Fore
SplineSet
150 103 m 0,0,1
 150 24 150 24 217 24 c 0,2,3
 246 24 246 24 269 36 c 0,4,5
 329 66 329 66 366 150 c 1,6,-1
 366 245 l 1,7,-1
 252 226 l 2,8,9
 195 216 195 216 172 186 c 0,10,11
 150 156 150 156 150 103 c 0,0,1
66 106 m 0,12,13
 66 137 66 137 78 161.5 c 128,-1,14
 90 186 90 186 105.5 200 c 128,-1,15
 121 214 121 214 148 225 c 128,-1,16
 175 236 175 236 194 240 c 0,17,18
 216 245 216 245 246 249 c 2,19,-1
 366 266 l 1,20,-1
 366 351 l 2,21,22
 366 444 366 444 245 444 c 0,23,24
 204 444 204 444 174.5 426.5 c 128,-1,25
 145 409 145 409 145 387 c 0,26,27
 145 377 145 377 148 372 c 0,28,29
 152 364 152 364 163 362 c 0,30,31
 203 352 203 352 203 323 c 0,32,33
 203 284 203 284 156 284 c 0,34,35
 134 284 134 284 116 301 c 128,-1,36
 98 318 98 318 98 350 c 0,37,38
 98 405 98 405 141 436.5 c 128,-1,39
 184 468 184 468 248 468 c 0,40,41
 327 468 327 468 382.5 433.5 c 128,-1,42
 438 399 438 399 438 326 c 2,43,-1
 438 80 l 2,44,45
 438 30 438 30 469 30 c 0,46,47
 516 30 516 30 516 130 c 1,48,-1
 534 130 l 1,49,50
 534 -12 534 -12 454 -12 c 0,51,52
 370 -12 370 -12 366 84 c 1,53,-1
 360 86 l 1,54,55
 342 51 342 51 297 19.5 c 128,-1,56
 252 -12 252 -12 198 -12 c 0,57,58
 143 -12 143 -12 104.5 14 c 128,-1,59
 66 40 66 40 66 106 c 0,12,13
EndSplineSet
Validated: 1
EndChar

StartChar: b
Encoding: 98 98 69
Width: 540
GlyphClass: 2
Flags: W
HStem: -12 24<241.955 345.507> 0 21G<82.1992 107.028> 444 24<251.556 345.233> 688 24<8.19922 80.647>
VStem: 82.1992 72<86.4172 350.967 392 688> 403.801 88<108.345 351.103>
AnchorPoint: "Bottom" 278.9 0 basechar 0
LayerCount: 2
Fore
SplineSet
300.599609375 12 m 4,0,1
 358.19921875 12 358.19921875 12 381 68.5 c 132,-1,2
 403.80078125 125 403.80078125 125 403.80078125 228 c 260,3,4
 403.80078125 331 403.80078125 331 381 387.5 c 132,-1,5
 358.19921875 444 358.19921875 444 300.599609375 444 c 4,6,7
 244.19921875 444 244.19921875 444 199.19921875 387.5 c 132,-1,8
 154.19921875 331 154.19921875 331 154.19921875 262 c 6,9,-1
 154.19921875 169 l 6,10,11
 154.19921875 108 154.19921875 108 194.400390625 60 c 132,-1,12
 234.599609375 12 234.599609375 12 300.599609375 12 c 4,0,1
82.19921875 0 m 5,13,-1
 82.19921875 666 l 6,14,15
 82.19921875 688 82.19921875 688 60.19921875 688 c 6,16,-1
 8.19921875 688 l 5,17,-1
 8.19921875 712 l 5,18,-1
 154.19921875 712 l 5,19,-1
 154.19921875 392 l 5,20,-1
 161.400390625 390 l 5,21,22
 185.400390625 423 185.400390625 423 224.400390625 445.5 c 132,-1,23
 263.400390625 468 263.400390625 468 303 468 c 4,24,25
 397.80078125 468 397.80078125 468 444.80078125 399 c 132,-1,26
 491.80078125 330 491.80078125 330 491.80078125 228 c 260,27,28
 491.80078125 126 491.80078125 126 442.400390625 57 c 132,-1,29
 393 -12 393 -12 298.19921875 -12 c 4,30,31
 193.80078125 -12 193.80078125 -12 132.19921875 84 c 5,32,-1
 128.19921875 82 l 5,33,-1
 100.19921875 0 l 5,34,-1
 82.19921875 0 l 5,13,-1
EndSplineSet
Validated: 1
EndChar

StartChar: c
Encoding: 99 99 70
Width: 540
GlyphClass: 2
Flags: W
HStem: -12 24<225.646 352.639> 271 90<360.708 403.321> 444 24<226.298 354.79>
VStem: 68.7998 88<116.515 339.485> 404 52<321.5 402.788> 447.2 24<112.908 156>
AnchorPoint: "Bottom" 278.7 0 basechar 0
AnchorPoint: "Top" 296.7 508 basechar 0
LayerCount: 2
Fore
SplineSet
286.400390625 -12 m 0,0,1
 182 -12 182 -12 125.400390625 57.5 c 128,-1,2
 68.7998046875 127 68.7998046875 127 68.7998046875 228 c 256,3,4
 68.7998046875 329 68.7998046875 329 126 398.5 c 128,-1,5
 183.200195312 468 183.200195312 468 286.400390625 468 c 0,6,7
 368 468 368 468 412 427.5 c 128,-1,8
 456 387 456 387 456 337 c 0,9,10
 456 306 456 306 440 288.5 c 128,-1,11
 424 271 424 271 400.400390625 271 c 0,12,13
 376.400390625 271 376.400390625 271 360.200195312 284 c 128,-1,14
 344 297 344 297 344 315 c 0,15,16
 344 350 344 350 384.799804688 361 c 0,17,18
 404 366 404 366 404 379 c 0,19,20
 404 399 404 399 374 421.5 c 128,-1,21
 344 444 344 444 286.400390625 444 c 0,22,23
 210.799804688 444 210.799804688 444 183.799804688 390 c 128,-1,24
 156.799804688 336 156.799804688 336 156.799804688 228 c 256,25,26
 156.799804688 120 156.799804688 120 183.200195312 66 c 128,-1,27
 209.600585938 12 209.600585938 12 286.400390625 12 c 0,28,29
 359.600585938 12 359.600585938 12 399.200195312 55 c 128,-1,30
 438.799804688 98 438.799804688 98 447.200195312 156 c 1,31,-1
 471.200195312 156 l 1,32,33
 467.200195312 91 467.200195312 91 420 39.5 c 128,-1,34
 372.799804688 -12 372.799804688 -12 286.400390625 -12 c 0,0,1
EndSplineSet
Validated: 1
EndChar

StartChar: d
Encoding: 100 100 71
Width: 540
GlyphClass: 2
Flags: W
HStem: -12 24<194.493 298.641> 0 24<459.353 531.801> 444 24<194.767 288.444> 688 24<273 383.938>
VStem: 48.1992 88<108.345 351.103> 385.801 72<24 42 86.4172 350.967 392 687.807>
AnchorPoint: "Bottom" 244.9 0 basechar 0
LayerCount: 2
Fore
SplineSet
239.400390625 12 m 0,0,1
 305.400390625 12 305.400390625 12 345.599609375 60 c 128,-1,2
 385.80078125 108 385.80078125 108 385.80078125 169 c 2,3,-1
 385.80078125 262 l 2,4,5
 385.80078125 331 385.80078125 331 340.80078125 387.5 c 128,-1,6
 295.80078125 444 295.80078125 444 239.400390625 444 c 0,7,8
 181.80078125 444 181.80078125 444 159 387.5 c 128,-1,9
 136.19921875 331 136.19921875 331 136.19921875 228 c 256,10,11
 136.19921875 125 136.19921875 125 159 68.5 c 128,-1,12
 181.80078125 12 181.80078125 12 239.400390625 12 c 0,0,1
385.80078125 0 m 1,13,-1
 385.80078125 42 l 1,14,-1
 379.80078125 45 l 1,15,16
 321 -12 321 -12 241.80078125 -12 c 0,17,18
 147 -12 147 -12 97.599609375 57 c 128,-1,19
 48.19921875 126 48.19921875 126 48.19921875 228 c 256,20,21
 48.19921875 330 48.19921875 330 95.19921875 399 c 128,-1,22
 142.19921875 468 142.19921875 468 237 468 c 0,23,24
 276.599609375 468 276.599609375 468 315.599609375 445.5 c 128,-1,25
 354.599609375 423 354.599609375 423 378.599609375 390 c 1,26,-1
 385.80078125 392 l 1,27,-1
 385.80078125 666 l 2,28,29
 385.80078125 688 385.80078125 688 359.400390625 688 c 2,30,-1
 273 688 l 1,31,-1
 273 712 l 1,32,-1
 457.80078125 712 l 1,33,-1
 457.80078125 46 l 2,34,35
 457.80078125 24 457.80078125 24 479.80078125 24 c 2,36,-1
 531.80078125 24 l 1,37,-1
 531.80078125 0 l 1,38,-1
 385.80078125 0 l 1,13,-1
EndSplineSet
Validated: 1
EndChar

StartChar: e
Encoding: 101 101 72
Width: 540
GlyphClass: 2
Flags: W
HStem: -12 24<228.278 365.976> 224 28<147.5 394.94> 444 24<221.66 323.884>
VStem: 59.5 88<113.295 224 252 340.617> 394.94 86<252 345.505> 446.94 24<102.307 156>
AnchorPoint: "Bottom" 277.9 0 basechar 0
AnchorPoint: "Top" 277.9 508 basechar 0
LayerCount: 2
Fore
SplineSet
147.5 252 m 1,0,-1
 394.940429688 252 l 1,1,2
 394.940429688 288 394.940429688 288 388.940429688 320 c 128,-1,3
 382.940429688 352 382.940429688 352 370.8203125 381 c 128,-1,4
 358.700195312 410 358.700195312 410 333.1640625 427 c 128,-1,5
 307.62890625 444 307.62890625 444 272.684570312 444 c 256,6,7
 237.740234375 444 237.740234375 444 212.204101562 427 c 128,-1,8
 186.66796875 410 186.66796875 410 173.083984375 381 c 128,-1,9
 159.5 352 159.5 352 153.5 319.5 c 128,-1,10
 147.5 287 147.5 287 147.5 252 c 1,0,-1
59.5 228 m 0,11,12
 59.5 290 59.5 290 82.5 344 c 128,-1,13
 105.5 398 105.5 398 154.8203125 433 c 128,-1,14
 204.139648438 468 204.139648438 468 278.059570312 468 c 0,15,16
 326.444335938 468 326.444335938 468 363.692382812 453 c 128,-1,17
 400.940429688 438 400.940429688 438 420.940429688 413 c 128,-1,18
 440.940429688 388 440.940429688 388 454.940429688 356 c 128,-1,19
 468.940429688 324 468.940429688 324 474.940429688 291 c 128,-1,20
 480.940429688 258 480.940429688 258 480.940429688 224 c 1,21,-1
 147.5 224 l 1,22,23
 147.5 175 147.5 175 153.5 138.5 c 128,-1,24
 159.5 102 159.5 102 174.428710938 72.5 c 128,-1,25
 189.356445312 43 189.356445312 43 220.268554688 27.5 c 128,-1,26
 251.1796875 12 251.1796875 12 296.876953125 12 c 0,27,28
 323.756835938 12 323.756835938 12 347.948242188 18 c 128,-1,29
 372.140625 24 372.140625 24 393.540039062 39 c 128,-1,30
 414.940429688 54 414.940429688 54 428.440429688 84 c 128,-1,31
 441.940429688 114 441.940429688 114 446.940429688 156 c 1,32,-1
 470.940429688 156 l 1,33,34
 464.940429688 82 464.940429688 82 425.140625 35 c 128,-1,35
 385.340820312 -12 385.340820312 -12 294.188476562 -12 c 0,36,37
 173.900390625 -12 173.900390625 -12 116.700195312 55 c 128,-1,38
 59.5 122 59.5 122 59.5 228 c 0,11,12
EndSplineSet
Validated: 1
EndChar

StartChar: f
Encoding: 102 102 73
Width: 540
GlyphClass: 2
Flags: W
HStem: 0 24<16.5996 148.047 223.462 384.4> 428 28<55.5996 149.6 221.6 454.4> 696 24<323.877 463.453>
VStem: 149.6 72<24.1934 428 456 618.879> 471.4 54<605 684.987>
LayerCount: 2
Fore
SplineSet
16.599609375 0 m 1,0,-1
 16.599609375 24 l 1,1,-1
 127.599609375 24 l 2,2,3
 149.599609375 24 149.599609375 24 149.599609375 46 c 2,4,-1
 149.599609375 428 l 1,5,-1
 55.599609375 428 l 1,6,-1
 55.599609375 456 l 1,7,-1
 149.599609375 456 l 1,8,-1
 149.599609375 525 l 2,9,10
 149.599609375 646.3828125 149.599609375 646.3828125 250.400390625 692.5 c 0,11,12
 310.508789062 720 310.508789062 720 422.400390625 720 c 0,13,14
 465.400390625 720 465.400390625 720 495.400390625 693.5 c 128,-1,15
 525.400390625 667 525.400390625 667 525.400390625 618 c 0,16,17
 525.400390625 592 525.400390625 592 512.900390625 577 c 128,-1,18
 500.400390625 562 500.400390625 562 478.400390625 562 c 0,19,20
 460.400390625 562 460.400390625 562 448.900390625 573.5 c 128,-1,21
 437.400390625 585 437.400390625 585 437.400390625 604 c 0,22,23
 437.400390625 629.875 437.400390625 629.875 455.400390625 640 c 0,24,25
 471.400390625 649 471.400390625 649 471.400390625 664 c 0,26,27
 471.400390625 696 471.400390625 696 420.400390625 696 c 0,28,29
 221.599609375 696 221.599609375 696 221.599609375 553 c 2,30,-1
 221.599609375 456 l 1,31,-1
 454.400390625 456 l 1,32,-1
 454.400390625 428 l 1,33,-1
 221.599609375 428 l 1,34,-1
 221.599609375 46 l 2,35,36
 221.599609375 24 221.599609375 24 248 24 c 2,37,-1
 384.400390625 24 l 1,38,-1
 384.400390625 0 l 1,39,-1
 16.599609375 0 l 1,0,-1
EndSplineSet
Validated: 1
EndChar

StartChar: g
Encoding: 103 103 74
Width: 540
GlyphClass: 2
Flags: W
HStem: -238 24<173.321 386.87> -26 66<127.852 449.193> 140 24<193.87 279.477> 444 24<193.381 280.461 407.928 449.964>
VStem: 32.4004 56<-170.19 -64.7203> 42.4004 40<47.2583 107.577> 50.4004 88<219.704 386.594> 334.6 88<221.738 386.359> 450.6 47.0001<370.038 443.738> 462.6 53<-165.443 -38.2315>
AnchorPoint: "Top" 242 508 basechar 0
LayerCount: 2
Fore
SplineSet
32.400390625 -122 m 0,0,1
 32.400390625 -85 32.400390625 -85 61.400390625 -57 c 128,-1,2
 90.400390625 -29 90.400390625 -29 130.400390625 -23 c 1,3,-1
 130.400390625 -20 l 1,4,5
 42.400390625 -1 42.400390625 -1 42.400390625 54 c 0,6,7
 42.400390625 95 42.400390625 95 73.900390625 118.5 c 128,-1,8
 105.400390625 142 105.400390625 142 155.599609375 150 c 1,9,-1
 155.599609375 153 l 1,10,11
 50.400390625 196 50.400390625 196 50.400390625 304 c 0,12,13
 50.400390625 380 50.400390625 380 105.400390625 424 c 128,-1,14
 160.400390625 468 160.400390625 468 238 468 c 0,15,16
 275.400390625 468 275.400390625 468 321.5 449 c 128,-1,17
 367.599609375 430 367.599609375 430 377.599609375 416 c 1,18,19
 386.599609375 442 386.599609375 442 401.599609375 455 c 128,-1,20
 416.599609375 468 416.599609375 468 436.599609375 468 c 0,21,22
 460.599609375 468 460.599609375 468 479.099609375 448 c 128,-1,23
 497.599727334 427.999872477 497.599727334 427.999872477 497.599727334 395.822567806 c 0,24,25
 497.599727334 341.338898417 497.599727334 341.338898417 456.689178583 341.338898417 c 0,26,27
 425.599609375 341.338898417 425.599609375 341.338898417 425.599609375 378 c 0,28,29
 425.599609375 400 425.599609375 400 442.599609375 410 c 0,30,31
 450.599609375 415.08984375 450.599609375 415.08984375 450.599609375 428 c 0,32,33
 450.599609375 444 450.599609375 444 433.599609375 444 c 0,34,35
 415.599609375 444 415.599609375 444 406.099609375 429.5 c 128,-1,36
 396.599609375 415 396.599609375 415 394.599609375 396 c 1,37,38
 422.599609375 357 422.599609375 357 422.599609375 304 c 0,39,40
 422.599609375 229 422.599609375 229 368.799804688 184.5 c 128,-1,41
 315 140 315 140 238 140 c 0,42,43
 179.599609375 140 179.599609375 140 131 124.5 c 128,-1,44
 82.400390625 109 82.400390625 109 82.400390625 73 c 0,45,46
 82.400390625 40 82.400390625 40 149.599609375 40 c 0,47,48
 174.799804688 40 174.799804688 40 190.400390625 41 c 0,49,50
 204.799804688 42 204.799804688 42 217.599609375 42 c 2,51,-1
 358.200195312 42 l 2,52,53
 424.599609375 42 424.599609375 42 470.099609375 7.5 c 128,-1,54
 515.599609375 -27 515.599609375 -27 515.599609375 -94 c 0,55,56
 515.599609375 -164 515.599609375 -164 453.599609375 -201 c 128,-1,57
 391.599609375 -238 391.599609375 -238 262 -238 c 0,58,59
 166.400390625 -238 166.400390625 -238 99.400390625 -210 c 128,-1,60
 32.400390625 -182 32.400390625 -182 32.400390625 -122 c 0,0,1
138.400390625 304 m 256,61,62
 138.400390625 238 138.400390625 238 165.600097656 201 c 128,-1,63
 192.799804688 164 192.799804688 164 238 164 c 256,64,65
 280.200195312 164 280.200195312 164 307.399902344 201 c 128,-1,66
 334.599609375 238 334.599609375 238 334.599609375 304 c 256,67,68
 334.599609375 370 334.599609375 370 307.399902344 407 c 128,-1,69
 280.200195312 444 280.200195312 444 238 444 c 256,70,71
 192.799804688 444 192.799804688 444 165.600097656 407 c 128,-1,72
 138.400390625 370 138.400390625 370 138.400390625 304 c 256,61,62
88.400390625 -120 m 0,73,74
 88.400390625 -167 88.400390625 -167 140.600097656 -190.5 c 128,-1,75
 192.799804688 -214 192.799804688 -214 262 -214 c 0,76,77
 333 -214 333 -214 373.799804688 -205.5 c 128,-1,78
 414.599609375 -197 414.599609375 -197 438.599609375 -170.5 c 128,-1,79
 462.599609375 -144 462.599609375 -144 462.599609375 -102 c 0,80,81
 462.599609375 -71 462.599609375 -71 450.099609375 -48.5 c 128,-1,82
 437.599609375 -26 437.599609375 -26 391.599609375 -26 c 2,83,-1
 245.200195312 -26 l 2,84,85
 207.200195312 -26 207.200195312 -26 167.800292969 -33.5 c 128,-1,86
 128.400390625 -41 128.400390625 -41 108.400390625 -63 c 128,-1,87
 88.400390625 -85 88.400390625 -85 88.400390625 -120 c 0,73,74
EndSplineSet
Validated: 1
EndChar

StartChar: h
Encoding: 104 104 75
Width: 540
GlyphClass: 2
Flags: W
HStem: 0 24<8.19922 84.647 160.062 235 319 393.938 469.353 531.801> 439 29<265.468 365.981> 688 24<8.19922 84.647>
VStem: 86.1992 72<24.1934 338.557 364 688> 395.801 72<24.1934 414>
AnchorPoint: "Bottom" 274.6 0 basechar 0
AnchorPoint: "Top" 252.6 752 basechar 0
LayerCount: 2
Fore
SplineSet
8.19921875 0 m 1,0,-1
 8.19921875 24 l 1,1,-1
 64.19921875 24 l 2,2,3
 86.19921875 24 86.19921875 24 86.19921875 46 c 2,4,-1
 86.19921875 666 l 2,5,6
 86.19921875 688 86.19921875 688 64.19921875 688 c 2,7,-1
 8.19921875 688 l 1,8,-1
 8.19921875 712 l 1,9,-1
 158.19921875 712 l 1,10,-1
 158.19921875 364 l 1,11,-1
 163 363 l 1,12,13
 194.19921875 413 194.19921875 413 238 440.5 c 128,-1,14
 281.80078125 468 281.80078125 468 329.80078125 468 c 0,15,16
 389.80078125 468 389.80078125 468 421.80078125 442 c 0,17,18
 467.80078125 405 467.80078125 405 467.80078125 319 c 2,19,-1
 467.80078125 46 l 2,20,21
 467.80078125 24 467.80078125 24 489.80078125 24 c 2,22,-1
 531.80078125 24 l 1,23,-1
 531.80078125 0 l 1,24,-1
 319 0 l 1,25,-1
 319 24 l 1,26,-1
 369.400390625 24 l 2,27,28
 395.80078125 24 395.80078125 24 395.80078125 46 c 2,29,-1
 395.80078125 339 l 2,30,31
 395.80078125 439 395.80078125 439 319 439 c 4,32,33
 265 439 265 439 211.599609375 381.5 c 132,-1,34
 158.19921875 324 158.19921875 324 158.19921875 254 c 2,35,-1
 158.19921875 46 l 2,36,37
 158.19921875 24 158.19921875 24 184.599609375 24 c 2,38,-1
 235 24 l 1,39,-1
 235 0 l 1,40,-1
 8.19921875 0 l 1,0,-1
EndSplineSet
Validated: 1
EndChar

StartChar: i
Encoding: 105 105 76
Width: 540
GlyphClass: 2
Flags: W
HStem: 0 24<40 232.448 307.552 500> 432 24<70 232.448> 580 104<234.47 307.53>
VStem: 219 104<595.47 668.53> 234 72<24 432>
AnchorPoint: "Bottom" 321 0 basechar 0
LayerCount: 2
Fore
SplineSet
40 0 m 5,0,-1
 40 24 l 5,1,-1
 212 24 l 2,2,3
 234 24 234 24 234 46 c 2,4,-1
 234 410 l 2,5,6
 234 432 234 432 212 432 c 2,7,-1
 70 432 l 1,8,-1
 70 456 l 1,9,-1
 306 456 l 1,10,-1
 306 46 l 2,11,12
 306 24 306 24 328 24 c 2,13,-1
 500 24 l 1,14,-1
 500 0 l 1,15,-1
 40 0 l 5,0,-1
EndSplineSet
Refer: 166 729 N 1 0 0 1 51 36 2
Validated: 1
Colour: ffff
EndChar

StartChar: j
Encoding: 106 106 77
Width: 540
GlyphClass: 2
Flags: W
HStem: -238 24<167.696 290.165> 432 24<77 329.448> 580 104<324.47 397.53>
VStem: 37 53<-163.016 -83> 309 104<595.47 668.53> 331 72<-155.02 432>
LayerCount: 2
Fore
SplineSet
77 432 m 1,0,-1
 77 456 l 1,1,-1
 403 456 l 1,2,-1
 403 -43 l 2,3,4
 403 -142 403 -142 357 -190 c 0,5,6
 311 -238 311 -238 250 -238 c 0,7,8
 142 -238 142 -238 67 -172 c 0,9,10
 37 -146 37 -146 37 -96 c 0,11,12
 37 -70 37 -70 50 -55 c 0,13,14
 62 -40 62 -40 82 -40 c 0,15,16
 102 -40 102 -40 114 -52 c 0,17,18
 125 -63 125 -63 125 -82 c 0,19,20
 125 -107 125 -107 108 -118 c 0,21,22
 90 -128 90 -128 90 -137 c 0,23,24
 90 -140 90 -140 91 -142 c 0,25,26
 131 -214 131 -214 252 -214 c 0,27,-1
 253 -214 l 0,28,29
 331 -214 331 -214 331 -71 c 2,30,-1
 331 410 l 2,31,32
 331 432 331 432 309 432 c 2,33,-1
 77 432 l 1,0,-1
EndSplineSet
Refer: 166 729 N 1 0 0 1 141 36 2
Validated: 1
Colour: ffff
EndChar

StartChar: k
Encoding: 107 107 78
Width: 540
GlyphClass: 2
Flags: W
HStem: 0 24<28.5996 101.047 176.462 239.4 299.4 350.917 459.202 511.4> 432 24<287.4 345.74 416.718 493.4> 688 24<28.5996 101.047>
VStem: 102.6 72<24.1934 164 203 688>
DStem2: 174.6 203 174.6 164 0.684495 0.729018<0 50.1782> 287.4 278 229.801 220 0.578491 -0.815689<13.9891 228.088>
AnchorPoint: "Bottom" 294.301 0 basechar 0
LayerCount: 2
Fore
SplineSet
28.599609375 0 m 1,0,-1
 28.599609375 24 l 1,1,-1
 80.599609375 24 l 2,2,3
 102.599609375 24 102.599609375 24 102.599609375 46 c 2,4,-1
 102.599609375 666 l 2,5,6
 102.599609375 688 102.599609375 688 80.599609375 688 c 2,7,-1
 28.599609375 688 l 1,8,-1
 28.599609375 712 l 1,9,-1
 174.599609375 712 l 1,10,-1
 174.599609375 203 l 1,11,-1
 331.400390625 370 l 2,12,13
 349.400390625 392 349.400390625 392 349.400390625 406 c 0,14,15
 349.400390625 432 349.400390625 432 315.400390625 432 c 2,16,-1
 287.400390625 432 l 1,17,-1
 287.400390625 456 l 1,18,-1
 493.400390625 456 l 1,19,-1
 493.400390625 432 l 1,20,-1
 461.400390625 432 l 2,21,22
 434.400390625 432 434.400390625 432 413.400390625 418 c 128,-1,23
 392.400390625 404 392.400390625 404 365.400390625 371 c 2,24,-1
 287.400390625 278 l 1,25,-1
 445.400390625 56 l 2,26,27
 452.400390625 46 452.400390625 46 456.900390625 39 c 128,-1,28
 461.400390625 32 461.400390625 32 469.400390625 28 c 128,-1,29
 477.400390625 24 477.400390625 24 491.400390625 24 c 2,30,-1
 511.400390625 24 l 1,31,-1
 511.400390625 0 l 1,32,-1
 299.400390625 0 l 1,33,-1
 299.400390625 24 l 1,34,-1
 325.400390625 24 l 2,35,36
 352.400390625 24 352.400390625 24 352.400390625 44 c 0,37,38
 352.400390625 59 352.400390625 59 338.400390625 80 c 2,39,-1
 229.80078125 220 l 1,40,-1
 174.599609375 164 l 1,41,-1
 174.599609375 46 l 2,42,43
 174.599609375 24 174.599609375 24 201 24 c 2,44,-1
 239.400390625 24 l 1,45,-1
 239.400390625 0 l 1,46,-1
 28.599609375 0 l 1,0,-1
EndSplineSet
Validated: 1
EndChar

StartChar: l
Encoding: 108 108 79
Width: 540
GlyphClass: 2
Flags: W
HStem: 0 24<29.2002 232.137 307.863 510.8> 688 24<59.2002 232.137>
VStem: 234 72<24.1934 687.807>
AnchorPoint: "Bottom" 291.2 0 basechar 0
AnchorPoint: "Top" 291.2 752 basechar 0
LayerCount: 2
Fore
SplineSet
29.2001953125 0 m 1,0,-1
 29.2001953125 24 l 1,1,-1
 207.600585938 24 l 2,2,3
 234 24 234 24 234 46 c 2,4,-1
 234 666 l 2,5,6
 234 688 234 688 207.600585938 688 c 2,7,-1
 59.2001953125 688 l 1,8,-1
 59.2001953125 712 l 1,9,-1
 306 712 l 1,10,-1
 306 46 l 2,11,12
 306 24 306 24 332.400390625 24 c 2,13,-1
 510.799804688 24 l 1,14,-1
 510.799804688 0 l 1,15,-1
 29.2001953125 0 l 1,0,-1
EndSplineSet
Validated: 1
EndChar

StartChar: m
Encoding: 109 109 80
Width: 540
GlyphClass: 2
Flags: W
HStem: 0 24<6 54.4478 129.834 165 199 244.166 319.905 355 389 434.166 509.552 548> 432 24<6 54.4478> 444 30<181.288 228.314 376.777 465>
VStem: 56 72<24.1934 404.989 408 432> 246 72<24.2632 390.664> 436 72<24.1934 432.79>
CounterMasks: 1 1c
LayerCount: 2
Fore
SplineSet
6 0 m 1,0,-1
 6 24 l 1,1,-1
 34 24 l 2,2,3
 56 24 56 24 56 46 c 2,4,-1
 56 410 l 2,5,6
 56 432 56 432 34 432 c 2,7,-1
 6 432 l 1,8,-1
 6 456 l 1,9,-1
 128 456 l 1,10,-1
 128 408 l 1,11,-1
 133 407 l 1,12,13
 176 474 176 474 226 474 c 0,14,15
 297 474 297 474 314 388 c 1,16,-1
 318 387 l 1,17,18
 364 474 364 474 422 474 c 0,19,20
 508 474 508 474 508 319 c 2,21,-1
 508 46 l 2,22,23
 508 24 508 24 530 24 c 2,24,-1
 548 24 l 1,25,-1
 548 0 l 1,26,-1
 389 0 l 1,27,-1
 389 24 l 1,28,-1
 410 24 l 2,29,30
 436 24 436 24 436 46 c 2,31,-1
 436 339 l 2,32,33
 436 440.46493756 436 440.46493756 397.402386865 440.46493756 c 0,34,35
 394.78962536 440.46493756 394.78962536 440.46493756 392 440 c 0,36,37
 318 422.999023438 318 422.999023438 318 254 c 2,38,-1
 318 46 l 2,39,40
 318 24 318 24 345 24 c 2,41,-1
 355 24 l 1,42,-1
 355 0 l 1,43,-1
 199 0 l 1,44,-1
 199 24 l 1,45,-1
 220 24 l 2,46,47
 246 24 246 24 246 46 c 2,48,-1
 246 339 l 2,49,50
 246 444 246 444 201 444 c 0,51,52
 128 444 128 444 128 254 c 2,53,-1
 128 46 l 2,54,55
 128 24 128 24 154 24 c 2,56,-1
 165 24 l 1,57,-1
 165 0 l 1,58,-1
 6 0 l 1,0,-1
EndSplineSet
Validated: 1
EndChar

StartChar: n
Encoding: 110 110 81
Width: 540
GlyphClass: 2
Flags: W
HStem: 0 24<15.2002 77.6479 153.063 228 312 386.937 462.352 524.8> 432 24<15.2002 77.6479> 439 29<258.468 358.98>
VStem: 79.2002 72<24.1934 338.557 364 432> 388.8 72<24.1934 414>
AnchorPoint: "Bottom" 263.7 0 basechar 0
AnchorPoint: "Top" 263.7 508 basechar 0
LayerCount: 2
Fore
SplineSet
15.2001953125 0 m 1,0,-1
 15.2001953125 24 l 1,1,-1
 57.2001953125 24 l 2,2,3
 79.2001953125 24 79.2001953125 24 79.2001953125 46 c 2,4,-1
 79.2001953125 410 l 2,5,6
 79.2001953125 432 79.2001953125 432 57.2001953125 432 c 2,7,-1
 15.2001953125 432 l 1,8,-1
 15.2001953125 456 l 1,9,-1
 151.200195312 456 l 1,10,-1
 151.200195312 364 l 1,11,-1
 156 363 l 1,12,13
 187.200195312 413 187.200195312 413 231 440.5 c 128,-1,14
 274.799804688 468 274.799804688 468 322.799804688 468 c 0,15,16
 382.799804688 468 382.799804688 468 414.799804688 442 c 0,17,18
 460.799804688 405 460.799804688 405 460.799804688 319 c 2,19,-1
 460.799804688 46 l 2,20,21
 460.799804688 24 460.799804688 24 482.799804688 24 c 2,22,-1
 524.799804688 24 l 1,23,-1
 524.799804688 0 l 1,24,-1
 312 0 l 1,25,-1
 312 24 l 1,26,-1
 362.400390625 24 l 2,27,28
 388.799804688 24 388.799804688 24 388.799804688 46 c 2,29,-1
 388.799804688 339 l 2,30,31
 388.799804688 439 388.799804688 439 312 439 c 0,32,33
 258 439 258 439 204.600585938 381.5 c 128,-1,34
 151.200195312 324 151.200195312 324 151.200195312 254 c 2,35,-1
 151.200195312 46 l 2,36,37
 151.200195312 24 151.200195312 24 177.600585938 24 c 2,38,-1
 228 24 l 1,39,-1
 228 0 l 1,40,-1
 15.2001953125 0 l 1,0,-1
EndSplineSet
Validated: 1
EndChar

StartChar: o
Encoding: 111 111 82
Width: 540
GlyphClass: 2
Flags: W
HStem: -12 24<215.423 324.577> 444 24<215.423 324.577>
VStem: 47.5996 88<122.035 333.965> 404.4 88<122.035 333.965>
AnchorPoint: "Bottom" 268.6 0 basechar 0
AnchorPoint: "Top" 268.6 508 basechar 0
LayerCount: 2
Fore
SplineSet
270 12 m 256,0,1
 404.400390625 12 404.400390625 12 404.400390625 228 c 256,2,3
 404.400390625 444 404.400390625 444 270 444 c 256,4,5
 135.599609375 444 135.599609375 444 135.599609375 228 c 256,6,7
 135.599609375 12 135.599609375 12 270 12 c 256,0,1
270 -12 m 256,8,9
 169.19921875 -12 169.19921875 -12 108.400390625 58.5 c 128,-1,10
 47.599609375 129 47.599609375 129 47.599609375 228 c 256,11,12
 47.599609375 327 47.599609375 327 108.400390625 397.5 c 128,-1,13
 169.19921875 468 169.19921875 468 270 468 c 256,14,15
 370.80078125 468 370.80078125 468 431.599609375 397.5 c 128,-1,16
 492.400390625 327 492.400390625 327 492.400390625 228 c 256,17,18
 492.400390625 129 492.400390625 129 431.599609375 58.5 c 128,-1,19
 370.80078125 -12 370.80078125 -12 270 -12 c 256,8,9
EndSplineSet
Validated: 1
EndChar

StartChar: p
Encoding: 112 112 83
Width: 540
GlyphClass: 2
Flags: W
HStem: -230 24<1.19922 73.647 149.062 236> -12 24<234.359 338.507> 432 24<1.19922 73.647> 444 24<244.556 338.233>
VStem: 75.1992 72<-205.807 42 86.4172 350.967 392 432> 396.801 88<108.345 351.103>
AnchorPoint: "Top" 255.9 508 basechar 0
LayerCount: 2
Fore
SplineSet
293.599609375 12 m 0,0,1
 351.19921875 12 351.19921875 12 374 68.5 c 128,-1,2
 396.80078125 125 396.80078125 125 396.80078125 228 c 256,3,4
 396.80078125 331 396.80078125 331 374 387.5 c 128,-1,5
 351.19921875 444 351.19921875 444 293.599609375 444 c 0,6,7
 237.19921875 444 237.19921875 444 192.19921875 387.5 c 128,-1,8
 147.19921875 331 147.19921875 331 147.19921875 262 c 2,9,-1
 147.19921875 169 l 2,10,11
 147.19921875 108 147.19921875 108 187.400390625 60 c 128,-1,12
 227.599609375 12 227.599609375 12 293.599609375 12 c 0,0,1
1.19921875 -230 m 1,13,-1
 1.19921875 -206 l 1,14,-1
 53.19921875 -206 l 2,15,16
 75.19921875 -206 75.19921875 -206 75.19921875 -184 c 2,17,-1
 75.19921875 410 l 2,18,19
 75.19921875 432 75.19921875 432 53.19921875 432 c 2,20,-1
 1.19921875 432 l 1,21,-1
 1.19921875 456 l 1,22,-1
 147.19921875 456 l 1,23,-1
 147.19921875 392 l 1,24,-1
 154.400390625 390 l 1,25,26
 178.400390625 423 178.400390625 423 217.400390625 445.5 c 128,-1,27
 256.400390625 468 256.400390625 468 296 468 c 0,28,29
 390.80078125 468 390.80078125 468 437.80078125 399 c 128,-1,30
 484.80078125 330 484.80078125 330 484.80078125 228 c 256,31,32
 484.80078125 126 484.80078125 126 435.400390625 57 c 128,-1,33
 386 -12 386 -12 291.19921875 -12 c 0,34,35
 212 -12 212 -12 153.19921875 45 c 1,36,-1
 147.19921875 42 l 1,37,-1
 147.19921875 -184 l 2,38,39
 147.19921875 -206 147.19921875 -206 173.599609375 -206 c 2,40,-1
 236 -206 l 1,41,-1
 236 -230 l 1,42,-1
 1.19921875 -230 l 1,13,-1
EndSplineSet
Validated: 1
EndChar

StartChar: q
Encoding: 113 113 84
Width: 540
GlyphClass: 2
Flags: W
HStem: -230 24<307 393.938 469.353 541.801> -12 24<204.493 308.641> 436 20G<443.062 467.801> 444 24<204.493 301.013>
VStem: 58.1992 88<107.573 348.427> 395.801 72<-205.807 42 86.4172 358.25>
AnchorPoint: "Top" 264.9 508 basechar 0
LayerCount: 2
Fore
SplineSet
307 -230 m 5,0,-1
 307 -206 l 5,1,-1
 369.400390625 -206 l 6,2,3
 395.80078125 -206 395.80078125 -206 395.80078125 -184 c 6,4,-1
 395.80078125 42 l 5,5,-1
 389.80078125 45 l 5,6,7
 331 -12 331 -12 251.80078125 -12 c 4,8,9
 157 -12 157 -12 107.599609375 57 c 132,-1,10
 58.19921875 126 58.19921875 126 58.19921875 228 c 260,11,12
 58.19921875 330 58.19921875 330 107.599609375 399 c 132,-1,13
 157 468 157 468 251.80078125 468 c 4,14,15
 309.400390625 468 309.400390625 468 351.400390625 436 c 132,-1,16
 393.400390625 404 393.400390625 404 411.80078125 362 c 5,17,-1
 418.80078125 364 l 5,18,-1
 449.80078125 456 l 5,19,-1
 467.80078125 456 l 5,20,-1
 467.80078125 -184 l 6,21,22
 467.80078125 -206 467.80078125 -206 489.80078125 -206 c 6,23,-1
 541.80078125 -206 l 5,24,-1
 541.80078125 -230 l 5,25,-1
 307 -230 l 5,0,-1
249.400390625 12 m 4,26,27
 315.400390625 12 315.400390625 12 355.599609375 60 c 132,-1,28
 395.80078125 108 395.80078125 108 395.80078125 169 c 6,29,-1
 395.80078125 278 l 6,30,31
 395.80078125 337 395.80078125 337 352 390.5 c 132,-1,32
 308.19921875 444 308.19921875 444 249.400390625 444 c 4,33,34
 191.80078125 444 191.80078125 444 169 387 c 132,-1,35
 146.19921875 330 146.19921875 330 146.19921875 228 c 260,36,37
 146.19921875 126 146.19921875 126 169 69 c 132,-1,38
 191.80078125 12 191.80078125 12 249.400390625 12 c 4,26,27
EndSplineSet
Validated: 1
EndChar

StartChar: r
Encoding: 114 114 85
Width: 540
GlyphClass: 2
Flags: W
HStem: 0 24<44.4004 146.848 222.263 337.199> 432 24<64.4004 146.848> 444 24<364.171 462.632>
VStem: 148.4 72<24.1934 292.799 330 432> 463.6 52<374 443.233>
AnchorPoint: "Bottom" 226.6 0 basechar 0
AnchorPoint: "Top" 310.6 508 basechar 0
LayerCount: 2
Fore
SplineSet
44.400390625 0 m 1,0,-1
 44.400390625 24 l 1,1,-1
 126.400390625 24 l 2,2,3
 148.400390625 24 148.400390625 24 148.400390625 46 c 2,4,-1
 148.400390625 410 l 2,5,6
 148.400390625 432 148.400390625 432 126.400390625 432 c 2,7,-1
 64.400390625 432 l 1,8,-1
 64.400390625 456 l 1,9,-1
 220.400390625 456 l 1,10,-1
 220.400390625 330 l 1,11,-1
 225.19921875 329 l 1,12,13
 284.275349935 468 284.275349935 468 439.599609375 468 c 0,14,15
 477.599609375 468 477.599609375 468 496.599609375 443.5 c 128,-1,16
 515.599609375 419 515.599609375 419 515.599609375 386 c 0,17,18
 515.599609375 362 515.599609375 362 501.599609375 340 c 128,-1,19
 487.599609375 318 487.599609375 318 459.599609375 318 c 0,20,21
 440.599609375 318 440.599609375 318 427.599609375 327.5 c 128,-1,22
 414.599609375 337 414.599609375 337 414.599609375 356 c 0,23,24
 414.599609375 385 414.599609375 385 441.599609375 400 c 0,25,26
 463.599609375 412 463.599609375 412 463.599609375 427 c 0,27,28
 463.599609375 444 463.599609375 444 435.599609375 444 c 0,29,30
 304.057756696 444 304.057756696 444 251.599609375 318 c 0,31,32
 220.400390625 244 220.400390625 244 220.400390625 178 c 2,33,-1
 220.400390625 46 l 2,34,35
 220.400390625 24 220.400390625 24 246.80078125 24 c 2,36,-1
 337.19921875 24 l 1,37,-1
 337.19921875 0 l 1,38,-1
 44.400390625 0 l 1,0,-1
EndSplineSet
Validated: 1
EndChar

StartChar: s
Encoding: 115 115 86
Width: 540
GlyphClass: 2
Flags: W
HStem: -12 24<258.223 401.394> 438 20G<435.328 455.328> 444 24<175.559 322.145>
VStem: 78.6719 48<330.64 414.672> 86.6719 18<-12 8> 437.328 18<438 458> 439.328 46<37.0572 145.786>
DStem2: 240.336 291 210.576 213 0.963162 -0.268922<-114.217 224.98>
AnchorPoint: "Bottom" 304.604 0 basechar 0
AnchorPoint: "Top" 304.604 508 basechar 0
LayerCount: 2
Fore
SplineSet
78.671875 345 m 0,0,1
 78.671875 406 78.671875 406 124.471679688 437 c 128,-1,2
 170.271484375 468 170.271484375 468 247.359375 468 c 0,3,4
 331.590820312 468 331.590820312 468 386.328125 436 c 0,5,6
 413.696289062 420 413.696289062 420 419.328125 420 c 0,7,8
 433.528320312 420 433.528320312 420 435.328125 438 c 2,9,-1
 437.328125 458 l 1,10,-1
 455.328125 458 l 1,11,-1
 455.328125 306 l 1,12,-1
 437.328125 306 l 1,13,-1
 423.328125 341 l 2,14,15
 401.831054688 394.743164062 401.831054688 394.743164062 353.359375 419.5 c 0,16,17
 305.392578125 444 305.392578125 444 245.87109375 444 c 0,18,19
 194.271484375 444 194.271484375 444 160.471679688 425.5 c 128,-1,20
 126.671875 407 126.671875 407 126.671875 374 c 0,21,22
 126.671875 351 126.671875 351 141.671875 336.5 c 128,-1,23
 156.671875 322 156.671875 322 181.87109375 312 c 0,24,25
 222.865234375 296.276367188 222.865234375 296.276367188 240.3359375 291 c 2,26,-1
 389.328125 246 l 2,27,28
 433.6328125 232.618164062 433.6328125 232.618164062 461.328125 198 c 0,29,30
 485.328125 168 485.328125 168 485.328125 118 c 0,31,32
 485.328125 51 485.328125 51 447.328125 19.5 c 128,-1,33
 409.328125 -12 409.328125 -12 338.54296875 -12 c 0,34,35
 282 -12 282 -12 240.3359375 1.5 c 128,-1,36
 198.671875 15 198.671875 15 179.470703125 28.5 c 128,-1,37
 160.271484375 42 160.271484375 42 147.072265625 42 c 0,38,39
 115.471679688 42 115.471679688 42 108.671875 8 c 2,40,-1
 104.671875 -12 l 1,41,-1
 86.671875 -12 l 1,42,-1
 86.671875 186 l 1,43,-1
 104.671875 186 l 1,44,-1
 141.072265625 114 l 2,45,46
 158.981445312 78.576171875 158.981445312 78.576171875 212.806640625 44.5 c 0,47,48
 264.142578125 12 264.142578125 12 340.03125 12 c 0,49,50
 394.328125 12 394.328125 12 416.828125 34.5 c 128,-1,51
 439.328125 57 439.328125 57 439.328125 96 c 0,52,53
 439.328125 149.130859375 439.328125 149.130859375 375.328125 167 c 2,54,-1
 210.576171875 213 l 2,55,56
 78.671875 249.829101562 78.671875 249.829101562 78.671875 345 c 0,0,1
EndSplineSet
Validated: 1
EndChar

StartChar: t
Encoding: 116 116 87
Width: 540
GlyphClass: 2
Flags: W
HStem: -12 44<245.261 442.312> 428 28<22.5996 141.303 218.6 487.4>
VStem: 146.6 72<57.9937 428> 190.6 28<531.006 648> 487.4 17<99.9146 152>
LayerCount: 2
Fore
SplineSet
257 -12 m 0,0,1
 205.599609375 -12 205.599609375 -12 176.099609375 20 c 128,-1,2
 146.599609375 52 146.599609375 52 146.599609375 107 c 2,3,-1
 146.599609375 428 l 1,4,-1
 22.599609375 428 l 1,5,-1
 22.599609375 456 l 1,6,-1
 114.599609375 456 l 2,7,8
 139.599609375 456 139.599609375 456 165.099609375 504.5 c 128,-1,9
 190.599609375 553 190.599609375 553 190.599609375 612 c 2,10,-1
 190.599609375 648 l 1,11,-1
 218.599609375 648 l 1,12,-1
 218.599609375 456 l 1,13,-1
 487.400390625 456 l 1,14,-1
 487.400390625 428 l 1,15,-1
 218.599609375 428 l 1,16,-1
 218.599609375 102 l 2,17,18
 218.599609375 32 218.599609375 32 352.19921875 32 c 0,19,20
 487.400390625 32 487.400390625 32 487.400390625 152 c 1,21,-1
 505.400390625 152 l 1,22,23
 505.400390625 129 505.400390625 129 504.400390625 114 c 128,-1,24
 503.400390625 99 503.400390625 99 497.900390625 72.5 c 128,-1,25
 492.400390625 46 492.400390625 46 479.69921875 30 c 128,-1,26
 467 14 467 14 430.599609375 1 c 128,-1,27
 394.19921875 -12 394.19921875 -12 257 -12 c 0,0,1
EndSplineSet
Validated: 1
EndChar

StartChar: u
Encoding: 117 117 88
Width: 540
GlyphClass: 2
Flags: W
HStem: -12 24<185.767 276.895> 0 24<462.352 524.8> 432 24<15.2002 77.6479 312 386.937>
VStem: 79.2002 72<41.9102 432> 388.8 72<24 92 113.088 431.807>
AnchorPoint: "Bottom" 275.7 0 basechar 0
AnchorPoint: "Top" 275.7 508 basechar 0
LayerCount: 2
Fore
SplineSet
217.200195312 -12 m 0,0,1
 157.200195312 -12 157.200195312 -12 125.200195312 14 c 0,2,3
 79.2001953125 51 79.2001953125 51 79.2001953125 137 c 2,4,-1
 79.2001953125 410 l 2,5,6
 79.2001953125 432 79.2001953125 432 57.2001953125 432 c 2,7,-1
 15.2001953125 432 l 1,8,-1
 15.2001953125 456 l 1,9,-1
 151.200195312 456 l 1,10,-1
 151.200195312 117 l 2,11,12
 151.200195312 12 151.200195312 12 228 12 c 0,13,14
 282 12 282 12 335.400390625 69.5 c 128,-1,15
 388.799804688 127 388.799804688 127 388.799804688 202 c 2,16,-1
 388.799804688 410 l 2,17,18
 388.799804688 432 388.799804688 432 362.400390625 432 c 2,19,-1
 312 432 l 1,20,-1
 312 456 l 1,21,-1
 460.799804688 456 l 1,22,-1
 460.799804688 46 l 2,23,24
 460.799804688 24 460.799804688 24 482.799804688 24 c 2,25,-1
 524.799804688 24 l 1,26,-1
 524.799804688 0 l 1,27,-1
 388.799804688 0 l 1,28,-1
 388.799804688 92 l 1,29,-1
 384 93 l 1,30,31
 352.799804688 43 352.799804688 43 309 15.5 c 128,-1,32
 265.200195312 -12 265.200195312 -12 217.200195312 -12 c 0,0,1
EndSplineSet
Validated: 1
EndChar

StartChar: v
Encoding: 118 118 89
Width: 540
GlyphClass: 2
Flags: W
HStem: 432 24<33.2002 80.5709 189.325 256.4 336.4 396.024 470.799 516.8>
DStem2: 306 105 272.4 -12 0.396704 -0.917946<-325.917 0> 306 105 294 -12 0.352029 0.935989<0 305.141>
AnchorPoint: "Bottom" 259 0 basechar 0
AnchorPoint: "Top" 259 508 basechar 0
LayerCount: 2
Fore
SplineSet
272.400390625 -12 m 1,0,-1
 102.200195312 382 l 2,1,2
 94.0864701945 400.782632362 94.0864701945 400.782632362 93.7001953125 401.5 c 0,3,4
 90.2001953125 408 90.2001953125 408 83.7001953125 416.5 c 128,-1,5
 77.2001953125 425 77.2001953125 425 69.2001953125 428.5 c 128,-1,6
 61.2001953125 432 61.2001953125 432 50.2001953125 432 c 2,7,-1
 33.2001953125 432 l 1,8,-1
 33.2001953125 456 l 1,9,-1
 256.400390625 456 l 1,10,-1
 256.400390625 432 l 1,11,-1
 222.799804688 432 l 2,12,13
 208.400390625 432 208.400390625 432 196.400390625 425.5 c 128,-1,14
 184.400390625 419 184.400390625 419 184.400390625 408 c 0,15,16
 184.400390625 391.991105117 184.400390625 391.991105117 191.599609375 375 c 2,17,-1
 306 105 l 1,18,-1
 395.200195312 342 l 2,19,20
 408.400390625 377.07219102 408.400390625 377.07219102 408.400390625 393 c 0,21,22
 408.400390625 410 408.400390625 410 396.400390625 421 c 128,-1,23
 384.400390625 432 384.400390625 432 365.200195312 432 c 2,24,-1
 336.400390625 432 l 1,25,-1
 336.400390625 456 l 1,26,-1
 516.799804688 456 l 1,27,-1
 516.799804688 432 l 1,28,-1
 507.799804688 432 l 2,29,30
 485.799804688 432 485.799804688 432 467.299804688 417.5 c 0,31,32
 450.618483449 404.424015612 450.618483449 404.424015612 438.799804688 373 c 2,33,-1
 294 -12 l 1,34,-1
 272.400390625 -12 l 1,0,-1
EndSplineSet
Validated: 1
EndChar

StartChar: w
Encoding: 119 119 90
Width: 540
GlyphClass: 2
Flags: W
HStem: 432 24<5.78516 34.5896 133.189 175.094 210.124 242.129 322.222 358.289 402.232 445.978 503.229 534.215>
VStem: 260.79 59.6553<294.188 424.608>
DStem2: 207.518 138 60.7852 373 0.309291 -0.950967<-280.683 0> 207.518 138 202.548 -12 0.231735 0.972779<0 177.774> 324.347 375 277.825 304 0.224622 -0.974446<58.7359 242.764> 376.969 138 367.212 -12 0.286213 0.958166<0 265.31>
AnchorPoint: "Bottom" 429.143 0 basechar 0
AnchorPoint: "Top" 429.143 508 basechar 0
LayerCount: 2
Fore
SplineSet
186.001953125 -12 m 1,0,-1
 60.78515625 373 l 1,1,2
 34.5625 432 34.5625 432 18.78515625 432 c 2,3,-1
 5.78515625 432 l 1,4,-1
 5.78515625 456 l 1,5,-1
 175.09375 456 l 1,6,-1
 175.09375 432 l 1,7,-1
 160.579101562 432 l 2,8,9
 152.215820313 432 152.215820313 432 140.24609375 425.5 c 128,-1,10
 128.276367188 419 128.276367188 419 128.276367188 408 c 0,11,12
 128.276367188 388.203497222 128.276367188 388.203497222 132.458007812 375 c 2,13,-1
 207.517578125 138 l 1,14,-1
 258.000976562 342 l 2,15,16
 260.790039062 353.270412999 260.790039062 353.270412999 260.790039062 363 c 128,-1,17
 260.790039062 372.703125 260.790039062 372.703125 253.123046875 396 c 0,18,19
 241.274414062 432 241.274414062 432 226.153320312 432 c 2,20,-1
 210.124023438 432 l 1,21,-1
 210.124023438 456 l 1,22,-1
 358.2890625 456 l 1,23,-1
 358.2890625 432 l 1,24,-1
 333.076171875 432 l 2,25,26
 320.4453125 432 320.4453125 432 320.4453125 402 c 0,27,28
 320.4453125 392.571030899 320.4453125 392.571030899 324.346679688 375 c 2,29,-1
 376.96875 138 l 1,30,-1
 442.6875 342 l 2,31,32
 452.44140625 372.27746077 452.44140625 372.27746077 452.44140625 393 c 0,33,34
 452.44140625 432 452.44140625 432 420.9609375 432 c 2,35,-1
 402.232421875 432 l 1,36,-1
 402.232421875 456 l 1,37,-1
 534.21484375 456 l 1,38,-1
 534.21484375 432 l 1,39,-1
 521.21484375 432 l 2,40,41
 499.838669339 432 499.838669339 432 482.21484375 373 c 2,42,-1
 367.211914062 -12 l 1,43,-1
 350.666992188 -12 l 1,44,-1
 277.825195312 304 l 1,45,-1
 202.547851562 -12 l 1,46,-1
 186.001953125 -12 l 1,0,-1
EndSplineSet
Validated: 1
EndChar

StartChar: x
Encoding: 120 120 91
Width: 540
GlyphClass: 2
Flags: W
HStem: 0 24<38.5996 100.279 165.115 204.6 293.4 345.721 439.021 501.4> 432 24<42.5996 100.125 197.83 247.801 313.4 353.666 424.075 487.4>
DStem2: 137.6 79 176.6 89 0.583904 0.811822<-5.99808 157.261 248.432 398.098> 302.4 254 252.6 190 0.556024 -0.831167<25.5042 201.268>
AnchorPoint: "Bottom" 278.4 0 basechar 0
AnchorPoint: "Top" 278.4 508 basechar 0
LayerCount: 2
Fore
SplineSet
38.599609375 0 m 1,0,-1
 38.599609375 24 l 1,1,-1
 64.599609375 24 l 2,2,3
 78.599609375 24 78.599609375 24 89.599609375 29.5 c 128,-1,4
 100.599609375 35 100.599609375 35 109.099609375 43 c 128,-1,5
 117.599609375 51 117.599609375 51 122.599609375 57.5 c 128,-1,6
 127.599609375 64 127.599609375 64 137.599609375 79 c 2,7,-1
 233.400390625 215 l 1,8,-1
 106.599609375 410 l 2,9,10
 101.599609375 417 101.599609375 417 99.099609375 422 c 128,-1,11
 96.599609375 427 96.599609375 427 90.099609375 429.5 c 128,-1,12
 83.599609375 432 83.599609375 432 72.599609375 432 c 2,13,-1
 42.599609375 432 l 1,14,-1
 42.599609375 456 l 1,15,-1
 247.80078125 456 l 1,16,-1
 247.80078125 432 l 1,17,-1
 219 432 l 2,18,19
 196.599609375 432 196.599609375 432 196.599609375 412 c 0,20,21
 196.599609375 401 196.599609375 401 202.599609375 391 c 2,22,-1
 285 279 l 1,23,-1
 352.400390625 377 l 2,24,25
 361.400390625 390 361.400390625 390 361.400390625 409 c 0,26,27
 361.400390625 420 361.400390625 420 353.900390625 426 c 128,-1,28
 346.400390625 432 346.400390625 432 337.400390625 432 c 2,29,-1
 313.400390625 432 l 1,30,-1
 313.400390625 456 l 1,31,-1
 487.400390625 456 l 1,32,-1
 487.400390625 432 l 1,33,-1
 462.400390625 432 l 2,34,35
 422.400390625 432 422.400390625 432 393.400390625 388 c 2,36,-1
 302.400390625 254 l 1,37,-1
 429.400390625 50 l 2,38,39
 435.400390625 40 435.400390625 40 439.400390625 35.5 c 128,-1,40
 443.400390625 31 443.400390625 31 453.400390625 27.5 c 128,-1,41
 463.400390625 24 463.400390625 24 478.400390625 24 c 2,42,-1
 501.400390625 24 l 1,43,-1
 501.400390625 0 l 1,44,-1
 293.400390625 0 l 1,45,-1
 293.400390625 24 l 1,46,-1
 323.400390625 24 l 2,47,48
 346.400390625 24 346.400390625 24 346.400390625 41 c 0,49,50
 346.400390625 50 346.400390625 50 339.400390625 62 c 2,51,-1
 252.599609375 190 l 1,52,-1
 176.599609375 89 l 2,53,54
 161.599609375 65 161.599609375 65 161.599609375 54 c 0,55,56
 161.599609375 24 161.599609375 24 186.599609375 24 c 2,57,-1
 204.599609375 24 l 1,58,-1
 204.599609375 0 l 1,59,-1
 38.599609375 0 l 1,0,-1
EndSplineSet
Validated: 1
EndChar

StartChar: y
Encoding: 121 121 92
Width: 540
GlyphClass: 2
Flags: W
HStem: -238 32<107.437 179.608> 432 24<1.2002 67.7612 176.524 248.4 344.4 404.024 478.476 538.8>
VStem: 25.2002 82<-205.733 -123.639>
DStem2: 178.8 375 93.2002 373 0.370615 -0.928787<-32.8246 331.39> 225.6 -127 259.2 -139 0.344038 0.938956<-69.1621 92.8361 209.931 553.309>
AnchorPoint: "Bottom" 379 0 basechar 0
AnchorPoint: "Top" 287 508 basechar 0
LayerCount: 2
Fore
SplineSet
117.200195312 -238 m 0,0,1
 78.2001953125 -238 78.2001953125 -238 53.2001953125 -213 c 0,2,3
 25.2001953125 -187 25.2001953125 -187 25.2001953125 -150 c 0,4,5
 25.2001953125 -122 25.2001953125 -122 41.2001953125 -108 c 0,6,7
 56.2001953125 -93 56.2001953125 -93 75.2001953125 -93 c 0,8,9
 98.2001953125 -93 98.2001953125 -93 109.700195312 -107.5 c 128,-1,10
 121.200195312 -122 121.200195312 -122 121.200195312 -144 c 0,11,12
 121.200195312 -156 121.200195312 -156 113.200195312 -172 c 0,13,14
 107.200195312 -182 107.200195312 -182 107.200195312 -191 c 0,15,16
 107.200195312 -206 107.200195312 -206 128.400390625 -206 c 0,17,18
 164.400390625 -206 164.400390625 -206 189 -182.5 c 128,-1,19
 213.599609375 -159 213.599609375 -159 225.599609375 -127 c 2,20,-1
 258 -40 l 1,21,-1
 93.2001953125 373 l 2,22,23
 85.2001953125 395 85.2001953125 395 79.7001953125 405.5 c 128,-1,24
 74.2001953125 416 74.2001953125 416 62.7001953125 424 c 128,-1,25
 51.2001953125 432 51.2001953125 432 34.2001953125 432 c 2,26,-1
 1.2001953125 432 l 1,27,-1
 1.2001953125 456 l 1,28,-1
 248.400390625 456 l 1,29,-1
 248.400390625 432 l 1,30,-1
 210 432 l 2,31,32
 195.599609375 432 195.599609375 432 183.599609375 425.5 c 128,-1,33
 171.599609375 419 171.599609375 419 171.599609375 408 c 0,34,35
 171.599609375 391 171.599609375 391 178.799804688 375 c 2,36,-1
 303.599609375 68 l 1,37,-1
 403.200195312 342 l 2,38,39
 416.400390625 373 416.400390625 373 416.400390625 393 c 0,40,41
 416.400390625 410 416.400390625 410 404.400390625 421 c 128,-1,42
 392.400390625 432 392.400390625 432 373.200195312 432 c 2,43,-1
 344.400390625 432 l 1,44,-1
 344.400390625 456 l 1,45,-1
 538.799804688 456 l 1,46,-1
 538.799804688 432 l 1,47,-1
 515.799804688 432 l 2,48,49
 466.799804688 432 466.799804688 432 446.799804688 373 c 2,50,-1
 259.200195312 -139 l 2,51,52
 246 -176 246 -176 208.799804688 -207 c 128,-1,53
 171.599609375 -238 171.599609375 -238 117.200195312 -238 c 0,0,1
EndSplineSet
Validated: 1
EndChar

StartChar: z
Encoding: 122 122 93
Width: 540
GlyphClass: 2
Flags: W
HStem: 0 24<170.8 377.959> 432 24<174.261 376.8>
VStem: 75.2002 20<280 306.251> 444.8 20<144.5 176>
AnchorPoint: "Bottom" 284 0 basechar 0
AnchorPoint: "Top" 284 508 basechar 0
LayerCount: 2
Fore
SplineSet
75.2001953125 0 m 1,0,-1
 75.2001953125 26 l 1,1,-1
 376.799804688 432 l 1,2,-1
 236.799804688 432 l 2,3,4
 161.200195312 432 161.200195312 432 131.200195312 382 c 0,5,6
 113.200195312 352 113.200195312 352 104.799804688 316 c 2,7,-1
 95.2001953125 280 l 1,8,-1
 75.2001953125 280 l 1,9,-1
 81.2001953125 456 l 1,10,-1
 458.799804688 456 l 1,11,-1
 458.799804688 424 l 1,12,-1
 170.799804688 24 l 1,13,-1
 323.200195312 24 l 2,14,15
 389.799804688 24 389.799804688 24 414.799804688 74 c 0,16,17
 429.799804688 104 429.799804688 104 436.799804688 140 c 2,18,-1
 444.799804688 176 l 1,19,-1
 464.799804688 176 l 1,20,-1
 458.799804688 0 l 1,21,-1
 75.2001953125 0 l 1,0,-1
EndSplineSet
Validated: 1
EndChar

StartChar: braceleft
Encoding: 123 123 94
Width: 540
GlyphClass: 2
Flags: W
HStem: -196 24<355.836 377.5> 258 18<154 217.16> 706 24<355.836 377.5>
VStem: 224 60<-107.971 35.4631 494.184 642.044> 260 60<61.344 211.477 321.16 470.035>
CounterMasks: 1 e0
LayerCount: 2
Fore
SplineSet
154 276 m 1,0,1
 210 276 210 276 235 290 c 128,-1,2
 260 304 260 304 260 354 c 0,3,4
 260 385 260 385 242 455 c 128,-1,5
 224 525 224 525 224 562 c 0,6,7
 224 681 224 681 374 730 c 1,8,-1
 386 706 l 1,9,10
 361 697 361 697 346.5 690.5 c 128,-1,11
 332 684 332 684 315.5 673 c 128,-1,12
 299 662 299 662 291.5 647 c 128,-1,13
 284 632 284 632 284 612 c 0,14,15
 284 576 284 576 302 509 c 128,-1,16
 320 442 320 442 320 406 c 0,17,18
 320 298 320 298 226 268 c 1,19,-1
 226 266 l 1,20,21
 320 236 320 236 320 122 c 0,22,23
 320 86 320 86 302 22 c 128,-1,24
 284 -42 284 -42 284 -78 c 0,25,26
 284 -116 284 -116 309.5 -135 c 128,-1,27
 335 -154 335 -154 386 -172 c 1,28,-1
 374 -196 l 1,29,30
 224 -147 224 -147 224 -28 c 0,31,32
 224 9 224 9 242 76 c 128,-1,33
 260 143 260 143 260 174 c 0,34,35
 260 224 260 224 234 241 c 128,-1,36
 208 258 208 258 154 258 c 1,37,-1
 154 276 l 1,0,1
EndSplineSet
Validated: 1
EndChar

StartChar: bar
Encoding: 124 124 95
Width: 540
GlyphClass: 2
Flags: W
HStem: 710 20G<248 292>
VStem: 248 44<-198 730>
LayerCount: 2
Fore
SplineSet
248 730 m 1,0,-1
 292 730 l 1,1,-1
 292 -198 l 1,2,-1
 248 -198 l 1,3,-1
 248 730 l 1,0,-1
EndSplineSet
Validated: 1
EndChar

StartChar: braceright
Encoding: 125 125 96
Width: 540
GlyphClass: 2
Flags: W
HStem: -196 24<162.5 184.164> 258 18<316.435 386> 706 24<162.5 184.164>
VStem: 220 60<63.965 212.84 321.16 470.035> 256 60<-108.044 39.8157 494.184 641.971>
CounterMasks: 1 e0
LayerCount: 2
Fore
SplineSet
386 258 m 1,0,1
 330 258 330 258 305 244 c 128,-1,2
 280 230 280 230 280 180 c 0,3,4
 280 149 280 149 298 79 c 128,-1,5
 316 9 316 9 316 -28 c 0,6,7
 316 -147 316 -147 166 -196 c 1,8,-1
 154 -172 l 1,9,10
 179 -163 179 -163 193.5 -156.5 c 128,-1,11
 208 -150 208 -150 224.5 -139 c 128,-1,12
 241 -128 241 -128 248.5 -113 c 128,-1,13
 256 -98 256 -98 256 -78 c 0,14,15
 256 -42 256 -42 238 25 c 128,-1,16
 220 92 220 92 220 128 c 0,17,18
 220 236 220 236 314 266 c 1,19,-1
 314 268 l 1,20,21
 220 298 220 298 220 406 c 0,22,23
 220 442 220 442 238 509 c 128,-1,24
 256 576 256 576 256 612 c 0,25,26
 256 650 256 650 230.5 669 c 128,-1,27
 205 688 205 688 154 706 c 1,28,-1
 166 730 l 1,29,30
 316 681 316 681 316 562 c 0,31,32
 316 525 316 525 298 455 c 128,-1,33
 280 385 280 385 280 354 c 0,34,35
 280 304 280 304 305 290 c 128,-1,36
 330 276 330 276 386 276 c 1,37,-1
 386 258 l 1,0,1
EndSplineSet
Validated: 1
EndChar

StartChar: asciitilde
Encoding: 126 126 97
Width: 540
GlyphClass: 2
Flags: W
HStem: 170 62<392.005 508.832> 290 62<31.1685 149.799>
VStem: -12 34<202.797 279.315> 518 34<242.685 319.203>
LayerCount: 2
Fore
SplineSet
62 290 m 0,0,1
 46 290 46 290 34 277.5 c 128,-1,2
 22 265 22 265 22 244 c 0,3,4
 22 206 22 206 64 184 c 1,5,-1
 52 163 l 1,6,7
 -12 192 -12 192 -12 253 c 0,8,9
 -12 293 -12 293 18 322.5 c 128,-1,10
 48 352 48 352 102 352 c 0,11,12
 165 352 165 352 310 288 c 0,13,14
 434 232 434 232 478 232 c 0,15,16
 494 232 494 232 506 244.5 c 128,-1,17
 518 257 518 257 518 278 c 0,18,19
 518 316 518 316 476 338 c 1,20,-1
 488 359 l 1,21,22
 552 330 552 330 552 269 c 0,23,24
 552 229 552 229 522 199.5 c 128,-1,25
 492 170 492 170 438 170 c 0,26,27
 408 170 408 170 368.5 181 c 128,-1,28
 329 192 329 192 303.5 202.5 c 128,-1,29
 278 213 278 213 230 234 c 0,30,31
 211 242 211 242 193 250 c 128,-1,32
 175 258 175 258 156.5 265.5 c 128,-1,33
 138 273 138 273 122 278.5 c 128,-1,34
 106 284 106 284 90 287 c 128,-1,35
 74 290 74 290 62 290 c 0,0,1
EndSplineSet
Validated: 1
EndChar

StartChar: lozenge
Encoding: 9674 9674 139
Width: 552
GlyphClass: 2
Flags: W
HStem: 710 20G<252.449 299.551>
DStem2: 48 356 102 356 0.500123 0.865954<27.0067 382.474> 102 356 48 356 0.500123 -0.865954<0 355.467> 288 730 276 666 0.500123 -0.865954<49.4196 404.887> 276 46 288 -18 0.500123 0.865954<0 355.467>
LayerCount: 2
Fore
SplineSet
276 46 m 1,0,-1
 450 356 l 1,1,-1
 276 666 l 1,2,-1
 102 356 l 1,3,-1
 276 46 l 1,0,-1
264 -18 m 1,4,-1
 48 356 l 1,5,-1
 264 730 l 1,6,-1
 288 730 l 1,7,-1
 504 356 l 1,8,-1
 288 -18 l 1,9,-1
 264 -18 l 1,4,-1
EndSplineSet
Validated: 1
EndChar

StartChar: fi
Encoding: 64257 64257 143
Width: 530
GlyphClass: 3
LigCaretCntFixed: 1
Flags: W
HStem: 0 24<28 100.448 175.552 238 298 360.448 435.552 498> 428 28<28 102 174 361.092> 696 24<253.455 345.522>
VStem: 102 72<24 428 456 601.487> 362 72<24 428> 364 78<609.364 674.713>
LayerCount: 2
Fore
SplineSet
28 0 m 1,0,-1
 28 24 l 1,1,-1
 80 24 l 2,2,3
 102 24 102 24 102 46 c 2,4,-1
 102 428 l 1,5,-1
 28 428 l 1,6,-1
 28 456 l 1,7,-1
 102 456 l 1,8,-1
 102 492 l 2,9,10
 102 601 102 601 165.5 660.5 c 128,-1,11
 229 720 229 720 308 720 c 0,12,13
 374 720 374 720 408 688 c 128,-1,14
 442 656 442 656 442 613 c 0,15,16
 442 583 442 583 426.5 566.5 c 128,-1,17
 411 550 411 550 387 550 c 0,18,19
 366 550 366 550 353 561.5 c 128,-1,20
 340 573 340 573 340 594 c 0,21,22
 340 614 340 614 353 629 c 0,23,24
 364 640 364 640 364 653 c 0,25,26
 364 674 364 674 345.5 685 c 128,-1,27
 327 696 327 696 298 696 c 0,28,29
 254 696 254 696 214 652.5 c 128,-1,30
 174 609 174 609 174 520 c 2,31,-1
 174 456 l 1,32,-1
 434 456 l 1,33,-1
 434 46 l 2,34,35
 434 24 434 24 456 24 c 2,36,-1
 498 24 l 1,37,-1
 498 0 l 1,38,-1
 298 0 l 1,39,-1
 298 24 l 1,40,-1
 340 24 l 2,41,42
 362 24 362 24 362 46 c 2,43,-1
 362 406 l 2,44,45
 362 428 362 428 340 428 c 2,46,-1
 174 428 l 1,47,-1
 174 46 l 2,48,49
 174 24 174 24 196 24 c 2,50,-1
 238 24 l 1,51,-1
 238 0 l 1,52,-1
 28 0 l 1,0,-1
EndSplineSet
Validated: 1
LCarets2: 1 264
EndChar

StartChar: fl
Encoding: 64258 64258 144
Width: 530
GlyphClass: 3
LigCaretCntFixed: 1
Flags: W
HStem: 0 24<28 100.448 175.552 238 298 360.448 435.552 508> 428 28<28 102 174 362> 696 24<253.455 350.189>
VStem: 102 72<24 428 456 601.487> 340 94<557.034 642.392> 362 72<24 428 456 595.532 596.594 689.398>
LayerCount: 2
Fore
SplineSet
28 0 m 1,0,-1
 28 24 l 1,1,-1
 80 24 l 2,2,3
 102 24 102 24 102 46 c 2,4,-1
 102 428 l 1,5,-1
 28 428 l 1,6,-1
 28 456 l 1,7,-1
 102 456 l 1,8,-1
 102 492 l 2,9,10
 102 601 102 601 165.5 660.5 c 128,-1,11
 229 720 229 720 308 720 c 0,12,13
 335 720 335 720 363 712 c 1,14,-1
 434 712 l 1,15,-1
 434 46 l 2,16,17
 434 24 434 24 456 24 c 2,18,-1
 508 24 l 1,19,-1
 508 0 l 1,20,-1
 298 0 l 1,21,-1
 298 24 l 1,22,-1
 340 24 l 2,23,24
 362 24 362 24 362 46 c 2,25,-1
 362 428 l 1,26,-1
 174 428 l 1,27,-1
 174 46 l 2,28,29
 174 24 174 24 196 24 c 2,30,-1
 238 24 l 1,31,-1
 238 0 l 1,32,-1
 28 0 l 1,0,-1
174 456 m 1,33,-1
 362 456 l 1,34,-1
 362 557 l 1,35,36
 352 558 352 558 346 569.5 c 128,-1,37
 340 581 340 581 340 596 c 0,38,39
 340 615 340 615 356 633 c 0,40,41
 364 641 364 641 364 656 c 0,42,43
 364 696 364 696 298 696 c 0,44,45
 254 696 254 696 214 652.5 c 128,-1,46
 174 609 174 609 174 520 c 2,47,-1
 174 456 l 1,33,-1
EndSplineSet
Validated: 1
LCarets2: 1 264
EndChar

StartChar: circumflex
Encoding: 710 710 163
Width: 440
GlyphClass: 2
Flags: W
HStem: 508 164
VStem: 89 262
LayerCount: 2
Fore
SplineSet
240 672 m 1,0,1
 276 569 276 569 351 521 c 1,2,-1
 342 508 l 1,3,4
 274 543 274 543 220 600 c 1,5,6
 166 543 166 543 98 508 c 1,7,-1
 89 521 l 1,8,9
 164 569 164 569 200 672 c 1,10,-1
 240 672 l 1,0,1
EndSplineSet
Validated: 1
EndChar

StartChar: tilde
Encoding: 732 732 164
Width: 440
GlyphClass: 2
Flags: W
HStem: 556 54<231.057 330.743> 596 54<109.257 208.943>
VStem: 82 22<556 583.633> 336 22<622.367 650>
LayerCount: 2
Fore
SplineSet
278 556 m 0,0,1
 246 556 246 556 205 576 c 128,-1,2
 164 596 164 596 140 596 c 0,3,4
 111 596 111 596 104 556 c 1,5,-1
 82 556 l 1,6,7
 82 595 82 595 103 622.5 c 128,-1,8
 124 650 124 650 162 650 c 0,9,10
 194 650 194 650 235 630 c 128,-1,11
 276 610 276 610 300 610 c 0,12,13
 329 610 329 610 336 650 c 1,14,-1
 358 650 l 1,15,16
 358 611 358 611 337 583.5 c 128,-1,17
 316 556 316 556 278 556 c 0,0,1
EndSplineSet
Validated: 1
EndChar

StartChar: breve
Encoding: 728 728 165
Width: 440
GlyphClass: 2
Flags: W
HStem: 526 40<149.331 290.669>
VStem: 82 22<630.462 666> 336 22<630.462 666>
LayerCount: 2
Fore
SplineSet
220 526 m 256,0,1
 155 526 155 526 118.5 573.5 c 128,-1,2
 82 621 82 621 82 666 c 1,3,-1
 104 666 l 1,4,5
 110 626 110 626 137.5 596 c 128,-1,6
 165 566 165 566 220 566 c 256,7,8
 275 566 275 566 302.5 596 c 128,-1,9
 330 626 330 626 336 666 c 1,10,-1
 358 666 l 1,11,12
 358 621 358 621 321.5 573.5 c 128,-1,13
 285 526 285 526 220 526 c 256,0,1
EndSplineSet
Validated: 1
EndChar

StartChar: dotaccent
Encoding: 729 729 166
Width: 440
GlyphClass: 2
Flags: W
HStem: 544 104<183.47 256.53>
VStem: 168 104<559.47 632.53>
LayerCount: 2
Fore
SplineSet
220 544 m 256,0,1
 198 544 198 544 183 559 c 128,-1,2
 168 574 168 574 168 596 c 256,3,4
 168 618 168 618 183 633 c 128,-1,5
 198 648 198 648 220 648 c 256,6,7
 242 648 242 648 257 633 c 128,-1,8
 272 618 272 618 272 596 c 256,9,10
 272 574 272 574 257 559 c 128,-1,11
 242 544 242 544 220 544 c 256,0,1
EndSplineSet
Validated: 1
EndChar

StartChar: ring
Encoding: 730 730 167
Width: 440
GlyphClass: 2
Flags: W
HStem: 500 24<179.407 260.593> 670 24<178.229 261.771>
VStem: 123 24<556.541 638.898> 293 24<556.541 638.898>
LayerCount: 2
Fore
SplineSet
220 500 m 256,0,1
 180 500 180 500 151.5 528.5 c 128,-1,2
 123 557 123 557 123 598 c 0,3,4
 123 638 123 638 151 666 c 128,-1,5
 179 694 179 694 220 694 c 256,6,7
 261 694 261 694 289 666 c 128,-1,8
 317 638 317 638 317 598 c 0,9,10
 317 557 317 557 288.5 528.5 c 128,-1,11
 260 500 260 500 220 500 c 256,0,1
220 524 m 256,12,13
 251 524 251 524 272 545 c 128,-1,14
 293 566 293 566 293 598 c 0,15,16
 293 629 293 629 272.5 649.5 c 128,-1,17
 252 670 252 670 220 670 c 256,18,19
 188 670 188 670 167.5 649.5 c 128,-1,20
 147 629 147 629 147 598 c 0,21,22
 147 566 147 566 168 545 c 128,-1,23
 189 524 189 524 220 524 c 256,12,13
EndSplineSet
Validated: 1
EndChar

StartChar: hungarumlaut
Encoding: 733 733 168
Width: 440
GlyphClass: 2
Flags: W
HStem: 508 176
VStem: 127 305
LayerCount: 2
Fore
SplineSet
404 684 m 0,0,1
 432 684 432 684 432 653 c 0,2,3
 432 630 432 630 404 609 c 2,4,-1
 276 508 l 1,5,-1
 263 519 l 1,6,-1
 355 652 l 2,7,8
 378 684 378 684 404 684 c 0,0,1
268 684 m 0,9,10
 296 684 296 684 296 653 c 0,11,12
 296 630 296 630 268 609 c 2,13,-1
 140 508 l 1,14,-1
 127 519 l 1,15,-1
 219 652 l 2,16,17
 242 684 242 684 268 684 c 0,9,10
EndSplineSet
Validated: 1
EndChar

StartChar: ogonek
Encoding: 731 731 169
Width: 440
GlyphClass: 2
Flags: W
HStem: -220 44<148.983 224.119>
VStem: 88 56<-171.852 -80.8076>
LayerCount: 2
Fore
SplineSet
88 -142 m 0,0,1
 88 -110 88 -110 111 -79 c 128,-1,2
 134 -48 134 -48 158.5 -29 c 128,-1,3
 183 -10 183 -10 222 14 c 1,4,-1
 232 0 l 1,5,6
 187 -33 187 -33 165.5 -62.5 c 128,-1,7
 144 -92 144 -92 144 -129 c 0,8,9
 144 -176 144 -176 188 -176 c 0,10,11
 217 -176 217 -176 246 -142 c 1,12,-1
 260 -152 l 1,13,14
 223 -220 223 -220 167 -220 c 0,15,16
 134 -220 134 -220 111 -198.5 c 128,-1,17
 88 -177 88 -177 88 -142 c 0,0,1
EndSplineSet
Validated: 1
EndChar

StartChar: caron
Encoding: 711 711 170
Width: 440
GlyphClass: 2
Flags: W
HStem: 508 164
VStem: 88 264
LayerCount: 2
Fore
SplineSet
88 661 m 1,0,-1
 101 672 l 1,1,-1
 220 572 l 1,2,-1
 339 672 l 1,3,-1
 352 661 l 1,4,-1
 240 508 l 1,5,-1
 200 508 l 1,6,-1
 88 661 l 1,0,-1
EndSplineSet
Validated: 1
EndChar

StartChar: uni02BB
Encoding: 699 699 334
Width: 200
GlyphClass: 2
Flags: W
HStem: 488 100<92.2529 144.014> 700 20G<124.5 158>
VStem: 40 42<547.5 640.26>
LayerCount: 2
Fore
SplineSet
160 540 m 0,0,1
 160 515 160 515 144.5 501.5 c 128,-1,2
 129 488 129 488 106 488 c 0,3,4
 76 488 76 488 58 509.5 c 128,-1,5
 40 531 40 531 40 564 c 0,6,7
 40 614 40 614 71.5 656.5 c 128,-1,8
 103 699 103 699 146 720 c 1,9,-1
 158 708 l 1,10,11
 127 693 127 693 104.5 667 c 128,-1,12
 82 641 82 641 82 618 c 0,13,14
 82 602 82 602 92 594 c 0,15,16
 100 588 100 588 120 588 c 0,17,18
 138 588 138 588 149 573 c 128,-1,19
 160 558 160 558 160 540 c 0,0,1
EndSplineSet
Validated: 1
EndChar

StartChar: afii57929
Encoding: 700 700 335
Width: 200
GlyphClass: 2
Flags: W
HStem: 620 100<55.9862 107.747>
VStem: 118 42<567.74 660.5>
LayerCount: 2
Fore
SplineSet
40 668 m 0,0,1
 40 693 40 693 55.5 706.5 c 128,-1,2
 71 720 71 720 94 720 c 0,3,4
 124 720 124 720 142 698.5 c 128,-1,5
 160 677 160 677 160 644 c 0,6,7
 160 594 160 594 128.5 551.5 c 128,-1,8
 97 509 97 509 54 488 c 1,9,-1
 42 500 l 1,10,11
 73 515 73 515 95.5 541 c 128,-1,12
 118 567 118 567 118 590 c 0,13,14
 118 606 118 606 108 614 c 0,15,16
 100 620 100 620 80 620 c 0,17,18
 62 620 62 620 51 635 c 128,-1,19
 40 650 40 650 40 668 c 0,0,1
EndSplineSet
Validated: 1
EndChar

StartChar: afii64937
Encoding: 701 701 336
Width: 200
GlyphClass: 2
Flags: W
HStem: 620 100<92.2529 144.014>
VStem: 40 42<567.74 660.5>
LayerCount: 2
Fore
SplineSet
160 668 m 0,0,1
 160 650 160 650 149 635 c 128,-1,2
 138 620 138 620 120 620 c 0,3,4
 100 620 100 620 92 614 c 0,5,6
 82 606 82 606 82 590 c 0,7,8
 82 567 82 567 104.5 541 c 128,-1,9
 127 515 127 515 158 500 c 1,10,-1
 146 488 l 1,11,12
 103 509 103 509 71.5 551.5 c 128,-1,13
 40 594 40 594 40 644 c 0,14,15
 40 677 40 677 58 698.5 c 128,-1,16
 76 720 76 720 106 720 c 0,17,18
 129 720 129 720 144.5 706.5 c 128,-1,19
 160 693 160 693 160 668 c 0,0,1
EndSplineSet
Validated: 1
EndChar

StartChar: uni02BE
Encoding: 702 702 337
Width: 200
GlyphClass: 2
Flags: W
HStem: 500 28<42 90.0908> 690 28<42 90.0908>
VStem: 126 32<560.025 657.975>
LayerCount: 2
Fore
SplineSet
42 500 m 1,0,-1
 42 528 l 1,1,2
 78 528 78 528 102 551 c 128,-1,3
 126 574 126 574 126 609 c 256,4,5
 126 644 126 644 102 667 c 128,-1,6
 78 690 78 690 42 690 c 1,7,-1
 42 718 l 1,8,9
 88 718 88 718 123 687 c 128,-1,10
 158 656 158 656 158 609 c 256,11,12
 158 562 158 562 123 531 c 128,-1,13
 88 500 88 500 42 500 c 1,0,-1
EndSplineSet
Validated: 1
EndChar

StartChar: uni02BF
Encoding: 703 703 338
Width: 200
GlyphClass: 2
Flags: W
HStem: 500 28<109.909 158> 690 28<109.909 158>
VStem: 42 32<560.025 657.975>
LayerCount: 2
Fore
SplineSet
42 609 m 256,0,1
 42 656 42 656 77 687 c 128,-1,2
 112 718 112 718 158 718 c 1,3,-1
 158 690 l 1,4,5
 122 690 122 690 98 667 c 128,-1,6
 74 644 74 644 74 609 c 256,7,8
 74 574 74 574 98 551 c 128,-1,9
 122 528 122 528 158 528 c 1,10,-1
 158 500 l 1,11,12
 112 500 112 500 77 531 c 128,-1,13
 42 562 42 562 42 609 c 256,0,1
EndSplineSet
Validated: 1
EndChar

StartChar: acutecomb
Encoding: 769 769 340
Width: 0
GlyphClass: 4
Flags: W
HStem: 508 176
VStem: -287 169
AnchorPoint: "TopMark" -262 724 basemark 0
AnchorPoint: "TopMark" -262 508 mark 0
AnchorPoint: "Top" -262 508 mark 0
LayerCount: 2
Fore
SplineSet
-146 684 m 0,0,1
 -118 684 -118 684 -118 653 c 0,2,3
 -118 630 -118 630 -146 609 c 2,4,-1
 -274 508 l 1,5,-1
 -287 519 l 1,6,-1
 -195 652 l 2,7,8
 -172 684 -172 684 -146 684 c 0,0,1
EndSplineSet
Validated: 1
Colour: ffff
EndChar

StartChar: macroncmb
Encoding: 772 772 343
Width: 0
GlyphClass: 4
Flags: W
HStem: 572 40<-392 -132>
VStem: -392 260<572 612>
AnchorPoint: "GreekTopMarkSunken" -262 636 basemark 0
AnchorPoint: "GreekTopMark" -262 656 basemark 0
AnchorPoint: "TopMark" -262 656 basemark 0
AnchorPoint: "TopMark" -262 508 mark 0
AnchorPoint: "GreekTop" -262 508 mark 0
AnchorPoint: "Top" -262 508 mark 0
LayerCount: 2
Fore
SplineSet
-392 612 m 1,0,-1
 -132 612 l 1,1,-1
 -132 572 l 1,2,-1
 -392 572 l 1,3,-1
 -392 612 l 1,0,-1
EndSplineSet
Validated: 1
Colour: ffff
EndChar

StartChar: uni0305
Encoding: 773 773 344
Width: 0
GlyphClass: 2
Flags: W
HStem: 822 40<-520 0>
LayerCount: 2
Fore
SplineSet
-520 862 m 1,0,-1
 0 862 l 1,1,-1
 0 822 l 1,2,-1
 -520 822 l 1,3,-1
 -520 862 l 1,0,-1
EndSplineSet
Validated: 1
Colour: ffff
EndChar

StartChar: uni0308
Encoding: 776 776 347
Width: 0
GlyphClass: 4
Flags: W
HStem: 544 104<-392.53 -319.47 -204.53 -131.47>
VStem: -408 104<559.47 632.53> -220 104<559.47 632.53>
AnchorPoint: "TopMark" -262 692 basemark 0
AnchorPoint: "TopMark" -262 508 mark 0
AnchorPoint: "Top" -262 508 mark 0
LayerCount: 2
Fore
SplineSet
-168 648 m 256,0,1
 -146 648 -146 648 -131 633 c 128,-1,2
 -116 618 -116 618 -116 596 c 256,3,4
 -116 574 -116 574 -131 559 c 128,-1,5
 -146 544 -146 544 -168 544 c 256,6,7
 -190 544 -190 544 -205 559 c 128,-1,8
 -220 574 -220 574 -220 596 c 256,9,10
 -220 618 -220 618 -205 633 c 128,-1,11
 -190 648 -190 648 -168 648 c 256,0,1
-356 648 m 256,12,13
 -334 648 -334 648 -319 633 c 128,-1,14
 -304 618 -304 618 -304 596 c 256,15,16
 -304 574 -304 574 -319 559 c 128,-1,17
 -334 544 -334 544 -356 544 c 256,18,19
 -378 544 -378 544 -393 559 c 128,-1,20
 -408 574 -408 574 -408 596 c 256,21,22
 -408 618 -408 618 -393 633 c 128,-1,23
 -378 648 -378 648 -356 648 c 256,12,13
EndSplineSet
Validated: 1
Colour: ffff
EndChar

StartChar: uni0317
Encoding: 791 791 357
Width: 0
GlyphClass: 4
Flags: W
HStem: -240 176
VStem: -287 169
AnchorPoint: "Bottom" -262 0 mark 0
LayerCount: 2
Fore
SplineSet
-146 -64 m 0,0,1
 -118 -64 -118 -64 -118 -95 c 0,2,3
 -118 -118 -118 -118 -146 -139 c 2,4,-1
 -274 -240 l 1,5,-1
 -287 -229 l 1,6,-1
 -195 -96 l 2,7,8
 -172 -64 -172 -64 -146 -64 c 0,0,1
EndSplineSet
Validated: 1
Colour: ffff
EndChar

StartChar: uni0324
Encoding: 804 804 359
Width: 0
GlyphClass: 4
Flags: W
HStem: -204 104<-392.53 -319.47 -204.53 -131.47>
VStem: -408 104<-188.53 -115.47> -220 104<-188.53 -115.47>
AnchorPoint: "Bottom" -262 0 mark 0
LayerCount: 2
Fore
SplineSet
-168 -100 m 256,0,1
 -146 -100 -146 -100 -131 -115 c 128,-1,2
 -116 -130 -116 -130 -116 -152 c 256,3,4
 -116 -174 -116 -174 -131 -189 c 128,-1,5
 -146 -204 -146 -204 -168 -204 c 256,6,7
 -190 -204 -190 -204 -205 -189 c 128,-1,8
 -220 -174 -220 -174 -220 -152 c 256,9,10
 -220 -130 -220 -130 -205 -115 c 128,-1,11
 -190 -100 -190 -100 -168 -100 c 256,0,1
-356 -100 m 256,12,13
 -334 -100 -334 -100 -319 -115 c 128,-1,14
 -304 -130 -304 -130 -304 -152 c 256,15,16
 -304 -174 -304 -174 -319 -189 c 128,-1,17
 -334 -204 -334 -204 -356 -204 c 256,18,19
 -378 -204 -378 -204 -393 -189 c 128,-1,20
 -408 -174 -408 -174 -408 -152 c 256,21,22
 -408 -130 -408 -130 -393 -115 c 128,-1,23
 -378 -100 -378 -100 -356 -100 c 256,12,13
EndSplineSet
Validated: 1
Colour: ffff
EndChar

StartChar: uni0327
Encoding: 807 807 362
Width: 0
GlyphClass: 4
Flags: W
HStem: -212 28<-335.536 -249.103> -20 20G<-292.957 -261>
VStem: -232 64<-172.603 -91.5865>
DStem2: -310 -69 -279 -53 0.328521 0.944497<25.2961 73.0548> -255 -58 -310 -69 0.979457 -0.201653<-24.5152 19.5714>
AnchorPoint: "Bottom" -262 0 mark 0
LayerCount: 2
Fore
SplineSet
-368 -176 m 1,0,1
 -368 -176 -368 -176 -356 -160 c 1,2,3
 -345 -169 -345 -169 -329.5 -176.5 c 128,-1,4
 -314 -184 -314 -184 -294 -184 c 0,5,6
 -267 -184 -267 -184 -249.5 -171.5 c 128,-1,7
 -232 -159 -232 -159 -232 -133 c 0,8,9
 -232 -106 -232 -106 -242 -94 c 0,10,11
 -253 -81 -253 -81 -276 -76 c 2,12,-1
 -310 -69 l 1,13,-1
 -286 0 l 1,14,-1
 -261 0 l 1,15,-1
 -279 -53 l 1,16,-1
 -255 -58 l 2,17,18
 -214 -67 -214 -67 -191 -87.5 c 128,-1,19
 -168 -108 -168 -108 -168 -142 c 0,20,21
 -168 -172 -168 -172 -197 -192 c 128,-1,22
 -226 -212 -226 -212 -282 -212 c 0,23,24
 -305 -212 -305 -212 -329.5 -201 c 128,-1,25
 -354 -190 -354 -190 -368 -176 c 1,0,1
EndSplineSet
Validated: 1
Colour: ffff
EndChar

StartChar: uni0331
Encoding: 817 817 369
Width: 0
GlyphClass: 4
Flags: W
HStem: -176 40<-392 -132>
VStem: -392 260<-176 -136>
AnchorPoint: "Bottom" -262 0 mark 0
LayerCount: 2
Fore
SplineSet
-392 -136 m 1,0,-1
 -132 -136 l 1,1,-1
 -132 -176 l 1,2,-1
 -392 -176 l 1,3,-1
 -392 -136 l 1,0,-1
EndSplineSet
Validated: 1
Colour: ffff
EndChar

StartChar: uni0333
Encoding: 819 819 371
Width: 0
GlyphClass: 2
Flags: W
HStem: -272 40<-520 0> -158 40<-520 0>
LayerCount: 2
Fore
SplineSet
-520 -272 m 1,0,-1
 -520 -232 l 1,1,-1
 0 -232 l 1,2,-1
 0 -272 l 1,3,-1
 -520 -272 l 1,0,-1
-520 -158 m 1,4,-1
 -520 -118 l 1,5,-1
 0 -118 l 1,6,-1
 0 -158 l 1,7,-1
 -520 -158 l 1,4,-1
EndSplineSet
Validated: 1
Colour: ffff
EndChar

StartChar: uni0342
Encoding: 834 834 373
Width: 0
GlyphClass: 4
Flags: W
HStem: 553 20<-186.121 -140.07> 659 20<-383.93 -337.879>
VStem: -434 44<590 653.624> -134 44<578.376 642>
DStem2: -244 636 -322.5 637 0.730271 -0.683157<-85.2305 87.023>
AnchorPoint: "GreekTopMark" -262 508 mark 0
AnchorPoint: "GreekTop" -262 508 mark 0
LayerCount: 2
Fore
SplineSet
-434 600 m 0,0,1
 -434 637 -434 637 -408 658 c 128,-1,2
 -382 679 -382 679 -339 679 c 0,3,4
 -321 679 -321 679 -307.5 676.5 c 128,-1,5
 -294 674 -294 674 -280.5 665 c 128,-1,6
 -267 656 -267 656 -263.5 653 c 128,-1,7
 -260 650 -260 650 -244 636 c 0,8,9
 -226 617 -226 617 -201.5 595 c 128,-1,10
 -177 573 -177 573 -159 573 c 0,11,12
 -150 573 -150 573 -142 578.5 c 128,-1,13
 -134 584 -134 584 -134 594 c 0,14,15
 -134 607 -134 607 -147 614 c 0,16,17
 -170 628 -170 628 -170 649 c 0,18,19
 -170 661 -170 661 -161 670 c 128,-1,20
 -152 679 -152 679 -137 679 c 0,21,22
 -117 679 -117 679 -103.5 665.5 c 128,-1,23
 -90 652 -90 652 -90 632 c 0,24,25
 -90 595 -90 595 -116 574 c 128,-1,26
 -142 553 -142 553 -185 553 c 0,27,28
 -203 553 -203 553 -216.5 555.5 c 128,-1,29
 -230 558 -230 558 -243.5 567 c 128,-1,30
 -257 576 -257 576 -260.5 579 c 128,-1,31
 -264 582 -264 582 -280 596 c 0,32,33
 -298 615 -298 615 -322.5 637 c 128,-1,34
 -347 659 -347 659 -365 659 c 0,35,36
 -374 659 -374 659 -382 653.5 c 128,-1,37
 -390 648 -390 648 -390 638 c 0,38,39
 -390 625 -390 625 -377 618 c 0,40,41
 -354 604 -354 604 -354 583 c 0,42,43
 -354 571 -354 571 -363 562 c 128,-1,44
 -372 553 -372 553 -387 553 c 0,45,46
 -407 553 -407 553 -420.5 566.5 c 128,-1,47
 -434 580 -434 580 -434 600 c 0,0,1
EndSplineSet
Validated: 1
Colour: ffff
EndChar

StartChar: uni0343
Encoding: 835 835 374
Width: 0
GlyphClass: 4
Flags: W
HStem: 646 84<-298.608 -228.386>
VStem: -228 30<570.414 645.722>
AnchorPoint: "GreekTopMarkSunken" -262 508 mark 0
AnchorPoint: "GreekTopSunken" -262 508 mark 0
LayerCount: 2
Fore
SplineSet
-274 730 m 0,0,1
 -241 730 -241 730 -219.5 701.5 c 128,-1,2
 -198 673 -198 673 -198 635 c 0,3,4
 -198 554 -198 554 -273 508 c 1,5,-1
 -288 525 l 1,6,7
 -228 564 -228 564 -228 621 c 0,8,9
 -228 646 -228 646 -244 646 c 0,10,11
 -251 646 -251 646 -263 639 c 0,12,13
 -275 633 -275 633 -284 633 c 0,14,15
 -304 633 -304 633 -316 644 c 0,16,17
 -330 655 -330 655 -330 678 c 0,18,19
 -330 702 -330 702 -314 716 c 128,-1,20
 -298 730 -298 730 -274 730 c 0,0,1
EndSplineSet
Validated: 1
Colour: ffff
EndChar

StartChar: uni0344
Encoding: 836 836 375
Width: 0
GlyphClass: 4
Flags: W
HStem: 512 104<-404.53 -331.47 -192.53 -119.47>
VStem: -420 104<527.47 600.53> -232.5 70.5<678.375 757.996> -208 104<527.47 600.53>
AnchorPoint: "GreekTopMark" -262 508 mark 0
AnchorPoint: "GreekTop" -262 508 mark 0
LayerCount: 2
Fore
SplineSet
-156 616 m 256,0,1
 -134 616 -134 616 -119 601 c 128,-1,2
 -104 586 -104 586 -104 564 c 256,3,4
 -104 542 -104 542 -119 527 c 128,-1,5
 -134 512 -134 512 -156 512 c 256,6,7
 -178 512 -178 512 -193 527 c 128,-1,8
 -208 542 -208 542 -208 564 c 256,9,10
 -208 586 -208 586 -193 601 c 128,-1,11
 -178 616 -178 616 -156 616 c 256,0,1
-368 616 m 256,12,13
 -346 616 -346 616 -331 601 c 128,-1,14
 -316 586 -316 586 -316 564 c 256,15,16
 -316 542 -316 542 -331 527 c 128,-1,17
 -346 512 -346 512 -368 512 c 256,18,19
 -390 512 -390 512 -405 527 c 128,-1,20
 -420 542 -420 542 -420 564 c 256,21,22
 -420 586 -420 586 -405 601 c 128,-1,23
 -390 616 -390 616 -368 616 c 256,12,13
-194 762 m 0,24,25
 -162 762 -162 762 -162 731 c 0,26,27
 -162 720 -162 720 -165 711 c 128,-1,28
 -168 702 -168 702 -173 695 c 128,-1,29
 -178 688 -178 688 -184 678 c 2,30,-1
 -272 540 l 1,31,-1
 -292 550 l 1,32,-1
 -242 708 l 2,33,34
 -237 725 -237 725 -232.5 734.5 c 128,-1,35
 -228 744 -228 744 -218 753 c 128,-1,36
 -208 762 -208 762 -194 762 c 0,24,25
EndSplineSet
Validated: 1
Colour: ffff
EndChar

StartChar: uni0359
Encoding: 857 857 379
Width: 0
GlyphClass: 4
Flags: W
HStem: -235 45.5<-362.78 -309.857 -214.143 -161.22> -181 36<-282.809 -271.001 -252.999 -241.191> -136.5 45.5<-362.78 -309.857 -214.143 -161.22>
VStem: -286 48<-281.875 -183.656 -175.625 -150.375 -142.344 -44.125> -271 18<-225.996 -181 -145 -100.004>
CounterMasks: 1 e0
AnchorPoint: "Bottom" -262 0 mark 0
LayerCount: 2
Fore
SplineSet
-370 -212 m 0,0,1
 -370 -197 -370 -197 -357.5 -189.5 c 128,-1,2
 -345 -182 -345 -182 -322 -179 c 0,3,4
 -314 -178 -314 -178 -298.5 -172.5 c 128,-1,5
 -283 -167 -283 -167 -283 -163 c 256,6,7
 -283 -159 -283 -159 -298.5 -153.5 c 128,-1,8
 -314 -148 -314 -148 -322 -147 c 0,9,10
 -345 -144 -345 -144 -357.5 -136.5 c 128,-1,11
 -370 -129 -370 -129 -370 -114 c 0,12,13
 -370 -104 -370 -104 -363 -97.5 c 128,-1,14
 -356 -91 -356 -91 -345 -91 c 256,15,16
 -334 -91 -334 -91 -326 -97 c 128,-1,17
 -318 -103 -318 -103 -308 -115 c 0,18,19
 -300 -126 -300 -126 -289 -135.5 c 128,-1,20
 -278 -145 -278 -145 -274 -145 c 0,21,22
 -271 -145 -271 -145 -271 -143 c 0,23,24
 -271 -122 -271 -122 -280 -100 c 0,25,26
 -286 -85 -286 -85 -286 -71 c 0,27,28
 -286 -60 -286 -60 -278.5 -52 c 128,-1,29
 -271 -44 -271 -44 -262 -44 c 256,30,31
 -253 -44 -253 -44 -245.5 -52 c 128,-1,32
 -238 -60 -238 -60 -238 -71 c 0,33,34
 -238 -85 -238 -85 -244 -100 c 0,35,36
 -253 -122 -253 -122 -253 -143 c 0,37,38
 -253 -145 -253 -145 -250 -145 c 0,39,40
 -246 -145 -246 -145 -235 -135.5 c 128,-1,41
 -224 -126 -224 -126 -216 -115 c 0,42,43
 -206 -103 -206 -103 -198 -97 c 128,-1,44
 -190 -91 -190 -91 -179 -91 c 256,45,46
 -168 -91 -168 -91 -161 -97.5 c 128,-1,47
 -154 -104 -154 -104 -154 -114 c 0,48,49
 -154 -129 -154 -129 -166.5 -136.5 c 128,-1,50
 -179 -144 -179 -144 -202 -147 c 0,51,52
 -210 -148 -210 -148 -225.5 -153.5 c 128,-1,53
 -241 -159 -241 -159 -241 -163 c 256,54,55
 -241 -167 -241 -167 -225.5 -172.5 c 128,-1,56
 -210 -178 -210 -178 -202 -179 c 0,57,58
 -179 -182 -179 -182 -166.5 -189.5 c 128,-1,59
 -154 -197 -154 -197 -154 -212 c 0,60,61
 -154 -222 -154 -222 -161 -228.5 c 128,-1,62
 -168 -235 -168 -235 -179 -235 c 256,63,64
 -190 -235 -190 -235 -198 -229 c 128,-1,65
 -206 -223 -206 -223 -216 -211 c 0,66,67
 -224 -200 -224 -200 -235 -190.5 c 128,-1,68
 -246 -181 -246 -181 -250 -181 c 0,69,70
 -253 -181 -253 -181 -253 -183 c 0,71,72
 -253 -204 -253 -204 -244 -226 c 0,73,74
 -238 -241 -238 -241 -238 -255 c 0,75,76
 -238 -266 -238 -266 -245.5 -274 c 128,-1,77
 -253 -282 -253 -282 -262 -282 c 256,78,79
 -271 -282 -271 -282 -278.5 -274 c 128,-1,80
 -286 -266 -286 -266 -286 -255 c 0,81,82
 -286 -241 -286 -241 -280 -226 c 0,83,84
 -271 -204 -271 -204 -271 -183 c 0,85,86
 -271 -181 -271 -181 -274 -181 c 0,87,88
 -278 -181 -278 -181 -289 -190.5 c 128,-1,89
 -300 -200 -300 -200 -308 -211 c 0,90,91
 -318 -223 -318 -223 -326 -229 c 128,-1,92
 -334 -235 -334 -235 -345 -235 c 256,93,94
 -356 -235 -356 -235 -363 -228.5 c 128,-1,95
 -370 -222 -370 -222 -370 -212 c 0,0,1
EndSplineSet
Validated: 1
EndChar

StartChar: uni035C
Encoding: 860 860 380
Width: 0
GlyphClass: 2
Flags: W
HStem: -238 56<-121.369 121.369>
LayerCount: 2
Fore
SplineSet
0 -238 m 256,0,1
 -143 -238 -143 -238 -298 -116 c 1,2,-1
 -290 -100 l 1,3,4
 -159 -182 -159 -182 0 -182 c 256,5,6
 159 -182 159 -182 290 -100 c 1,7,-1
 298 -116 l 1,8,9
 143 -238 143 -238 0 -238 c 256,0,1
EndSplineSet
Validated: 1
Colour: ffff
EndChar

StartChar: uni035D
Encoding: 861 861 381
Width: 0
GlyphClass: 2
Flags: W
HStem: 682 56<-121.369 121.369>
LayerCount: 2
Fore
SplineSet
0 682 m 256,0,1
 -143 682 -143 682 -298 804 c 1,2,-1
 -290 820 l 1,3,4
 -159 738 -159 738 0 738 c 256,5,6
 159 738 159 738 290 820 c 1,7,-1
 298 804 l 1,8,9
 143 682 143 682 0 682 c 256,0,1
EndSplineSet
Validated: 1
Colour: ffff
EndChar

StartChar: uni0361
Encoding: 865 865 382
Width: 0
GlyphClass: 2
Flags: W
HStem: 764 56<-121.369 121.369>
LayerCount: 2
Fore
SplineSet
0 820 m 256,0,1
 143 820 143 820 298 698 c 1,2,-1
 290 682 l 1,3,4
 159 764 159 764 0 764 c 256,5,6
 -159 764 -159 764 -290 682 c 1,7,-1
 -298 698 l 1,8,9
 -143 820 -143 820 0 820 c 256,0,1
EndSplineSet
Validated: 1
Colour: ffff
EndChar

StartChar: uni0363
Encoding: 867 867 383
Width: 0
GlyphClass: 4
Flags: W
HStem: 528 24<-315.982 -271.878 -172.859 -143.88> 784 16<-312.854 -247.785>
VStem: -386 60<558.441 637.951> -363 32<719 771.923> -227 50<556.93 664 681 775.088> -134 14<569.328 608>
DStem2: -279 672 -276 656 0.985351 0.170541<-35.8648 49.8739>
AnchorPoint: "Top" -262 508 mark 0
LayerCount: 2
Fore
SplineSet
-326 595 m 0,0,1
 -326 572 -326 572 -315.5 562 c 128,-1,2
 -305 552 -305 552 -292 552 c 0,3,4
 -278 552 -278 552 -267 557.5 c 128,-1,5
 -256 563 -256 563 -248 573.5 c 128,-1,6
 -240 584 -240 584 -236 592 c 128,-1,7
 -232 600 -232 600 -227 611 c 1,8,-1
 -227 664 l 1,9,-1
 -276 656 l 2,10,11
 -304 651 -304 651 -315 636.5 c 128,-1,12
 -326 622 -326 622 -326 595 c 0,0,1
-386 589 m 0,13,14
 -386 610 -386 610 -376 626 c 128,-1,15
 -366 642 -366 642 -348 651 c 128,-1,16
 -330 660 -330 660 -315 664 c 128,-1,17
 -300 668 -300 668 -279 672 c 2,18,-1
 -227 681 l 1,19,-1
 -227 730 l 2,20,21
 -227 784 -227 784 -280 784 c 0,22,23
 -299 784 -299 784 -315 775 c 128,-1,24
 -331 766 -331 766 -331 756 c 128,-1,25
 -331 746 -331 746 -319 741 c 0,26,27
 -299 734 -299 734 -299 713 c 0,28,29
 -299 700 -299 700 -307.5 694 c 128,-1,30
 -316 688 -316 688 -327 688 c 0,31,32
 -340 688 -340 688 -351.5 699 c 128,-1,33
 -363 710 -363 710 -363 728 c 0,34,35
 -363 762 -363 762 -337 781 c 128,-1,36
 -311 800 -311 800 -277 800 c 0,37,38
 -236 800 -236 800 -206.5 781 c 128,-1,39
 -177 762 -177 762 -177 721 c 2,40,-1
 -177 585 l 2,41,42
 -177 556 -177 556 -160 556 c 0,43,44
 -134 556 -134 556 -134 608 c 1,45,-1
 -120 608 l 1,46,47
 -120 528 -120 528 -171 528 c 0,48,49
 -226 528 -226 528 -227 584 c 1,50,-1
 -230 585 l 1,51,52
 -240 564 -240 564 -263 546 c 128,-1,53
 -286 528 -286 528 -314 528 c 0,54,55
 -344 528 -344 528 -365 543 c 128,-1,56
 -386 558 -386 558 -386 589 c 0,13,14
EndSplineSet
Validated: 1
EndChar

StartChar: uni0364
Encoding: 868 868 384
Width: 0
GlyphClass: 4
Flags: W
HStem: 528 17<-291.828 -224.307> 659 20<-326 -220> 783 17<-296.395 -249.669>
VStem: -388 62<582.345 659 679 743.102> -220 60<679 746.364> -182 16<591.081 622>
AnchorPoint: "Top" -262 508 mark 0
LayerCount: 2
Fore
SplineSet
-326 679 m 1,0,-1
 -220 679 l 1,1,2
 -220 706 -220 706 -224.5 728 c 128,-1,3
 -229 750 -229 750 -241.5 766.5 c 128,-1,4
 -254 783 -254 783 -273 783 c 128,-1,5
 -292 783 -292 783 -304.5 766.5 c 128,-1,6
 -317 750 -317 750 -321.5 728 c 128,-1,7
 -326 706 -326 706 -326 679 c 1,0,-1
-388 664 m 0,8,9
 -388 718 -388 718 -355 759 c 128,-1,10
 -322 800 -322 800 -270 800 c 0,11,12
 -242 800 -242 800 -220 787 c 128,-1,13
 -198 774 -198 774 -185.5 753 c 128,-1,14
 -173 732 -173 732 -166.5 708 c 128,-1,15
 -160 684 -160 684 -160 659 c 1,16,-1
 -326 659 l 1,17,18
 -326 632 -326 632 -323 613 c 128,-1,19
 -320 594 -320 594 -313 578 c 128,-1,20
 -306 562 -306 562 -292 553.5 c 128,-1,21
 -278 545 -278 545 -259 545 c 0,22,23
 -232 545 -232 545 -210 562.5 c 128,-1,24
 -188 580 -188 580 -182 622 c 1,25,-1
 -166 622 l 1,26,27
 -169 581 -169 581 -194.5 554.5 c 128,-1,28
 -220 528 -220 528 -263 528 c 0,29,30
 -320 528 -320 528 -354 566 c 128,-1,31
 -388 604 -388 604 -388 664 c 0,8,9
EndSplineSet
Validated: 1
EndChar

StartChar: uni0365
Encoding: 869 869 385
Width: 0
GlyphClass: 4
Flags: W
HStem: 536 16<-324 -286.875 -235.125 -198> 774 16<-324 -286.875> 846 72<-291.171 -240.829>
VStem: -302 72<856.829 907.171> -286 50<552 774>
AnchorPoint: "Top" -262 508 mark 0
LayerCount: 2
Fore
SplineSet
-302 882 m 256,0,1
 -302 897 -302 897 -291.5 907.5 c 128,-1,2
 -281 918 -281 918 -266 918 c 256,3,4
 -251 918 -251 918 -240.5 907.5 c 128,-1,5
 -230 897 -230 897 -230 882 c 256,6,7
 -230 867 -230 867 -240.5 856.5 c 128,-1,8
 -251 846 -251 846 -266 846 c 256,9,10
 -281 846 -281 846 -291.5 856.5 c 128,-1,11
 -302 867 -302 867 -302 882 c 256,0,1
-324 536 m 1,12,-1
 -324 552 l 1,13,-1
 -300 552 l 2,14,15
 -286 552 -286 552 -286 566 c 2,16,-1
 -286 760 l 2,17,18
 -286 774 -286 774 -300 774 c 2,19,-1
 -324 774 l 1,20,-1
 -324 790 l 1,21,-1
 -236 790 l 1,22,-1
 -236 566 l 2,23,24
 -236 552 -236 552 -222 552 c 2,25,-1
 -198 552 l 1,26,-1
 -198 536 l 1,27,-1
 -324 536 l 1,12,-1
EndSplineSet
Validated: 1
EndChar

StartChar: uni0366
Encoding: 870 870 386
Width: 0
GlyphClass: 4
Flags: W
HStem: 528 16<-289.793 -234.207> 784 16<-289.793 -234.207>
VStem: -387 62<588.095 739.905> -199 62<588.095 739.905>
AnchorPoint: "Top" -262 508 mark 0
LayerCount: 2
Fore
SplineSet
-325 664 m 128,-1,1
 -325 544 -325 544 -262 544 c 128,-1,2
 -199 544 -199 544 -199 664 c 128,-1,3
 -199 784 -199 784 -262 784 c 128,-1,0
 -325 784 -325 784 -325 664 c 128,-1,1
-387 664 m 128,-1,5
 -387 720 -387 720 -350.5 760 c 128,-1,6
 -314 800 -314 800 -262 800 c 128,-1,7
 -210 800 -210 800 -173.5 760 c 128,-1,8
 -137 720 -137 720 -137 664 c 128,-1,9
 -137 608 -137 608 -173.5 568 c 128,-1,10
 -210 528 -210 528 -262 528 c 128,-1,11
 -314 528 -314 528 -350.5 568 c 128,-1,4
 -387 608 -387 608 -387 664 c 128,-1,5
EndSplineSet
Validated: 1
EndChar

StartChar: uni0367
Encoding: 871 871 387
Width: 0
GlyphClass: 4
Flags: W
HStem: 528 16<-321.272 -278.319> 536 16<-175.125 -138> 773 17<-424 -386.769 -266 -226.769>
VStem: -386 50<561.533 773> -226 50<552 773>
AnchorPoint: "Top" -262 508 mark 0
LayerCount: 2
Fore
SplineSet
-424 773 m 1,0,-1
 -424 790 l 1,1,-1
 -336 790 l 1,2,-1
 -336 602 l 2,3,4
 -336 578 -336 578 -328 561 c 128,-1,5
 -320 544 -320 544 -300 544 c 0,6,7
 -275 544 -275 544 -250.5 576 c 128,-1,8
 -226 608 -226 608 -226 649 c 2,9,-1
 -226 759 l 2,10,11
 -226 773 -226 773 -240 773 c 2,12,-1
 -266 773 l 1,13,-1
 -266 790 l 1,14,-1
 -176 790 l 1,15,-1
 -176 566 l 2,16,17
 -176 552 -176 552 -162 552 c 2,18,-1
 -138 552 l 1,19,-1
 -138 536 l 1,20,-1
 -226 536 l 1,21,-1
 -226 591 l 1,22,-1
 -228 591 l 1,23,24
 -244 561 -244 561 -265 544.5 c 128,-1,25
 -286 528 -286 528 -310 528 c 0,26,27
 -338 528 -338 528 -359 542 c 0,28,29
 -386 564 -386 564 -386 611 c 2,30,-1
 -386 759 l 2,31,32
 -386 773 -386 773 -400 773 c 2,33,-1
 -424 773 l 1,0,-1
EndSplineSet
Validated: 1
EndChar

StartChar: uni0368
Encoding: 872 872 388
Width: 0
GlyphClass: 4
Flags: W
HStem: 528 16<-291.654 -225.636> 784 16<-291.904 -228.914>
VStem: -384 62<583.329 744.671> -208 36<716.5 769.726> -184 16<593.539 624>
AnchorPoint: "Top" -262 508 mark 0
LayerCount: 2
Fore
SplineSet
-384 664 m 128,-1,1
 -384 722 -384 722 -350 761 c 128,-1,2
 -316 800 -316 800 -263 800 c 0,3,4
 -222 800 -222 800 -197 777 c 128,-1,5
 -172 754 -172 754 -172 725 c 0,6,7
 -172 708 -172 708 -181.5 696 c 128,-1,8
 -191 684 -191 684 -206 684 c 0,9,10
 -218 684 -218 684 -225.5 691 c 128,-1,11
 -233 698 -233 698 -233 708 c 0,12,13
 -233 724 -233 724 -218 732 c 0,14,15
 -208 737 -208 737 -208 747 c 0,16,17
 -208 758 -208 758 -222 771 c 128,-1,18
 -236 784 -236 784 -262 784 c 0,19,20
 -280 784 -280 784 -292.5 776 c 128,-1,21
 -305 768 -305 768 -311.5 750.5 c 128,-1,22
 -318 733 -318 733 -320 713 c 128,-1,23
 -322 693 -322 693 -322 664 c 128,-1,24
 -322 635 -322 635 -320 615 c 128,-1,25
 -318 595 -318 595 -311 577.5 c 128,-1,26
 -304 560 -304 560 -292 552 c 128,-1,27
 -280 544 -280 544 -260 544 c 0,28,29
 -225 544 -225 544 -206.5 568 c 128,-1,30
 -188 592 -188 592 -184 624 c 1,31,-1
 -168 624 l 1,32,33
 -170 586 -170 586 -194 557 c 128,-1,34
 -218 528 -218 528 -263 528 c 0,35,36
 -316 528 -316 528 -350 567 c 128,-1,0
 -384 606 -384 606 -384 664 c 128,-1,1
EndSplineSet
Validated: 1
EndChar

StartChar: uni0369
Encoding: 873 873 389
Width: 0
GlyphClass: 4
Flags: W
HStem: 528 16<-319.604 -266.998> 536 16<-179.125 -142> 782 16<-319.934 -272.133> 908 16<-282 -230.875>
VStem: -408 63<578.144 748.662> -230 50<552 563 565.02 753.838 754 908>
AnchorPoint: "Top" -262 508 mark 0
LayerCount: 2
Fore
SplineSet
-345 663 m 128,-1,1
 -345 606 -345 606 -334.5 575 c 128,-1,2
 -324 544 -324 544 -297 544 c 0,3,4
 -266 544 -266 544 -247.5 570.5 c 128,-1,5
 -229 597 -229 597 -229 630 c 2,6,-1
 -229 682 l 2,7,8
 -229 720 -229 720 -250 751 c 128,-1,9
 -271 782 -271 782 -297 782 c 0,10,11
 -324 782 -324 782 -334.5 751 c 128,-1,0
 -345 720 -345 720 -345 663 c 128,-1,1
-408 663 m 0,12,13
 -408 721 -408 721 -379 759.5 c 128,-1,14
 -350 798 -350 798 -303 798 c 0,15,16
 -282 798 -282 798 -263 786 c 128,-1,17
 -244 774 -244 774 -233 753 c 1,18,-1
 -230 754 l 1,19,-1
 -230 894 l 2,20,21
 -230 908 -230 908 -244 908 c 2,22,-1
 -282 908 l 1,23,-1
 -282 924 l 1,24,-1
 -180 924 l 1,25,-1
 -180 566 l 2,26,27
 -180 552 -180 552 -166 552 c 2,28,-1
 -142 552 l 1,29,-1
 -142 536 l 1,30,-1
 -230 536 l 1,31,-1
 -230 563 l 1,32,-1
 -233 564 l 1,33,34
 -244 548 -244 548 -262.5 538 c 128,-1,35
 -281 528 -281 528 -302 528 c 0,36,37
 -350 528 -350 528 -379 567 c 128,-1,38
 -408 606 -408 606 -408 663 c 0,12,13
EndSplineSet
Validated: 1
EndChar

StartChar: uni036A
Encoding: 874 874 390
Width: 0
GlyphClass: 4
Flags: W
HStem: 536 16<-410 -368.875 -317.125 -280 -244 -206.875 -155.125 -118> 784 16<-267.211 -221.474> 908 16<-410 -368.875>
VStem: -368 50<552 908> -206 50<552 766.467>
AnchorPoint: "Top" -262 508 mark 0
LayerCount: 2
Fore
SplineSet
-410 536 m 1,0,-1
 -410 552 l 1,1,-1
 -382 552 l 2,2,3
 -368 552 -368 552 -368 566 c 2,4,-1
 -368 894 l 2,5,6
 -368 908 -368 908 -382 908 c 2,7,-1
 -410 908 l 1,8,-1
 -410 924 l 1,9,-1
 -318 924 l 1,10,-1
 -318 740 l 1,11,-1
 -316 740 l 1,12,13
 -284 800 -284 800 -233 800 c 0,14,15
 -204 800 -204 800 -185 786 c 0,16,17
 -170 775 -170 775 -163 755.5 c 128,-1,18
 -156 736 -156 736 -156 717 c 2,19,-1
 -156 566 l 2,20,21
 -156 552 -156 552 -142 552 c 2,22,-1
 -118 552 l 1,23,-1
 -118 536 l 1,24,-1
 -244 536 l 1,25,-1
 -244 552 l 1,26,-1
 -220 552 l 2,27,28
 -206 552 -206 552 -206 566 c 2,29,-1
 -206 727 l 2,30,31
 -206 750 -206 750 -214.5 767 c 128,-1,32
 -223 784 -223 784 -243 784 c 0,33,34
 -268 784 -268 784 -293 753 c 128,-1,35
 -318 722 -318 722 -318 680 c 2,36,-1
 -318 566 l 2,37,38
 -318 552 -318 552 -304 552 c 2,39,-1
 -280 552 l 1,40,-1
 -280 536 l 1,41,-1
 -410 536 l 1,0,-1
EndSplineSet
Validated: 1
EndChar

StartChar: uni036B
Encoding: 875 875 391
Width: 0
GlyphClass: 4
Flags: W
HStem: 536 16<-480 -442.875 -391.125 -354 -324 -286.875 -235.125 -198 -168 -130.875 -79.125 -42> 774 16<-480 -442.875> 782 16<-343.548 -301.557 -190.957 -145.221>
VStem: -442 50<552 774> -286 50<552 750.994> -130 50<552 764.467>
CounterMasks: 1 1c
AnchorPoint: "Top" -262 508 mark 0
LayerCount: 2
Fore
SplineSet
-480 536 m 1,0,-1
 -480 552 l 1,1,-1
 -456 552 l 2,2,3
 -442 552 -442 552 -442 566 c 2,4,-1
 -442 760 l 2,5,6
 -442 774 -442 774 -456 774 c 2,7,-1
 -480 774 l 1,8,-1
 -480 790 l 1,9,-1
 -392 790 l 1,10,-1
 -392 739 l 1,11,-1
 -389 739 l 1,12,13
 -358 798 -358 798 -313 798 c 0,14,15
 -282 798 -282 798 -263 784 c 0,16,17
 -248 770 -248 770 -240 745 c 1,18,-1
 -237 745 l 1,19,20
 -205 798 -205 798 -160 798 c 0,21,22
 -129 798 -129 798 -108 784 c 0,23,24
 -93 773 -93 773 -86.5 753.5 c 128,-1,25
 -80 734 -80 734 -80 715 c 2,26,-1
 -80 566 l 2,27,28
 -80 552 -80 552 -66 552 c 2,29,-1
 -42 552 l 1,30,-1
 -42 536 l 1,31,-1
 -168 536 l 1,32,-1
 -168 552 l 1,33,-1
 -144 552 l 2,34,35
 -130 552 -130 552 -130 566 c 2,36,-1
 -130 725 l 2,37,38
 -130 748 -130 748 -138.5 765 c 128,-1,39
 -147 782 -147 782 -167 782 c 0,40,41
 -192 782 -192 782 -214 751 c 128,-1,42
 -236 720 -236 720 -236 678 c 2,43,-1
 -236 566 l 2,44,45
 -236 552 -236 552 -222 552 c 2,46,-1
 -198 552 l 1,47,-1
 -198 536 l 1,48,-1
 -324 536 l 1,49,-1
 -324 552 l 1,50,-1
 -300 552 l 2,51,52
 -286 552 -286 552 -286 566 c 2,53,-1
 -286 725 l 2,54,55
 -286 748 -286 748 -294.5 765 c 128,-1,56
 -303 782 -303 782 -323 782 c 0,57,58
 -348 782 -348 782 -370 751 c 128,-1,59
 -392 720 -392 720 -392 678 c 2,60,-1
 -392 566 l 2,61,62
 -392 552 -392 552 -378 552 c 2,63,-1
 -354 552 l 1,64,-1
 -354 536 l 1,65,-1
 -480 536 l 1,0,-1
EndSplineSet
Validated: 1
EndChar

StartChar: uni036C
Encoding: 876 876 392
Width: 0
GlyphClass: 4
Flags: W
HStem: 536 16<-348 -310.875 -259.125 -222> 711 21G<-172.5 -158.5> 774 16<-348 -310.875> 782 16<-206.243 -168.582>
VStem: -310 50<552 774> -168 36<744 781.89>
AnchorPoint: "Top" -262 508 mark 0
LayerCount: 2
Fore
SplineSet
-348 536 m 1,0,-1
 -348 552 l 1,1,-1
 -324 552 l 2,2,3
 -310 552 -310 552 -310 566 c 2,4,-1
 -310 760 l 2,5,6
 -310 774 -310 774 -324 774 c 2,7,-1
 -348 774 l 1,8,-1
 -348 790 l 1,9,-1
 -260 790 l 1,10,-1
 -260 718 l 1,11,-1
 -257 717 l 1,12,13
 -246 748 -246 748 -231 768 c 0,14,15
 -221 782 -221 782 -206.5 790 c 128,-1,16
 -192 798 -192 798 -177 798 c 0,17,18
 -154 798 -154 798 -143 784 c 128,-1,19
 -132 770 -132 770 -132 751 c 0,20,21
 -132 737 -132 737 -141 724 c 128,-1,22
 -150 711 -150 711 -167 711 c 0,23,24
 -178 711 -178 711 -185.5 717.5 c 128,-1,25
 -193 724 -193 724 -193 734 c 0,26,27
 -193 750 -193 750 -180 757 c 0,28,29
 -168 764 -168 764 -168 771 c 0,30,31
 -168 782 -168 782 -183 782 c 0,32,33
 -220 782 -220 782 -245 713 c 0,34,35
 -260 674 -260 674 -260 636 c 2,36,-1
 -260 566 l 2,37,38
 -260 552 -260 552 -246 552 c 2,39,-1
 -222 552 l 1,40,-1
 -222 536 l 1,41,-1
 -348 536 l 1,0,-1
EndSplineSet
Validated: 1
EndChar

StartChar: uni036D
Encoding: 877 877 393
Width: 0
GlyphClass: 4
Flags: W
HStem: 528 29<-267.289 -215.723> 758 20<-364 -322.24 -272 -202>
VStem: -322 50<557.87 758> -292 20<811.992 864> -204 14<579.773 624>
AnchorPoint: "Top" -262 508 mark 0
LayerCount: 2
Fore
SplineSet
-364 758 m 1,0,-1
 -364 778 l 1,1,-1
 -350 778 l 2,2,3
 -329 778 -329 778 -315.5 792.5 c 128,-1,4
 -302 807 -302 807 -297 825 c 128,-1,5
 -292 843 -292 843 -292 864 c 1,6,-1
 -272 864 l 1,7,-1
 -272 778 l 1,8,-1
 -202 778 l 1,9,-1
 -202 758 l 1,10,-1
 -272 758 l 1,11,-1
 -272 595 l 2,12,13
 -272 557 -272 557 -243 557 c 0,14,15
 -204 557 -204 557 -204 624 c 1,16,-1
 -190 624 l 1,17,18
 -190 528 -190 528 -256 528 c 0,19,20
 -284 528 -284 528 -303 547 c 128,-1,21
 -322 566 -322 566 -322 596 c 2,22,-1
 -322 758 l 1,23,-1
 -364 758 l 1,0,-1
EndSplineSet
Validated: 1
EndChar

StartChar: uni036E
Encoding: 878 878 394
Width: 0
GlyphClass: 4
Flags: W
HStem: 774 16<-416 -382.562 -317.418 -286 -233 -204.188 -160 -126>
VStem: -416 290
DStem2: -314 744 -368 742 0.419865 -0.907587<-16.4491 152.118> -250 606 -258 528 0.357809 0.933795<0 154.618>
AnchorPoint: "Top" -262 508 mark 0
LayerCount: 2
Fore
SplineSet
-416 774 m 1,0,-1
 -416 790 l 1,1,-1
 -286 790 l 1,2,-1
 -286 774 l 1,3,-1
 -303 774 l 2,4,5
 -309 774 -309 774 -314 770 c 128,-1,6
 -319 766 -319 766 -319 760 c 128,-1,7
 -319 754 -319 754 -314 744 c 2,8,-1
 -250 606 l 1,9,-1
 -204 726 l 2,10,11
 -198 741 -198 741 -198 752 c 0,12,13
 -198 762 -198 762 -204 768 c 128,-1,14
 -210 774 -210 774 -219 774 c 2,15,-1
 -233 774 l 1,16,-1
 -233 790 l 1,17,-1
 -126 790 l 1,18,-1
 -126 774 l 1,19,-1
 -138 774 l 2,20,21
 -163 774 -163 774 -176 742 c 2,22,-1
 -258 528 l 1,23,-1
 -269 528 l 1,24,-1
 -368 742 l 2,25,26
 -376 759 -376 759 -383 766.5 c 128,-1,27
 -390 774 -390 774 -403 774 c 2,28,-1
 -416 774 l 1,0,-1
EndSplineSet
Validated: 1
EndChar

StartChar: uni036F
Encoding: 879 879 395
Width: 0
GlyphClass: 4
Flags: W
HStem: 536 16<-392 -357.25 -315.6 -294 -250 -224.144 -158.674 -124> 774 16<-394 -361.07 -294.756 -273 -238 -212.424 -173.168 -136>
VStem: -394 270
DStem2: -291 752 -358 762 0.567434 -0.823419<-11.1473 68.2414 104.651 194.313> -336 583 -309 588 0.595228 0.803557<0.286882 82.2902 140.801 216.382>
AnchorPoint: "Top" -262 508 mark 0
LayerCount: 2
Fore
SplineSet
-394 774 m 1,0,-1
 -394 790 l 1,1,-1
 -273 790 l 1,2,-1
 -273 774 l 1,3,-1
 -285 774 l 2,4,5
 -295 774 -295 774 -295 763 c 0,6,7
 -295 756 -295 756 -291 752 c 2,8,-1
 -252 696 l 1,9,-1
 -216 744 l 2,10,11
 -211 750 -211 750 -211 760 c 0,12,13
 -211 766 -211 766 -215.5 770 c 128,-1,14
 -220 774 -220 774 -225 774 c 2,15,-1
 -238 774 l 1,16,-1
 -238 790 l 1,17,-1
 -136 790 l 1,18,-1
 -136 774 l 1,19,-1
 -150 774 l 2,20,21
 -172 774 -172 774 -189 750 c 2,22,-1
 -241 679 l 1,23,-1
 -164 567 l 2,24,25
 -160 562 -160 562 -158 559 c 128,-1,26
 -156 556 -156 556 -150 554 c 128,-1,27
 -144 552 -144 552 -136 552 c 2,28,-1
 -124 552 l 1,29,-1
 -124 536 l 1,30,-1
 -250 536 l 1,31,-1
 -250 552 l 1,32,-1
 -236 552 l 2,33,34
 -224 552 -224 552 -224 562 c 0,35,36
 -224 568 -224 568 -228 574 c 2,37,-1
 -272 638 l 1,38,-1
 -309 588 l 2,39,40
 -317 578 -317 578 -317 569 c 0,41,42
 -317 552 -317 552 -304 552 c 2,43,-1
 -294 552 l 1,44,-1
 -294 536 l 1,45,-1
 -392 536 l 1,46,-1
 -392 552 l 1,47,-1
 -377 552 l 2,48,49
 -358 552 -358 552 -336 583 c 2,50,-1
 -284 654 l 1,51,-1
 -358 762 l 2,52,53
 -362 768 -362 768 -366.5 771 c 128,-1,54
 -371 774 -371 774 -381 774 c 2,55,-1
 -394 774 l 1,0,-1
EndSplineSet
Validated: 1
EndChar

StartChar: uni0374
Encoding: 884 884 396
Width: 240
GlyphClass: 2
Flags: W
HStem: 508 222
VStem: 46 162
LayerCount: 2
Fore
SplineSet
177 730 m 0,0,1
 190 730 190 730 199 721.5 c 128,-1,2
 208 713 208 713 208 701 c 0,3,4
 208 673 208 673 176 639 c 2,5,-1
 64 508 l 1,6,-1
 46 520 l 1,7,-1
 120 676 l 2,8,9
 132 702 132 702 144.5 716 c 128,-1,10
 157 730 157 730 177 730 c 0,0,1
EndSplineSet
Validated: 1
EndChar

StartChar: uni0375
Encoding: 885 885 397
Width: 240
GlyphClass: 2
Flags: W
HStem: -282 222
VStem: 32 162
LayerCount: 2
Fore
SplineSet
63 -282 m 0,0,1
 50 -282 50 -282 41 -273.5 c 128,-1,2
 32 -265 32 -265 32 -253 c 0,3,4
 32 -225 32 -225 64 -191 c 2,5,-1
 176 -60 l 1,6,-1
 194 -72 l 1,7,-1
 120 -228 l 2,8,9
 108 -254 108 -254 95.5 -268 c 128,-1,10
 83 -282 83 -282 63 -282 c 0,0,1
EndSplineSet
Validated: 1
EndChar

StartChar: uni037A
Encoding: 890 890 398
Width: 440
GlyphClass: 2
Flags: W
HStem: -282 198<203.25 236.75>
VStem: 176 88<-275.619 -128> 202 36<-140.545 -84.0063>
LayerCount: 2
Fore
SplineSet
220 -84 m 256,0,1
 232 -84 232 -84 238 -110 c 2,2,-1
 260 -206 l 2,3,4
 264 -224 264 -224 264 -238 c 0,5,6
 264 -255 264 -255 251 -268.5 c 128,-1,7
 238 -282 238 -282 220 -282 c 256,8,9
 202 -282 202 -282 189 -268.5 c 128,-1,10
 176 -255 176 -255 176 -238 c 0,11,12
 176 -224 176 -224 180 -206 c 2,13,-1
 202 -110 l 2,14,15
 208 -84 208 -84 220 -84 c 256,0,1
EndSplineSet
Validated: 1
EndChar

StartChar: uni0511
Encoding: 1297 1297 488
Width: 442
GlyphClass: 2
Flags: W
HStem: -12 24<181.888 306.42> 218 32<163.759 282> 444 24<183.288 305.28>
VStem: 44 88<47.7792 182.831> 53 76<273.454 399.952> 334 72<333.634 411.999> 357 53<49.4564 128>
AnchorPoint: "Top" 224 508 basechar 0
LayerCount: 2
Fore
SplineSet
44 117 m 0,0,1
 44 191 44 191 130 232 c 1,2,-1
 130 238 l 1,3,4
 99 248 99 248 76 272 c 128,-1,5
 53 296 53 296 53 332 c 0,6,7
 53 379 53 379 84 411 c 128,-1,8
 115 443 115 443 156 455.5 c 128,-1,9
 197 468 197 468 243 468 c 0,10,11
 307 468 307 468 356.5 436 c 128,-1,12
 406 404 406 404 406 354 c 0,13,14
 406 333 406 333 394 320.5 c 128,-1,15
 382 308 382 308 360 308 c 0,16,17
 343 308 343 308 332.5 318.5 c 128,-1,18
 322 329 322 329 322 346 c 0,19,20
 322 358 322 358 328 375 c 0,21,22
 334 388 334 388 334 401 c 0,23,24
 334 421 334 421 304.5 432.5 c 128,-1,25
 275 444 275 444 240 444 c 0,26,27
 194 444 194 444 161.5 419 c 128,-1,28
 129 394 129 394 129 338 c 0,29,30
 129 250 129 250 206 250 c 2,31,-1
 282 250 l 1,32,-1
 282 218 l 1,33,-1
 206 218 l 2,34,35
 170 218 170 218 151 188.5 c 128,-1,36
 132 159 132 159 132 123 c 0,37,38
 132 70 132 70 159.5 41 c 128,-1,39
 187 12 187 12 230 12 c 0,40,41
 275 12 275 12 316 27 c 128,-1,42
 357 42 357 42 357 68 c 0,43,44
 357 87 357 87 344 100 c 0,45,46
 327 117 327 117 327 136 c 0,47,48
 327 172 327 172 363 172 c 0,49,50
 385 172 385 172 397.5 157 c 128,-1,51
 410 142 410 142 410 114 c 0,52,53
 410 54 410 54 355 21 c 128,-1,54
 300 -12 300 -12 218 -12 c 0,55,56
 149 -12 149 -12 96.5 20.5 c 128,-1,57
 44 53 44 53 44 117 c 0,0,1
EndSplineSet
Validated: 1
Colour: ffff
EndChar

StartChar: afii57664
Encoding: 1488 1488 489
Width: 570
GlyphClass: 2
Flags: W
VStem: 62 40<139.5 278.224> 74 158<6.50891 114.472> 84 51<451.212 553.473> 395 121<336.463 385.826> 420 62<21.9119 108.307>
DStem2: 192 410 136 317 0.747752 -0.663979<17.3252 196.862 235.329 403.734>
LayerCount: 2
Fore
SplineSet
72 426 m 0,0,1
 72 472 72 472 84 514 c 128,-1,2
 96 556 96 556 114 556 c 0,3,4
 131 556 131 556 135 510 c 0,5,6
 139 458 139 458 192 410 c 2,7,-1
 327 292 l 1,8,9
 348 292 348 292 363 299 c 0,10,11
 376 305 376 305 385.5 315.5 c 128,-1,12
 395 326 395 326 395 338 c 0,13,14
 395 368 395 368 365 394 c 0,15,16
 338 418 338 418 338 452 c 0,17,18
 338 482 338 482 373 519 c 128,-1,19
 408 556 408 556 429 556 c 0,20,21
 444 556 444 556 444 532 c 256,22,23
 444 508 444 508 456 492 c 2,24,-1
 493 444 l 2,25,26
 516 414 516 414 516 384 c 0,27,28
 516 365 516 365 493.5 335.5 c 128,-1,29
 471 306 471 306 454 306 c 0,30,31
 446 306 446 306 441 310 c 0,32,33
 434 315 434 315 428 315 c 0,34,35
 410 315 410 315 396 298 c 0,36,37
 381 278 381 278 378 246 c 1,38,-1
 412 217 l 2,39,40
 448 186 448 186 465 161 c 128,-1,41
 482 136 482 136 482 101 c 0,42,43
 482 65 482 65 462.5 26.5 c 128,-1,44
 443 -12 443 -12 425 -12 c 0,45,46
 416 -12 416 -12 416 -5 c 0,47,48
 416 -1 416 -1 418 7 c 128,-1,49
 420 15 420 15 420 29 c 0,50,51
 420 65 420 65 377 103 c 2,52,-1
 136 317 l 1,53,54
 118 304 118 304 110 288.5 c 128,-1,55
 102 273 102 273 102 249 c 0,56,57
 102 204 102 204 127 184 c 2,58,-1
 201 124 l 2,59,60
 212 115 212 115 222 95.5 c 128,-1,61
 232 76 232 76 232 54 c 0,62,63
 232 -12 232 -12 182 -12 c 2,64,-1
 94 -12 l 2,65,66
 82 -12 82 -12 73 -3.5 c 128,-1,67
 64 5 64 5 64 17 c 0,68,69
 64 24 64 24 70 32 c 0,70,71
 74 37 74 37 74 48 c 0,72,73
 74 70 74 70 67 95 c 0,74,75
 62 116 62 116 62 163 c 0,76,77
 62 221 62 221 77 265 c 0,78,79
 89 301 89 301 115 336 c 1,80,81
 98 352 98 352 85 378 c 128,-1,82
 72 404 72 404 72 426 c 0,0,1
EndSplineSet
Validated: 1
EndChar

StartChar: uni1D79
Encoding: 7545 7545 490
Width: 438
GlyphClass: 2
Flags: W
HStem: -168 24<159.739 275.076> 380 76<62 284>
VStem: 40 56<-94.8374 37.561> 134 58<185.63 256.823> 344 56<-83.8627 3.53162>
DStem2: 177 282 400 432 0.779509 0.626391<-4.24814 137.903> 233 168 185 118 0.779509 -0.626391<-69.2916 -6.09687 4.17592 213.617>
LayerCount: 2
Fore
SplineSet
215 -168 m 256,0,1
 140 -168 140 -168 90 -126 c 128,-1,2
 40 -84 40 -84 40 -21 c 0,3,4
 40 21 40 21 81.5 60 c 128,-1,5
 123 99 123 99 185 116 c 1,6,-1
 185 118 l 1,7,8
 134 161 134 161 134 201 c 0,9,10
 134 223 134 223 148.5 246 c 128,-1,11
 163 269 163 269 177 282 c 128,-1,12
 191 295 191 295 216 315 c 2,13,-1
 284 369 l 1,14,-1
 284 380 l 1,15,-1
 62 380 l 1,16,-1
 62 456 l 1,17,-1
 400 456 l 1,18,-1
 400 432 l 1,19,-1
 232 297 l 2,20,21
 192 264 192 264 192 236 c 0,22,23
 192 213 192 213 201.5 199.5 c 128,-1,24
 211 186 211 186 233 168 c 2,25,-1
 331 91 l 2,26,27
 400 37 400 37 400 -19 c 0,28,29
 400 -73 400 -73 345 -120.5 c 128,-1,30
 290 -168 290 -168 215 -168 c 256,0,1
220 -144 m 0,31,32
 267 -144 267 -144 305.5 -114 c 128,-1,33
 344 -84 344 -84 344 -49 c 0,34,35
 344 -9 344 -9 297 28 c 2,36,-1
 201 103 l 1,37,38
 96 67 96 67 96 -22 c 0,39,40
 96 -81 96 -81 129.5 -112.5 c 128,-1,41
 163 -144 163 -144 220 -144 c 0,31,32
EndSplineSet
Validated: 1
EndChar

StartChar: H22073
Encoding: 9633 9633 781
Width: 800
GlyphClass: 2
Flags: W
HStem: 0 40<84 716> 672 40<84 716>
VStem: 44 40<40 672> 716 40<40 672>
LayerCount: 2
Fore
SplineSet
44 0 m 1,0,-1
 44 712 l 1,1,-1
 756 712 l 1,2,-1
 756 0 l 1,3,-1
 44 0 l 1,0,-1
84 40 m 1,4,-1
 716 40 l 1,5,-1
 716 672 l 1,6,-1
 84 672 l 1,7,-1
 84 40 l 1,4,-1
EndSplineSet
Validated: 1
EndChar

StartChar: circle
Encoding: 9675 9675 782
Width: 820
GlyphClass: 2
Flags: W
HStem: -18 28<314.872 505.128> 702 28<314.872 505.128>
VStem: 48 28<254.714 457.286> 744 28<254.714 457.286>
LayerCount: 2
Fore
SplineSet
76 356 m 256,0,1
 76 214 76 214 173 112 c 128,-1,2
 270 10 270 10 410 10 c 256,3,4
 550 10 550 10 647 112 c 128,-1,5
 744 214 744 214 744 356 c 256,6,7
 744 498 744 498 647 600 c 128,-1,8
 550 702 550 702 410 702 c 256,9,10
 270 702 270 702 173 600 c 128,-1,11
 76 498 76 498 76 356 c 256,0,1
48 356 m 256,12,13
 48 512 48 512 152.5 621 c 128,-1,14
 257 730 257 730 410 730 c 256,15,16
 563 730 563 730 667.5 621 c 128,-1,17
 772 512 772 512 772 356 c 256,18,19
 772 200 772 200 667.5 91 c 128,-1,20
 563 -18 563 -18 410 -18 c 256,21,22
 257 -18 257 -18 152.5 91 c 128,-1,23
 48 200 48 200 48 356 c 256,12,13
EndSplineSet
Validated: 1
EndChar

StartChar: uni25EF
Encoding: 9711 9711 783
Width: 916
GlyphClass: 2
Flags: W
HStem: -156 32<350.121 565.879> 652 32<350.121 565.879>
VStem: 48 36<143.033 384.967> 832 36<143.033 384.967>
LayerCount: 2
Fore
SplineSet
84 264 m 256,0,1
 84 104 84 104 192 -10 c 128,-1,2
 300 -124 300 -124 458 -124 c 256,3,4
 616 -124 616 -124 724 -10 c 128,-1,5
 832 104 832 104 832 264 c 256,6,7
 832 424 832 424 724 538 c 128,-1,8
 616 652 616 652 458 652 c 256,9,10
 300 652 300 652 192 538 c 128,-1,11
 84 424 84 424 84 264 c 256,0,1
48 264 m 256,12,13
 48 440 48 440 165.5 562 c 128,-1,14
 283 684 283 684 458 684 c 256,15,16
 633 684 633 684 750.5 562 c 128,-1,17
 868 440 868 440 868 264 c 256,18,19
 868 88 868 88 750.5 -34 c 128,-1,20
 633 -156 633 -156 458 -156 c 256,21,22
 283 -156 283 -156 165.5 -34 c 128,-1,23
 48 88 48 88 48 264 c 256,12,13
EndSplineSet
Validated: 1
EndChar

StartChar: uni27E8
Encoding: 10216 10216 786
Width: 374
GlyphClass: 2
Flags: W
HStem: 710 20G<259.034 304>
VStem: 60 244
DStem2: 108 266 60 266 0.409056 -0.912509<0 485.329> 60 266 108 266 0.409056 0.912509<19.6347 504.964>
LayerCount: 2
Fore
SplineSet
268 -198 m 1,0,-1
 60 266 l 1,1,-1
 268 730 l 1,2,-1
 304 710 l 1,3,-1
 108 266 l 1,4,-1
 304 -178 l 1,5,-1
 268 -198 l 1,0,-1
EndSplineSet
Validated: 1
Colour: ffff
EndChar

StartChar: uni27E9
Encoding: 10217 10217 787
Width: 374
GlyphClass: 2
Flags: W
HStem: 710 20G<70 114.966>
VStem: 70 244
DStem2: 106 730 70 710 0.409056 -0.912509<3.52417 488.853> 70 -176 106 -196 0.410529 0.911848<0 483.5>
LayerCount: 2
Fore
SplineSet
106 730 m 1,0,-1
 314 266 l 1,1,-1
 106 -196 l 1,2,-1
 70 -176 l 1,3,-1
 266 266 l 1,4,-1
 70 710 l 1,5,-1
 106 730 l 1,0,-1
EndSplineSet
Validated: 1
Colour: ffff
EndChar

StartChar: uni27EA
Encoding: 10218 10218 788
Width: 570
GlyphClass: 2
Flags: W
HStem: 710 20G<259.034 304 455.034 500>
DStem2: 108 266 60 266 0.409056 -0.912509<0 485.329> 60 266 108 266 0.409056 0.912509<19.6347 504.964> 304 266 256 266 0.409056 -0.912509<0 485.329> 256 266 304 266 0.409056 0.912509<19.6347 504.964>
LayerCount: 2
Fore
SplineSet
464 -198 m 1,0,-1
 256 266 l 1,1,-1
 464 730 l 1,2,-1
 500 710 l 1,3,-1
 304 266 l 1,4,-1
 500 -178 l 1,5,-1
 464 -198 l 1,0,-1
268 -198 m 1,6,-1
 60 266 l 1,7,-1
 268 730 l 1,8,-1
 304 710 l 1,9,-1
 108 266 l 1,10,-1
 304 -178 l 1,11,-1
 268 -198 l 1,6,-1
EndSplineSet
Validated: 1
Colour: ffff
EndChar

StartChar: uni27EB
Encoding: 10219 10219 789
Width: 570
GlyphClass: 2
Flags: W
HStem: 710 20G<70 114.966 266 310.966>
DStem2: 106 730 70 710 0.409056 -0.912509<3.52417 488.853> 70 -176 106 -196 0.410529 0.911848<0 483.5> 302 730 266 710 0.409056 -0.912509<3.52417 488.853> 266 -176 302 -196 0.410529 0.911848<0 483.5>
LayerCount: 2
Fore
SplineSet
302 730 m 1,0,-1
 510 266 l 1,1,-1
 302 -196 l 1,2,-1
 266 -176 l 1,3,-1
 462 266 l 1,4,-1
 266 710 l 1,5,-1
 302 730 l 1,0,-1
106 730 m 1,6,-1
 314 266 l 1,7,-1
 106 -196 l 1,8,-1
 70 -176 l 1,9,-1
 266 266 l 1,10,-1
 70 710 l 1,11,-1
 106 730 l 1,6,-1
EndSplineSet
Validated: 1
Colour: ffff
EndChar

StartChar: uni2A7D
Encoding: 10877 10877 790
Width: 940
GlyphClass: 2
Flags: W
HStem: 0 21G<820.667 877.778>
DStem2: 56 358 124 344 0.926739 0.375705<57.7584 877.797> 124 344 56 330 0.926739 -0.375705<0 820.039> 70 200 56 164 0.926739 -0.375705<0.551034 878.348>
LayerCount: 2
Fore
SplineSet
870 -166 m 1,0,-1
 56 164 l 1,1,-1
 70 200 l 1,2,-1
 884 -130 l 1,3,-1
 870 -166 l 1,0,-1
870 0 m 1,4,-1
 56 330 l 1,5,-1
 56 358 l 1,6,-1
 870 688 l 1,7,-1
 884 652 l 1,8,-1
 124 344 l 1,9,-1
 884 36 l 1,10,-1
 870 0 l 1,4,-1
EndSplineSet
Validated: 1
EndChar

StartChar: uni2A7E
Encoding: 10878 10878 791
Width: 940
GlyphClass: 2
Flags: W
HStem: 0 21G<62.2222 119.333>
DStem2: 70 688 56 652 0.926739 -0.375705<0.551034 820.59> 56 36 70 0 0.926739 0.375705<0 820.039> 56 -130 70 -166 0.926739 0.375705<0 877.797>
LayerCount: 2
Fore
SplineSet
70 -166 m 1,0,-1
 56 -130 l 1,1,-1
 870 200 l 1,2,-1
 884 164 l 1,3,-1
 70 -166 l 1,0,-1
70 0 m 1,4,-1
 56 36 l 1,5,-1
 816 344 l 1,6,-1
 56 652 l 1,7,-1
 70 688 l 1,8,-1
 884 358 l 1,9,-1
 884 330 l 1,10,-1
 70 0 l 1,4,-1
EndSplineSet
Validated: 1
EndChar

StartChar: uni2AA1
Encoding: 10913 10913 792
Width: 940
GlyphClass: 2
Flags: W
HStem: 664 20G<802.759 851.111>
DStem2: 84 278 146 264 0.880994 0.473127<47.9979 858.121> 146 264 84 250 0.880994 -0.473127<0 810.123> 330 278 392 264 0.880914 0.473276<47.9908 578.944> 392 264 330 250 0.880914 -0.473276<0 530.953>
LayerCount: 2
Fore
SplineSet
840 -156 m 1,0,-1
 84 250 l 1,1,-1
 84 278 l 1,2,-1
 840 684 l 1,3,-1
 860 648 l 1,4,-1
 146 264 l 1,5,-1
 860 -120 l 1,6,-1
 840 -156 l 1,0,-1
840 -24 m 1,7,-1
 330 250 l 1,8,-1
 330 278 l 1,9,-1
 840 552 l 1,10,-1
 860 516 l 1,11,-1
 392 264 l 1,12,-1
 860 12 l 1,13,-1
 840 -24 l 1,7,-1
EndSplineSet
Validated: 1
EndChar

StartChar: uni2AA2
Encoding: 10914 10914 793
Width: 940
GlyphClass: 2
Flags: W
HStem: 664 20G<88.8889 137.241>
DStem2: 100 684 80 648 0.880994 -0.473127<0 810.123> 100 552 80 516 0.880914 -0.473276<0 530.953> 80 12 100 -24 0.880914 0.473276<0.580367 531.533> 80 -120 100 -156 0.880994 0.473127<0.58733 810.711>
LayerCount: 2
Fore
SplineSet
100 684 m 1,0,-1
 856 278 l 1,1,-1
 856 250 l 1,2,-1
 100 -156 l 1,3,-1
 80 -120 l 1,4,-1
 794 264 l 1,5,-1
 80 648 l 1,6,-1
 100 684 l 1,0,-1
100 552 m 1,7,-1
 610 278 l 1,8,-1
 610 250 l 1,9,-1
 100 -24 l 1,10,-1
 80 12 l 1,11,-1
 548 264 l 1,12,-1
 80 516 l 1,13,-1
 100 552 l 1,7,-1
EndSplineSet
Validated: 1
EndChar

StartChar: uni2C75
Encoding: 11381 11381 795
Width: 639
GlyphClass: 2
Flags: W
HStem: 0 32<62 159.517 254.483 352> 356 36<253 532.824> 680 32<62 159.517 254.483 352>
VStem: 161 92<32.323 356 392 679.677> 555 32<255 332.72 415.28 493>
LayerCount: 2
Fore
SplineSet
62 0 m 1,0,-1
 62 32 l 1,1,-1
 134 32 l 2,2,3
 161 32 161 32 161 59 c 2,4,-1
 161 653 l 2,5,6
 161 680 161 680 134 680 c 2,7,-1
 62 680 l 1,8,-1
 62 712 l 1,9,-1
 352 712 l 1,10,-1
 352 680 l 1,11,-1
 280 680 l 2,12,13
 253 680 253 680 253 653 c 2,14,-1
 253 392 l 1,15,-1
 475 392 l 2,16,17
 512 392 512 392 533.5 410 c 128,-1,18
 555 428 555 428 555 457 c 2,19,-1
 555 493 l 1,20,-1
 587 493 l 1,21,-1
 587 255 l 1,22,-1
 555 255 l 1,23,-1
 555 291 l 2,24,25
 555 320 555 320 533.5 338 c 128,-1,26
 512 356 512 356 475 356 c 2,27,-1
 253 356 l 1,28,-1
 253 59 l 2,29,30
 253 32 253 32 280 32 c 2,31,-1
 352 32 l 1,32,-1
 352 0 l 1,33,-1
 62 0 l 1,0,-1
EndSplineSet
Validated: 1
EndChar

StartChar: uni2C76
Encoding: 11382 11382 796
Width: 426
GlyphClass: 2
Flags: W
HStem: 0 24<38 96.842 179.158 238> 224 28<174 360.075> 432 24<38 96.842 179.158 238>
VStem: 102 72<29.158 224 252 426.842> 374 24<166 214.945 261.055 310>
LayerCount: 2
Fore
SplineSet
38 0 m 1,0,-1
 38 24 l 1,1,-1
 80 24 l 2,2,3
 92 24 92 24 97 29 c 128,-1,4
 102 34 102 34 102 46 c 2,5,-1
 102 410 l 2,6,7
 102 422 102 422 97 427 c 128,-1,8
 92 432 92 432 80 432 c 2,9,-1
 38 432 l 1,10,-1
 38 456 l 1,11,-1
 238 456 l 1,12,-1
 238 432 l 1,13,-1
 196 432 l 2,14,15
 184 432 184 432 179 427 c 128,-1,16
 174 422 174 422 174 410 c 2,17,-1
 174 252 l 1,18,-1
 320 252 l 2,19,20
 347 252 347 252 360.5 260 c 128,-1,21
 374 268 374 268 374 290 c 2,22,-1
 374 310 l 1,23,-1
 398 310 l 1,24,-1
 398 166 l 1,25,-1
 374 166 l 1,26,-1
 374 186 l 2,27,28
 374 208 374 208 360.5 216 c 128,-1,29
 347 224 347 224 320 224 c 2,30,-1
 174 224 l 1,31,-1
 174 46 l 2,32,33
 174 34 174 34 179 29 c 128,-1,34
 184 24 184 24 196 24 c 2,35,-1
 238 24 l 1,36,-1
 238 0 l 1,37,-1
 38 0 l 1,0,-1
EndSplineSet
Validated: 1
EndChar

StartChar: uni2DE0
Encoding: 11744 11744 797
Width: 0
GlyphClass: 4
Flags: W
HStem: 536 16<-386 -350.875 -299.125 -227.422> 660 16<-300 -225.074> 774 16<-386 -350.875 -299.125 -214.724>
VStem: -350 50<552 660 676 774> -208 62<563.642 654.443> -180 14<698 723.952>
AnchorPoint: "TopMark" -262 796 basemark 0
AnchorPoint: "Top" -262 508 mark 0
LayerCount: 2
Fore
SplineSet
-386 536 m 1,0,-1
 -386 552 l 1,1,-1
 -364 552 l 2,2,3
 -350 552 -350 552 -350 566 c 2,4,-1
 -350 760 l 2,5,6
 -350 774 -350 774 -364 774 c 2,7,-1
 -386 774 l 1,8,-1
 -386 790 l 1,9,-1
 -170 790 l 1,10,-1
 -166 698 l 1,11,-1
 -180 698 l 1,12,13
 -183 719 -183 719 -196 745 c 0,14,15
 -210 774 -210 774 -246 774 c 2,16,-1
 -286 774 l 2,17,18
 -300 774 -300 774 -300 760 c 2,19,-1
 -300 676 l 1,20,-1
 -242 676 l 2,21,22
 -202 676 -202 676 -174 659 c 128,-1,23
 -146 642 -146 642 -146 608 c 0,24,25
 -146 572 -146 572 -174 554 c 128,-1,26
 -202 536 -202 536 -242 536 c 2,27,-1
 -386 536 l 1,0,-1
-300 566 m 2,28,29
 -300 552 -300 552 -286 552 c 2,30,-1
 -252 552 l 2,31,32
 -230 552 -230 552 -219 568 c 128,-1,33
 -208 584 -208 584 -208 608 c 0,34,35
 -208 660 -208 660 -252 660 c 2,36,-1
 -300 660 l 1,37,-1
 -300 566 l 2,28,29
EndSplineSet
Validated: 1
EndChar

StartChar: uni2DE1
Encoding: 11745 11745 798
Width: 0
GlyphClass: 4
Flags: W
HStem: 536 16<-382 -346.875 -295.125 -217.422> 660 16<-296 -223.316> 774 16<-382 -346.875 -293.421 -224.242>
VStem: -346 50<552 660 676 770.905> -206 54<689.773 764.162> -198 62<564.177 647.498>
AnchorPoint: "TopMark" -262 796 basemark 0
AnchorPoint: "Top" -262 508 mark 0
LayerCount: 2
Fore
SplineSet
-296 676 m 1,0,-1
 -249 676 l 2,1,2
 -227 676 -227 676 -216.5 691 c 128,-1,3
 -206 706 -206 706 -206 726 c 0,4,5
 -206 747 -206 747 -218 760.5 c 128,-1,6
 -230 774 -230 774 -249 774 c 2,7,-1
 -284 774 l 2,8,9
 -291 774 -291 774 -293.5 771 c 128,-1,10
 -296 768 -296 768 -296 760 c 2,11,-1
 -296 676 l 1,0,-1
-382 536 m 1,12,-1
 -382 552 l 1,13,-1
 -360 552 l 2,14,15
 -346 552 -346 552 -346 566 c 2,16,-1
 -346 760 l 2,17,18
 -346 774 -346 774 -360 774 c 2,19,-1
 -382 774 l 1,20,-1
 -382 790 l 1,21,-1
 -238 790 l 2,22,23
 -200 790 -200 790 -176 774.5 c 128,-1,24
 -152 759 -152 759 -152 731 c 0,25,26
 -152 705 -152 705 -172 689.5 c 128,-1,27
 -192 674 -192 674 -216 672 c 1,28,-1
 -216 670 l 1,29,30
 -181 668 -181 668 -158.5 651 c 128,-1,31
 -136 634 -136 634 -136 605 c 0,32,33
 -136 573 -136 573 -164 554.5 c 128,-1,34
 -192 536 -192 536 -232 536 c 2,35,-1
 -382 536 l 1,12,-1
-296 566 m 2,36,37
 -296 552 -296 552 -282 552 c 2,38,-1
 -242 552 l 2,39,40
 -220 552 -220 552 -209 568.5 c 128,-1,41
 -198 585 -198 585 -198 608 c 0,42,43
 -198 630 -198 630 -208.5 645 c 128,-1,44
 -219 660 -219 660 -242 660 c 2,45,-1
 -296 660 l 1,46,-1
 -296 566 l 2,36,37
EndSplineSet
Validated: 1
EndChar

StartChar: uni2DE2
Encoding: 11746 11746 799
Width: 0
GlyphClass: 4
Flags: W
HStem: 536 16<-352 -314.875 -263.125 -226> 774 16<-352 -314.875 -263.125 -184.241>
VStem: -314 50<552 774> -150 14<692 723.676>
AnchorPoint: "TopMark" -242 796 basemark 0
AnchorPoint: "Top" -262 508 mark 0
LayerCount: 2
Fore
SplineSet
-352 536 m 1,0,-1
 -352 552 l 1,1,-1
 -328 552 l 2,2,3
 -314 552 -314 552 -314 566 c 2,4,-1
 -314 760 l 2,5,6
 -314 774 -314 774 -328 774 c 2,7,-1
 -352 774 l 1,8,-1
 -352 790 l 1,9,-1
 -140 790 l 1,10,-1
 -136 692 l 1,11,-1
 -150 692 l 1,12,13
 -153 721 -153 721 -167 747 c 0,14,15
 -180 774 -180 774 -216 774 c 2,16,-1
 -250 774 l 2,17,18
 -264 774 -264 774 -264 760 c 2,19,-1
 -264 566 l 2,20,21
 -264 552 -264 552 -250 552 c 2,22,-1
 -226 552 l 1,23,-1
 -226 536 l 1,24,-1
 -352 536 l 1,0,-1
EndSplineSet
Validated: 1
EndChar

StartChar: uni2DE3
Encoding: 11747 11747 800
Width: 0
GlyphClass: 4
Flags: W
HStem: 516 66<-378 -370 -155.831 -140> 566 16<-313.868 -224.457> 774 16<-342 -307.679 -282.842 -224.875 -173.125 -138>
VStem: -306 18<664.287 765.748> -224 50<582 774>
AnchorPoint: "TopMark" -250 796 basemark 0
AnchorPoint: "Top" -262 508 mark 0
LayerCount: 2
Fore
SplineSet
-384 516 m 1,0,-1
 -378 582 l 1,1,-1
 -364 582 l 2,2,3
 -350 582 -350 582 -344 586 c 128,-1,4
 -338 590 -338 590 -334 600 c 0,5,6
 -319 642 -319 642 -312.5 675 c 128,-1,7
 -306 708 -306 708 -306 755 c 0,8,9
 -306 774 -306 774 -319 774 c 2,10,-1
 -342 774 l 1,11,-1
 -342 790 l 1,12,-1
 -138 790 l 1,13,-1
 -138 774 l 1,14,-1
 -160 774 l 2,15,16
 -174 774 -174 774 -174 760 c 2,17,-1
 -174 602 l 2,18,19
 -174 582 -174 582 -154 582 c 2,20,-1
 -140 582 l 1,21,-1
 -134 516 l 1,22,-1
 -148 516 l 1,23,24
 -153 537 -153 537 -165 550 c 0,25,26
 -180 566 -180 566 -202 566 c 2,27,-1
 -316 566 l 2,28,29
 -338 566 -338 566 -353 550 c 0,30,31
 -358 544 -358 544 -362.5 535.5 c 128,-1,32
 -367 527 -367 527 -368 522 c 2,33,-1
 -370 516 l 1,34,-1
 -384 516 l 1,0,-1
-314 592 m 128,-1,36
 -314 582 -314 582 -303 582 c 2,37,-1
 -237 582 l 2,38,39
 -224 582 -224 582 -224 594 c 2,40,-1
 -224 760 l 2,41,42
 -224 774 -224 774 -238 774 c 2,43,-1
 -264 774 l 2,44,45
 -278 774 -278 774 -283 766 c 128,-1,46
 -288 758 -288 758 -288 740 c 0,47,48
 -288 714 -288 714 -294 677.5 c 128,-1,49
 -300 641 -300 641 -308 618 c 0,50,35
 -314 602 -314 602 -314 592 c 128,-1,36
EndSplineSet
Validated: 1
EndChar

StartChar: uni2DE4
Encoding: 11748 11748 801
Width: 0
GlyphClass: 4
Flags: W
HStem: 528 20<-434.97 -406.604 -117.396 -89.0302> 536 16<-325 -287.875 -236.125 -199> 658 18<-332.544 -287 -237 -191.456> 772 16<-325 -287.875 -236.125 -199> 775 22<-403.499 -371.56 -152.44 -120.501>
VStem: -452 10<562.401 599> -437 44<732.859 774.902> -403 50<553.674 654.563> -287 50<552 658 676 772> -171 50<553.674 654.563> -131 44<732.859 774.902> -82 12.5<559.686 599>
AnchorPoint: "TopMark" -262 796 basemark 0
AnchorPoint: "Top" -262 508 mark 0
LayerCount: 2
Fore
SplineSet
-455 599 m 1,0,-1
 -443 599 l 1,1,2
 -443 589 -443 589 -442 579.5 c 128,-1,3
 -441 570 -441 570 -435.5 559 c 128,-1,4
 -430 548 -430 548 -422 548 c 0,5,6
 -412 548 -412 548 -407.5 553.5 c 128,-1,7
 -403 559 -403 559 -403 574 c 2,8,-1
 -403 610 l 2,9,10
 -403 628 -403 628 -395.5 640 c 128,-1,11
 -388 652 -388 652 -376 657.5 c 128,-1,12
 -364 663 -364 663 -353.5 665 c 128,-1,13
 -343 667 -343 667 -333 667 c 1,14,-1
 -333 669 l 1,15,16
 -362 678 -362 678 -367 746 c 0,17,18
 -368 759 -368 759 -373 767 c 128,-1,19
 -378 775 -378 775 -385 775 c 0,20,21
 -393 775 -393 775 -393 768 c 0,22,23
 -393 762 -393 762 -386 757 c 0,24,25
 -377 750 -377 750 -377 738 c 0,26,27
 -377 728 -377 728 -384.5 722 c 128,-1,28
 -392 716 -392 716 -405 716 c 128,-1,29
 -418 716 -418 716 -427.5 727 c 128,-1,30
 -437 738 -437 738 -437 754 c 0,31,32
 -437 772 -437 772 -425.5 784.5 c 128,-1,33
 -414 797 -414 797 -398 797 c 0,34,35
 -380 797 -380 797 -366.5 784.5 c 128,-1,36
 -353 772 -353 772 -351 746 c 0,37,38
 -346 676 -346 676 -315 676 c 2,39,-1
 -287 676 l 1,40,-1
 -287 758 l 2,41,42
 -287 772 -287 772 -301 772 c 2,43,-1
 -325 772 l 1,44,-1
 -325 788 l 1,45,-1
 -199 788 l 1,46,-1
 -199 772 l 1,47,-1
 -223 772 l 2,48,49
 -237 772 -237 772 -237 758 c 2,50,-1
 -237 676 l 1,51,-1
 -209 676 l 2,52,53
 -178 676 -178 676 -173 746 c 0,54,55
 -171 772 -171 772 -157.5 784.5 c 128,-1,56
 -144 797 -144 797 -126 797 c 0,57,58
 -110 797 -110 797 -98.5 784.5 c 128,-1,59
 -87 772 -87 772 -87 754 c 0,60,61
 -87 738 -87 738 -96.5 727 c 128,-1,62
 -106 716 -106 716 -119 716 c 128,-1,63
 -132 716 -132 716 -139.5 722 c 128,-1,64
 -147 728 -147 728 -147 738 c 0,65,66
 -147 750 -147 750 -138 757 c 0,67,68
 -131 762 -131 762 -131 768 c 0,69,70
 -131 775 -131 775 -139 775 c 0,71,72
 -146 775 -146 775 -151 767 c 128,-1,73
 -156 759 -156 759 -157 746 c 0,74,75
 -162 678 -162 678 -191 669 c 1,76,-1
 -191 667 l 1,77,78
 -181 667 -181 667 -170.5 665 c 128,-1,79
 -160 663 -160 663 -148 657.5 c 128,-1,80
 -136 652 -136 652 -128.5 640 c 128,-1,81
 -121 628 -121 628 -121 610 c 2,82,-1
 -121 574 l 2,83,84
 -121 559 -121 559 -116.5 553.5 c 128,-1,85
 -112 548 -112 548 -102 548 c 0,86,87
 -94 548 -94 548 -88.5 559 c 128,-1,88
 -83 570 -83 570 -82 579.5 c 128,-1,89
 -81 589 -81 589 -81 599 c 1,90,-1
 -69 599 l 1,91,92
 -69 589 -69 589 -69.5 582.5 c 128,-1,93
 -70 576 -70 576 -72 564.5 c 128,-1,94
 -74 553 -74 553 -78.5 546 c 128,-1,95
 -83 539 -83 539 -92 533.5 c 128,-1,96
 -101 528 -101 528 -114 528 c 0,97,98
 -138 528 -138 528 -154.5 542 c 128,-1,99
 -171 556 -171 556 -171 586 c 2,100,-1
 -171 619 l 2,101,102
 -171 658 -171 658 -207 658 c 2,103,-1
 -237 658 l 1,104,-1
 -237 566 l 2,105,106
 -237 552 -237 552 -223 552 c 2,107,-1
 -199 552 l 1,108,-1
 -199 536 l 1,109,-1
 -325 536 l 1,110,-1
 -325 552 l 1,111,-1
 -301 552 l 2,112,113
 -287 552 -287 552 -287 566 c 2,114,-1
 -287 658 l 1,115,-1
 -317 658 l 2,116,117
 -353 658 -353 658 -353 619 c 2,118,-1
 -353 586 l 2,119,120
 -353 556 -353 556 -369.5 542 c 128,-1,121
 -386 528 -386 528 -410 528 c 0,122,123
 -423 528 -423 528 -432 533.5 c 128,-1,124
 -441 539 -441 539 -445.5 546 c 128,-1,125
 -450 553 -450 553 -452 564.5 c 128,-1,126
 -454 576 -454 576 -454.5 582.5 c 128,-1,127
 -455 589 -455 589 -455 599 c 1,0,-1
EndSplineSet
Validated: 1
EndChar

StartChar: uni2DE5
Encoding: 11749 11749 802
Width: 0
GlyphClass: 4
Flags: W
HStem: 528 16<-302.639 -230.593> 661 18<-289 -226.881> 782 16<-290.013 -233.698>
VStem: -358 30<558.227 605.5> -350 14<700 722.704 783 796> -214 54<692.352 772.717> -206 62<559.798 646.74>
AnchorPoint: "TopMark" -262 796 basemark 0
AnchorPoint: "Top" -262 508 mark 0
LayerCount: 2
Fore
SplineSet
-358 599 m 0,0,1
 -358 612 -358 612 -350 623.5 c 128,-1,2
 -342 635 -342 635 -326 635 c 0,3,4
 -312 635 -312 635 -306 628 c 128,-1,5
 -300 621 -300 621 -300 613 c 0,6,7
 -300 597 -300 597 -318 591 c 0,8,9
 -328 587 -328 587 -328 579 c 0,10,11
 -328 564 -328 564 -307.5 554 c 128,-1,12
 -287 544 -287 544 -263 544 c 0,13,14
 -234 544 -234 544 -220 561 c 128,-1,15
 -206 578 -206 578 -206 606 c 0,16,17
 -206 628 -206 628 -215.5 644.5 c 128,-1,18
 -225 661 -225 661 -248 661 c 2,19,-1
 -289 661 l 1,20,-1
 -289 679 l 1,21,-1
 -249 679 l 2,22,23
 -230 679 -230 679 -222 694.5 c 128,-1,24
 -214 710 -214 710 -214 730 c 0,25,26
 -214 759 -214 759 -228.5 770.5 c 128,-1,27
 -243 782 -243 782 -263 782 c 0,28,29
 -288 782 -288 782 -308 758.5 c 128,-1,30
 -328 735 -328 735 -336 700 c 1,31,-1
 -350 700 l 1,32,-1
 -350 796 l 1,33,-1
 -338 796 l 1,34,-1
 -335 783 l 2,35,36
 -333 775 -333 775 -327 775 c 0,37,38
 -320 775 -320 775 -314 780 c 0,39,40
 -284 798 -284 798 -255 798 c 0,41,42
 -210 798 -210 798 -185 780 c 128,-1,43
 -160 762 -160 762 -160 731 c 0,44,45
 -160 710 -160 710 -177 694 c 128,-1,46
 -194 678 -194 678 -219 673 c 1,47,-1
 -219 670 l 1,48,49
 -188 666 -188 666 -166 650 c 128,-1,50
 -144 634 -144 634 -144 604 c 0,51,52
 -144 576 -144 576 -172 552 c 128,-1,53
 -200 528 -200 528 -260 528 c 0,54,55
 -298 528 -298 528 -328 546 c 128,-1,56
 -358 564 -358 564 -358 599 c 0,0,1
EndSplineSet
Validated: 1
EndChar

StartChar: uni2DE6
Encoding: 11750 11750 803
Width: 0
GlyphClass: 4
Flags: W
HStem: 528 20<-170.741 -141.514> 536 16<-388 -350.875 -299.125 -262> 658 18<-300 -244.25> 772 16<-388 -350.875 -299.125 -262> 775 22<-205.929 -170.5>
VStem: -350 50<552 658 676 772> -224 50<553.674 653.801> -184 44<732.859 774.902> -134 12<561.388 599>
AnchorPoint: "TopMark" -262 796 basemark 0
AnchorPoint: "Top" -262 508 mark 0
LayerCount: 2
Fore
SplineSet
-388 536 m 1,0,-1
 -388 552 l 1,1,-1
 -364 552 l 2,2,3
 -350 552 -350 552 -350 566 c 2,4,-1
 -350 758 l 2,5,6
 -350 772 -350 772 -364 772 c 2,7,-1
 -388 772 l 1,8,-1
 -388 788 l 1,9,-1
 -262 788 l 1,10,-1
 -262 772 l 1,11,-1
 -286 772 l 2,12,13
 -300 772 -300 772 -300 758 c 2,14,-1
 -300 676 l 1,15,-1
 -262 676 l 2,16,17
 -230 676 -230 676 -226 746 c 0,18,19
 -224 772 -224 772 -211 784.5 c 128,-1,20
 -198 797 -198 797 -179 797 c 0,21,22
 -162 797 -162 797 -151 784.5 c 128,-1,23
 -140 772 -140 772 -140 754 c 0,24,25
 -140 738 -140 738 -149 727 c 128,-1,26
 -158 716 -158 716 -172 716 c 128,-1,27
 -186 716 -186 716 -193 722 c 128,-1,28
 -200 728 -200 728 -200 738 c 0,29,30
 -200 750 -200 750 -191 757 c 0,31,32
 -184 762 -184 762 -184 768 c 0,33,34
 -184 775 -184 775 -192 775 c 128,-1,35
 -200 775 -200 775 -204.5 767 c 128,-1,36
 -209 759 -209 759 -210 746 c 0,37,38
 -215 678 -215 678 -244 669 c 1,39,-1
 -244 667 l 1,40,41
 -234 667 -234 667 -224 665 c 128,-1,42
 -214 663 -214 663 -202 657.5 c 128,-1,43
 -190 652 -190 652 -182 640 c 128,-1,44
 -174 628 -174 628 -174 610 c 2,45,-1
 -174 574 l 2,46,47
 -174 559 -174 559 -170 553.5 c 128,-1,48
 -166 548 -166 548 -155 548 c 0,49,50
 -146 548 -146 548 -141 559 c 128,-1,51
 -136 570 -136 570 -135 579.5 c 128,-1,52
 -134 589 -134 589 -134 599 c 1,53,-1
 -122 599 l 1,54,55
 -122 589 -122 589 -122 582.5 c 128,-1,56
 -122 576 -122 576 -125 564.5 c 128,-1,57
 -128 553 -128 553 -132 546 c 128,-1,58
 -136 539 -136 539 -145 533.5 c 128,-1,59
 -154 528 -154 528 -167 528 c 0,60,61
 -192 528 -192 528 -208 542 c 128,-1,62
 -224 556 -224 556 -224 586 c 2,63,-1
 -224 619 l 2,64,65
 -224 658 -224 658 -260 658 c 2,66,-1
 -300 658 l 1,67,-1
 -300 566 l 2,68,69
 -300 552 -300 552 -286 552 c 2,70,-1
 -262 552 l 1,71,-1
 -262 536 l 1,72,-1
 -388 536 l 1,0,-1
EndSplineSet
Validated: 1
EndChar

